<svg width="41" height="52" viewBox="0 0 41 52" version="1.1" xmlns="http://www.w3.org/2000/svg" xmlns:xlink="http://www.w3.org/1999/xlink">
<title>Group</title>
<desc>Created using Figma</desc>
<g id="Canvas" transform="translate(-8717 1448)">
<g id="Group">
<g id="Vector">
<use xlink:href="#path0_stroke" transform="translate(8719 -1446)" fill="#272727"/>
</g>
<g id="Vector">
<use xlink:href="#path1_stroke" transform="translate(8728.62 -1436.28)" fill="#272727"/>
</g>
</g>
</g>
<defs>
<path id="path0_stroke" d="M 18.5 48L 17.426 49.0472C 17.7084 49.3367 18.0956 49.5 18.5 49.5C 18.9044 49.5 19.2916 49.3367 19.574 49.0472L 18.5 48ZM 35.5 18.6992C 35.5 20.8985 34.4922 23.7498 32.7877 26.9251C 31.0955 30.0827 28.8503 33.322 26.5595 36.3101C 24.2727 39.2946 21.9967 41.9456 20.2723 43.8744C 19.4136 44.8351 18.7033 45.6031 18.2012 46.138C 17.9518 46.4038 17.7583 46.6072 17.6244 46.7469C 17.5583 46.816 17.5088 46.8674 17.4745 46.9028C 17.4578 46.9201 17.4457 46.9326 17.4372 46.9413C 17.4331 46.9455 17.4303 46.9484 17.4283 46.9505C 17.4274 46.9515 17.4268 46.952 17.4263 46.9525C 17.4261 46.9527 17.4261 46.9528 17.426 46.9529C 17.426 46.9529 17.426 46.9528 18.5 48C 19.574 49.0472 19.5742 49.047 19.5745 49.0467C 19.5746 49.0465 19.575 49.0461 19.5754 49.0457C 19.576 49.0451 19.5771 49.0439 19.5785 49.0426C 19.5809 49.0401 19.5848 49.0361 19.5896 49.0311C 19.5989 49.0215 19.6133 49.0067 19.6316 48.9877C 19.6674 48.9507 19.7217 48.8943 19.7911 48.8219C 19.9283 48.6787 20.1322 48.4643 20.3886 48.1911C 20.8983 47.6481 21.6333 46.8532 22.5089 45.8738C 24.2533 43.9224 26.6023 41.1847 28.9405 38.135C 31.2747 35.0889 33.6545 31.6485 35.431 28.3439C 37.1953 25.0571 38.5 21.6637 38.5 18.6992L 35.5 18.6992ZM 18.5 48C 19.574 46.9528 19.574 46.9529 19.574 46.9529C 19.5739 46.9528 19.5739 46.9527 19.5737 46.9525C 19.5732 46.952 19.5726 46.9515 19.5717 46.9505C 19.5697 46.9484 19.5669 46.9455 19.5628 46.9413C 19.5543 46.9326 19.5422 46.9201 19.5255 46.9028C 19.4912 46.8674 19.4417 46.816 19.3756 46.7469C 19.2417 46.6072 19.0482 46.4038 18.7988 46.138C 18.2967 45.6031 17.5864 44.8351 16.7277 43.8744C 15.0033 41.9456 12.7273 39.2946 10.4405 36.3101C 8.14974 33.322 5.90448 30.0827 4.21226 26.9251C 2.50782 23.7498 1.5 20.8985 1.5 18.6992L -1.5 18.6992C -1.5 21.6637 -0.195321 25.0571 1.56899 28.3439C 3.34552 31.6485 5.72526 35.0889 8.05947 38.135C 10.3977 41.1847 12.7467 43.9224 14.4911 45.8738C 15.3667 46.8532 16.1017 47.6481 16.6114 48.1911C 16.8678 48.4643 17.0717 48.6787 17.2089 48.8219C 17.2783 48.8943 17.3326 48.9507 17.3684 48.9877C 17.3867 49.0067 17.4011 49.0215 17.4104 49.0311C 17.4152 49.0361 17.4191 49.0401 17.4215 49.0426C 17.4229 49.0439 17.424 49.0451 17.4246 49.0457C 17.425 49.0461 17.4254 49.0465 17.4255 49.0467C 17.4258 49.047 17.426 49.0472 18.5 48ZM 1.5 18.6992C 1.5 9.18448 9.12561 1.5 18.5 1.5L 18.5 -1.5C 7.43855 -1.5 -1.5 7.55799 -1.5 18.6992L 1.5 18.6992ZM 18.5 1.5C 27.8743 1.5 35.5 9.1859 35.5 18.6992L 38.5 18.6992C 38.5 7.55957 29.5615 -1.5 18.5 -1.5L 18.5 1.5Z"/>
<path id="path1_stroke" d="M 16.26 8.97559C 16.26 13.1194 12.9408 16.4512 8.88 16.4512L 8.88 19.4512C 14.6278 19.4512 19.26 14.7459 19.26 8.97559L 16.26 8.97559ZM 8.88 16.4512C 4.81924 16.4512 1.5 13.1194 1.5 8.97559L -1.5 8.97559C -1.5 14.7459 3.13218 19.4512 8.88 19.4512L 8.88 16.4512ZM 1.5 8.97559C 1.5 4.83175 4.81924 1.5 8.88 1.5L 8.88 -1.5C 3.13218 -1.5 -1.5 3.20526 -1.5 8.97559L 1.5 8.97559ZM 8.88 1.5C 12.9408 1.5 16.26 4.83175 16.26 8.97559L 19.26 8.97559C 19.26 3.20526 14.6278 -1.5 8.88 -1.5L 8.88 1.5Z"/>
</defs>
</svg>
