<?xml version="1.0" encoding="UTF-8" standalone="no"?>
<svg
   xmlns:dc="http://purl.org/dc/elements/1.1/"
   xmlns:cc="http://creativecommons.org/ns#"
   xmlns:rdf="http://www.w3.org/1999/02/22-rdf-syntax-ns#"
   xmlns:svg="http://www.w3.org/2000/svg"
   xmlns="http://www.w3.org/2000/svg"
   xmlns:sodipodi="http://sodipodi.sourceforge.net/DTD/sodipodi-0.dtd"
   xmlns:inkscape="http://www.inkscape.org/namespaces/inkscape"
   id="Слой_1"
   data-name="Слой 1"
   viewBox="0 0 100 171"
   version="1.1"
   sodipodi:docname="logo 100x171.svg"
   inkscape:version="0.92.1 r15371">
  <metadata
     id="metadata77">
    <rdf:RDF>
      <cc:Work
         rdf:about="">
        <dc:format>image/svg+xml</dc:format>
        <dc:type
           rdf:resource="http://purl.org/dc/dcmitype/StillImage" />
      </cc:Work>
    </rdf:RDF>
  </metadata>
  <defs
     id="defs75" />
  <sodipodi:namedview
     pagecolor="#ffffff"
     bordercolor="#666666"
     borderopacity="1"
     objecttolerance="10"
     gridtolerance="10"
     guidetolerance="10"
     inkscape:pageopacity="0"
     inkscape:pageshadow="2"
     inkscape:window-width="640"
     inkscape:window-height="480"
     id="namedview73"
     showgrid="false"
     inkscape:zoom="1.380117"
     inkscape:cx="50"
     inkscape:cy="85.5"
     inkscape:window-x="57"
     inkscape:window-y="34"
     inkscape:window-maximized="0"
     inkscape:current-layer="Слой_1" />
  <title
     id="title2">logo 100x171</title>
  <path
     d="M47.64,160.49q0,4.69,0,9.38c0,.16,0,.33,0,.49a.16.16,0,0,1-.12.12H45.15a.57.57,0,0,1-.17,0,.15.15,0,0,1-.09-.08.84.84,0,0,1,0-.22c0-.28,0-.56,0-.84a1,1,0,0,0,0-.22s-.06,0-.08,0a.32.32,0,0,0-.1.08l-.32.37a4.48,4.48,0,0,1-2.7,1.41,6,6,0,0,1-2.64-.21,4.53,4.53,0,0,1-1.89-1.13,5.68,5.68,0,0,1-1.49-2.54,9.7,9.7,0,0,1-.31-3.61,7.77,7.77,0,0,1,.47-2.07,5.88,5.88,0,0,1,1.31-2A4.8,4.8,0,0,1,40,157.91a6,6,0,0,1,1.77,0,4.19,4.19,0,0,1,2.15,1,3.84,3.84,0,0,1,.75.93c0,.07.07.16.15.21h0a.18.18,0,0,0,0-.08q0-.2,0-.4,0-4.2,0-8.4c0-.73-.08-.65.63-.65h1.78a1.27,1.27,0,0,1,.26,0,.16.16,0,0,1,.09.09.33.33,0,0,1,0,.13c0,.13,0,.27,0,.4Q47.64,155.83,47.64,160.49Zm-2.71,3.83a5.63,5.63,0,0,0-.1-1.2,4.06,4.06,0,0,0-.51-1.37,2.88,2.88,0,0,0-1.81-1.33,3.92,3.92,0,0,0-1.28-.09,3,3,0,0,0-2.48,1.5,3.77,3.77,0,0,0-.43,1.07,6.87,6.87,0,0,0-.05,2.91,3.77,3.77,0,0,0,.44,1.21,2.81,2.81,0,0,0,1.69,1.36,3.82,3.82,0,0,0,2.11,0,2.72,2.72,0,0,0,1.12-.62,3.73,3.73,0,0,0,1-1.58A5.4,5.4,0,0,0,44.93,164.32Z"
     id="path4"
     style="fill:#ffffff" />
  <path
     d="M0,137.45q0-4.69,0-9.38c0-.16,0-.33,0-.49a.16.16,0,0,1,.12-.12H2.44a.82.82,0,0,1,.22,0,.17.17,0,0,1,.09.09.33.33,0,0,1,0,.13c0,.13,0,.27,0,.4q0,4.22,0,8.44c0,.15,0,.29,0,.44l0,0h0a1.1,1.1,0,0,0,.1-.14,4.19,4.19,0,0,1,.55-.75A3.93,3.93,0,0,1,5.4,135a5.73,5.73,0,0,1,2.29-.15,4.84,4.84,0,0,1,1.8.59,5,5,0,0,1,1.24,1,6.14,6.14,0,0,1,1.4,2.69,9.52,9.52,0,0,1,.21,3.13,8.67,8.67,0,0,1-.33,1.79,5.92,5.92,0,0,1-1.15,2.14,4.7,4.7,0,0,1-2.48,1.55,6,6,0,0,1-2.73.07,4.27,4.27,0,0,1-2.13-1.13c-.22-.22-.42-.45-.63-.68h0s-.06,0-.06.05a.9.9,0,0,0,0,.18c0,.3,0,.59,0,.89a.93.93,0,0,1,0,.22.17.17,0,0,1-.09.09.31.31,0,0,1-.13,0H.13a.14.14,0,0,1-.12-.11c0-.13,0-.27,0-.4q0-1.13,0-2.27Q0,141,0,137.45Zm9.47,4a5.67,5.67,0,0,0-.1-1.29,4,4,0,0,0-.58-1.48,3,3,0,0,0-1.85-1.29,4.18,4.18,0,0,0-1.59,0,2.83,2.83,0,0,0-1.94,1.21,3.58,3.58,0,0,0-.52,1.12,6.28,6.28,0,0,0-.07,2.95A3.89,3.89,0,0,0,3.37,144a3.19,3.19,0,0,0,1.29,1.19,3.52,3.52,0,0,0,2.76.12A2.75,2.75,0,0,0,9,143.82a4.16,4.16,0,0,0,.37-1.13A5.77,5.77,0,0,0,9.47,141.41Z"
     id="path6"
     style="fill:#ffffff" />
  <path
     d="M56.61,36.35l-.7-.28A14.73,14.73,0,0,0,51.67,35a14.1,14.1,0,0,0-2-.09A15.12,15.12,0,0,0,35.56,45.52a14.76,14.76,0,0,0-.65,5.12,15.07,15.07,0,0,0,6.45,11.76,14.75,14.75,0,0,0,5.43,2.37,15.53,15.53,0,0,0,4.14.31,14.88,14.88,0,0,0,5.23-1.27,16.8,16.8,0,0,0,2-1.07l.33-.21a.22.22,0,0,1,.27.08l.09.13,2,3.46a.34.34,0,0,1,.05.15.22.22,0,0,1,0,.14,1.19,1.19,0,0,1-.23.2,19.52,19.52,0,0,1-11,3.1A19.25,19.25,0,0,1,43,68.53a19.86,19.86,0,0,1-12.51-14.9,19.8,19.8,0,0,1-.15-6.33A19.83,19.83,0,0,1,46,30.59a19.1,19.1,0,0,1,4.45-.41,20,20,0,0,1,4.5.64A19.4,19.4,0,0,1,58.31,32a1.47,1.47,0,0,1,.27.16.16.16,0,0,1,.06.13,1.23,1.23,0,0,1-.1.3L56.8,36.12A1.52,1.52,0,0,1,56.61,36.35Z"
     id="path8"
     style="fill:#ffffff" />
  <path
     d="M57.63,135.25h3l.22,0s0,.05,0,.07a.36.36,0,0,1-.08.1l-3.09,3-1.92,1.86-.19.19c-.09.09-.09.14,0,.23l.23.27,5.41,6.08.2.24s0,.11,0,.11H58.11a.34.34,0,0,1-.16-.07c-.1-.09-.18-.19-.27-.29l-4-4.56-1-1.14a.64.64,0,0,0-.13-.11.08.08,0,0,0-.07,0,.64.64,0,0,0,0,.17q0,2.71,0,5.42c0,.61,0,.56-.55.56h-2c-.15,0-.17-.09-.18-.2s0-.12,0-.18,0-.21,0-.31q0-9.29,0-18.59c0-.16,0-.33,0-.49s.07-.21.22-.21h2.18l.26,0a.11.11,0,0,1,.09.09,1.26,1.26,0,0,1,0,.13c0,.12,0,.24,0,.36q0,5.71,0,11.43c0,.21,0,.41,0,.62,0,0,0,0,0,.07a.05.05,0,0,0,.08,0l.17-.15,1.68-1.66,2.91-2.88Z"
     id="path10"
     style="fill:#ffffff" />
  <path
     d="M33.8,141.35q0,2.76,0,5.51c0,.15,0,.3,0,.44a.14.14,0,0,1-.11.12H31.14a.13.13,0,0,1-.11-.12c0-.09,0-.18,0-.27,0-.25,0-.5,0-.76a2.14,2.14,0,0,0,0-.22.05.05,0,0,0-.06-.05h0l-.18.2a5.13,5.13,0,0,1-.69.69,4.42,4.42,0,0,1-2.17,1,6.17,6.17,0,0,1-2.17-.06,4.8,4.8,0,0,1-3.08-2,6.22,6.22,0,0,1-1-2.23,10.27,10.27,0,0,1-.22-2.83,7.93,7.93,0,0,1,.3-1.88,6.09,6.09,0,0,1,1.38-2.46,4.79,4.79,0,0,1,2.49-1.46,5.85,5.85,0,0,1,2-.1,5.11,5.11,0,0,1,1.08.24,4.09,4.09,0,0,1,1.17.63,3.65,3.65,0,0,1,.93,1.07l.09.15s0,.08.09.08.07-.05.07-.15,0-.27,0-.4c0-.3,0-.59,0-.89a1.2,1.2,0,0,1,0-.22.1.1,0,0,1,.08-.09l.13,0h2.31l.13,0a.1.1,0,0,1,.08.09,3.28,3.28,0,0,1,0,.35q0,1.13,0,2.27Q33.8,139.66,33.8,141.35Zm-2.7-.07a5.91,5.91,0,0,0-.2-1.64,3.62,3.62,0,0,0-.36-.86,2.9,2.9,0,0,0-2.12-1.46,4.28,4.28,0,0,0-1.33,0,2.91,2.91,0,0,0-1.71.87,3.52,3.52,0,0,0-.8,1.36,5.36,5.36,0,0,0-.21,1A6.71,6.71,0,0,0,24.5,143a3.54,3.54,0,0,0,.36.91,2.84,2.84,0,0,0,1.71,1.4,3.85,3.85,0,0,0,1.49.14,3,3,0,0,0,1.94-1,3.92,3.92,0,0,0,.89-1.57A5.61,5.61,0,0,0,31.09,141.28Z"
     id="path12"
     style="fill:#ffffff" />
  <path
     d="M71,164.43a6.35,6.35,0,0,1-.65,2.84,6.17,6.17,0,0,1-1.41,1.87,6.88,6.88,0,0,1-3.31,1.71,6.74,6.74,0,0,1-2.69,0,6.64,6.64,0,0,1-3.74-2.16,6.44,6.44,0,0,1-.45-8A6.53,6.53,0,0,1,62.81,158a6.46,6.46,0,0,1,1.68-.16,6.68,6.68,0,0,1,5.44,3A6.09,6.09,0,0,1,71,164.43Zm-2.92-.08c0-.09,0-.23,0-.38a4,4,0,0,0-.92-2.27,3.58,3.58,0,0,0-1.9-1.24,3.86,3.86,0,0,0-1.06-.12,3.45,3.45,0,0,0-1.88.59,4,4,0,0,0-1.6,2.13,4.44,4.44,0,0,0-.2,1.58,4.07,4.07,0,0,0,1,2.56,3.56,3.56,0,0,0,2.31,1.28,3.49,3.49,0,0,0,2.27-.43,4,4,0,0,0,1.81-2.28A4.62,4.62,0,0,0,68.08,164.35Z"
     id="path14"
     style="fill:#ffffff" />
  <path
     d="M69,134.8a6.77,6.77,0,0,1,3.37.81,6.64,6.64,0,0,1,3.07,3.45,6.43,6.43,0,0,1-2,7.36,6.81,6.81,0,0,1-4.89,1.49,6.71,6.71,0,0,1-5.86-4.79,6.42,6.42,0,0,1,1.6-6.29,6.7,6.7,0,0,1,3.59-1.92A5.12,5.12,0,0,1,69,134.8Zm-3.65,6.59c0,.09,0,.18,0,.27a4,4,0,0,0,1.68,3.14,2.94,2.94,0,0,0,.74.41,3.83,3.83,0,0,0,2.31.14,3.37,3.37,0,0,0,1.33-.68,4,4,0,0,0,1.33-1.95,4.62,4.62,0,0,0,.18-1.53,4,4,0,0,0-1.37-3,3.41,3.41,0,0,0-1.43-.78,3.93,3.93,0,0,0-1.19-.12,3.36,3.36,0,0,0-1.87.63,4,4,0,0,0-1.64,2.5A4.15,4.15,0,0,0,65.38,141.39Z"
     id="path16"
     style="fill:#ffffff" />
  <path
     d="M29.56,162.16q0-1.65,0-3.29c0-.13,0-.27,0-.4a.17.17,0,0,1,.16-.18h2.45l.08,0a.11.11,0,0,1,.06.06,2.19,2.19,0,0,1,0,.31c0,1.94,0,3.88,0,5.83a11.7,11.7,0,0,1-.22,2.3,6.83,6.83,0,0,1-.47,1.48A4.15,4.15,0,0,1,30.27,170a4.47,4.47,0,0,1-1.1.57,7.11,7.11,0,0,1-1.56.36,9.81,9.81,0,0,1-1.46.07,8.4,8.4,0,0,1-2.23-.34,4.5,4.5,0,0,1-1.7-.94,4,4,0,0,1-.78-1,6.23,6.23,0,0,1-.7-2,9.91,9.91,0,0,1-.2-1.81c0-.43,0-.86,0-1.29q0-2.45,0-4.89c0-.54,0-.51.5-.51h2.09a.16.16,0,0,1,.17.16c0,.13,0,.27,0,.4q0,3,0,5.91,0,.36,0,.71a4.62,4.62,0,0,0,.18,1.23,2.49,2.49,0,0,0,.4.84,2.22,2.22,0,0,0,1.2.79,4.55,4.55,0,0,0,1,.16,5.41,5.41,0,0,0,1.37-.07,3.31,3.31,0,0,0,.76-.24,2,2,0,0,0,1.08-1.13,3.76,3.76,0,0,0,.27-1.16c0-.31,0-.62,0-.93C29.56,164,29.56,163.09,29.56,162.16Z"
     id="path18"
     style="fill:#ffffff" />
  <path
     d="M87.85,139.1q0-1.64,0-3.29c0-.15,0-.3,0-.44a.13.13,0,0,1,.12-.11h2.49a.15.15,0,0,1,.14.14c0,.09,0,.18,0,.27,0,1.91,0,3.82,0,5.73a11.51,11.51,0,0,1-.24,2.43,7.66,7.66,0,0,1-.41,1.31,4.18,4.18,0,0,1-2.54,2.4,6.32,6.32,0,0,1-1.69.36l-.62,0a9.26,9.26,0,0,1-2.64-.25A4.92,4.92,0,0,1,81,147a3.94,3.94,0,0,1-1.24-1.31,5.66,5.66,0,0,1-.62-1.56,10.48,10.48,0,0,1-.29-2.24c0-.19,0-.39,0-.58q0-2.82,0-5.65c0-.1,0-.21,0-.31a.15.15,0,0,1,.15-.13h2.31l.22,0a.1.1,0,0,1,.06.06.44.44,0,0,1,0,.13c0,.15,0,.3,0,.44q0,3,0,6.09a6.67,6.67,0,0,0,.09,1.24,3.83,3.83,0,0,0,.22.77,2.1,2.1,0,0,0,1.32,1.23,4.6,4.6,0,0,0,1.22.22,5.84,5.84,0,0,0,1.24-.07,2.91,2.91,0,0,0,.88-.29,2,2,0,0,0,.94-1,3.58,3.58,0,0,0,.32-1.2c0-.29,0-.59,0-.89,0-1,0-2,0-2.93Z"
     id="path20"
     style="fill:#ffffff" />
  <path
     d="M7.22,161.13,7.1,161a2.07,2.07,0,0,0-1.58-1,2.76,2.76,0,0,0-1,0,1.59,1.59,0,0,0-.67.33,1.22,1.22,0,0,0-.46.92,1,1,0,0,0,.23.7,2.4,2.4,0,0,0,.64.54,6.48,6.48,0,0,0,1.08.52l1,.36a10,10,0,0,1,1.84.89,4.37,4.37,0,0,1,.73.58,2.91,2.91,0,0,1,.87,1.81,4.13,4.13,0,0,1-.13,1.63,3.39,3.39,0,0,1-1.5,1.92,4.7,4.7,0,0,1-1.56.63,7.91,7.91,0,0,1-3.44,0,4.42,4.42,0,0,1-3-2.33l0-.08a.15.15,0,0,1,0-.16l.15-.09,1.87-1,.08,0a.1.1,0,0,1,.07,0c0,.08.07.16.11.24A2.35,2.35,0,0,0,4,168.78a3.41,3.41,0,0,0,.48.09,4.54,4.54,0,0,0,1,0,2,2,0,0,0,.87-.3A1.43,1.43,0,0,0,7,167.17a1.13,1.13,0,0,0-.32-.67,2.53,2.53,0,0,0-.55-.45,5.54,5.54,0,0,0-1-.49,18.7,18.7,0,0,1-1.88-.79,9.12,9.12,0,0,1-1.08-.62,4.61,4.61,0,0,1-.63-.5A2.81,2.81,0,0,1,.6,161.6a3.72,3.72,0,0,1,.07-.88,3.24,3.24,0,0,1,1.13-1.81A4.27,4.27,0,0,1,3.5,158a6.61,6.61,0,0,1,3.3,0,4,4,0,0,1,1.29.58,3,3,0,0,1,.91,1l.08.16a.15.15,0,0,1,0,.16l-.18.13-1.5,1Z"
     id="path22"
     style="fill:#ffffff" />
  <path
     d="M46.78,135.56a1.75,1.75,0,0,1,0,.21q0,1.31,0,2.62a.12.12,0,0,1,0,0s0,.06,0,.07a.09.09,0,0,1-.08,0l-.17-.14a4.18,4.18,0,0,0-1.57-.9,4.5,4.5,0,0,0-2-.2,4.73,4.73,0,0,0-.65.12,3.44,3.44,0,0,0-2.21,1.92,3.82,3.82,0,0,0-.33,1.15,5.64,5.64,0,0,0,.14,2.38,3.41,3.41,0,0,0,1.54,2,3.08,3.08,0,0,0,.69.31,4.9,4.9,0,0,0,2.68.07,3.61,3.61,0,0,0,1.71-1l.23-.2s.06,0,.07,0a.16.16,0,0,1,0,.09c0,.9,0,1.81,0,2.71a.29.29,0,0,1-.18.28,6,6,0,0,1-1.36.53,7.82,7.82,0,0,1-2.56.23,7.51,7.51,0,0,1-1.53-.27,6.08,6.08,0,0,1-4-3.82,7.46,7.46,0,0,1-.36-1.74,7.71,7.71,0,0,1,.18-2.56,6,6,0,0,1,3-3.92,6.48,6.48,0,0,1,2.32-.73,9.18,9.18,0,0,1,1.42-.08,7,7,0,0,1,2.1.35A4.41,4.41,0,0,1,46.78,135.56Z"
     id="path24"
     style="fill:#ffffff" />
  <path
     d="M14.51,14.92a1,1,0,0,1,.19.12L17.63,18a.48.48,0,0,1,.07.14,1,1,0,0,1-.32.43,44.29,44.29,0,0,0-3.09,3.55A45.4,45.4,0,0,0,7.24,35a44.78,44.78,0,0,0-1.46,5.13A43.43,43.43,0,0,0,5,44.54c-.1.86-.16,1.72-.22,2.58A39,39,0,0,0,4.71,51c0,.31,0,.63,0,.94a.28.28,0,0,1-.24.27l-.23,0c-1,.06-2.09.12-3.14.16-1.21,0-1,.17-1.1-1a36.83,36.83,0,0,1,0-3.77A45.92,45.92,0,0,1,.6,42.28a49.07,49.07,0,0,1,2.21-8.82,49.84,49.84,0,0,1,5.3-10.74,50.71,50.71,0,0,1,6-7.47A.91.91,0,0,1,14.51,14.92Z"
     id="path26"
     style="fill:#ffffff" />
  <path
     d="M13.93,51.19l-1.65,0a1.7,1.7,0,0,1-.39,0,.24.24,0,0,1-.16-.14,2.65,2.65,0,0,1-.06-.54c0-.68,0-1.36,0-2a36,36,0,0,1,.54-5.15,38.46,38.46,0,0,1,17.65-26,1.89,1.89,0,0,1,.34-.19.34.34,0,0,1,.21,0,.31.31,0,0,1,.11.11l2.31,3.27a.62.62,0,0,1,.1.21.18.18,0,0,1,0,.14,1.52,1.52,0,0,1-.24.19c-.59.38-1.2.75-1.78,1.15A33.63,33.63,0,0,0,20.7,33.43a33.3,33.3,0,0,0-4.34,16.36c0,.34,0,.68,0,1a.29.29,0,0,1-.3.3l-2.12.09Z"
     id="path28"
     style="fill:#ffffff" />
  <path
     d="M32.06,83.75c.54-1.28,1.15-2.55,1.72-3.84a.93.93,0,0,1,.14-.19l.09-.06c.78.32,1.52.77,2.32,1.09s1.55.65,2.33.93,1.64.54,2.47.78,1.62.41,2.45.57,1.7.29,2.56.39,1.67.15,2.51.18,1.73,0,2.59,0a24.67,24.67,0,0,0,2.51-.18c.86-.12,1.72-.21,2.56-.37s1.63-.36,2.45-.57a23.08,23.08,0,0,0,2.47-.77c.78-.29,1.56-.61,2.34-.92a23.39,23.39,0,0,0,2.33-1.13c.73-.4,1.45-.82,2.2-1.24a2,2,0,0,1,.23.24l2.16,3.19c.06.09.11.18.16.27a.2.2,0,0,1-.06.21l-.39.27a38,38,0,0,1-10.8,4.58,39.74,39.74,0,0,1-4.94.91,40.58,40.58,0,0,1-4.94.24,35.25,35.25,0,0,1-5.09-.39,38,38,0,0,1-12-3.86A.69.69,0,0,1,32.06,83.75Z"
     id="path30"
     style="fill:#ffffff" />
  <path
     d="M71.95,32.72c.08-.08.17-.18.27-.26L75.09,30a1.24,1.24,0,0,1,.26-.17.16.16,0,0,1,.14,0,1.39,1.39,0,0,1,.22.22,32.29,32.29,0,0,1,5.86,12.06,33.09,33.09,0,0,1,.76,4.25,33.54,33.54,0,0,1,.1,6.19,31.11,31.11,0,0,1-1,5.79,32.84,32.84,0,0,1-2.16,5.8,30.36,30.36,0,0,1-2.15,3.74c-.07.11-.16.2-.25.31a2,2,0,0,1-.3-.14L73.3,65.78l-.06,0a.22.22,0,0,1-.07-.28c.06-.11.13-.23.2-.34a27.44,27.44,0,0,0,3.83-9.23,24.28,24.28,0,0,0,.57-4.28c0-.52.06-1,.06-1.57A27.72,27.72,0,0,0,74.72,37.2a28.76,28.76,0,0,0-2.36-3.79A1.58,1.58,0,0,1,71.95,32.72Z"
     id="path32"
     style="fill:#ffffff" />
  <path
     d="M19.94,51.18l1.69-.08a1.61,1.61,0,0,1,.39,0,.26.26,0,0,1,.17.14,1.64,1.64,0,0,1,0,.39,27.2,27.2,0,0,0,2.23,9.42A27.9,27.9,0,0,0,35.87,74a26.54,26.54,0,0,0,5.65,2.52l.75.24c.19.07.25.18.19.35l-.9,2.59L41.08,81a.24.24,0,0,1-.31.15,30.06,30.06,0,0,1-4.19-1.56A32.65,32.65,0,0,1,21,64.69a32.06,32.06,0,0,1-3-8.89,33.36,33.36,0,0,1-.47-4c0-.52,0-.59.56-.61Z"
     id="path34"
     style="fill:#ffffff" />
  <path
     d="M19.81,49.89H18a.9.9,0,0,1-.31,0,.26.26,0,0,1-.15-.16,3.41,3.41,0,0,1,0-.54,29.33,29.33,0,0,1,.57-5.38,31.86,31.86,0,0,1,2.79-8.23A32.69,32.69,0,0,1,35.49,20.9a29.7,29.7,0,0,1,3.91-1.64l.3-.09a.18.18,0,0,1,.2.09.82.82,0,0,1,.11.21l1.2,3.65c0,.07,0,.15.06.23a.24.24,0,0,1-.14.25l-.44.16A27.81,27.81,0,0,0,27.17,34.09a27.61,27.61,0,0,0-3.53,7,27.07,27.07,0,0,0-1.08,4.34,27.72,27.72,0,0,0-.36,3.75c0,.16,0,.31,0,.47a.29.29,0,0,1-.24.27l-.47,0H19.81Z"
     id="path36"
     style="fill:#ffffff" />
  <path
     d="M97.87,142.56q0,2.15,0,4.31c0,.15,0,.3,0,.44a.14.14,0,0,1-.12.11h-2.4a.31.31,0,0,1-.13,0,.19.19,0,0,1-.09-.09.34.34,0,0,1,0-.13c0-.13,0-.27,0-.4q0-4.24,0-8.49c0-.16,0-.33,0-.49a.16.16,0,0,0-.17-.16H93.1a.14.14,0,0,1-.12-.11,1.2,1.2,0,0,1,0-.13q0-1,0-1.91a.69.69,0,0,1,0-.17.1.1,0,0,1,.06-.06l.22,0H95a.15.15,0,0,0,.14-.15q0-.2,0-.4,0-1.75,0-3.51c0-.13,0-.27,0-.4s.07-.15.17-.16h2.27a.87.87,0,0,1,.22,0,.13.13,0,0,1,.08.09,3.72,3.72,0,0,1,0,.4q0,1.8,0,3.6c0,.13,0,.27,0,.4a.14.14,0,0,0,.12.11h1.64a1.31,1.31,0,0,1,.26,0s.07.06.08.09a.35.35,0,0,1,0,.13q0,1,0,2s0,.06,0,.09a.14.14,0,0,1-.11.12H98.24a1.37,1.37,0,0,0-.26,0,.13.13,0,0,0-.08.09,3.53,3.53,0,0,0,0,.4q0,1.91,0,3.82Z"
     id="path38"
     style="fill:#ffffff" />
  <path
     d="M16,165.6q0,2.18,0,4.35c0,.15,0,.3,0,.44s0,0-.06.06l-.09,0H13.59l-.22,0a.12.12,0,0,1-.09-.08.37.37,0,0,1,0-.13c0-.13,0-.27,0-.4q0-4.24,0-8.49c0-.15,0-.3,0-.44s-.05-.22-.21-.22H11.49a1.44,1.44,0,0,1-.26,0,.16.16,0,0,1-.09-.08.31.31,0,0,1,0-.13q0-1,0-2s0,0,0,0a.16.16,0,0,1,.16-.18h1.6a1.45,1.45,0,0,0,.26,0,.16.16,0,0,0,.09-.08.32.32,0,0,0,0-.13c0-.12,0-.24,0-.36q0-1.76,0-3.51c0-.13,0-.27,0-.4a.13.13,0,0,1,.11-.12H15.9a.14.14,0,0,1,.11.12c0,.06,0,.12,0,.18s0,.27,0,.4q0,1.69,0,3.38c0,.13,0,.27,0,.4a.15.15,0,0,0,.15.14h1.6l.26,0a.16.16,0,0,1,.09.08.29.29,0,0,1,0,.13q0,1,0,2a.3.3,0,0,1,0,.13.16.16,0,0,1-.09.08l-.26,0h-1.6a.15.15,0,0,0-.15.13s0,.09,0,.13,0,.24,0,.36Q16,163.46,16,165.6Z"
     id="path40"
     style="fill:#ffffff" />
  <path
     d="M26.24,50.86l-1.57.05H24.2a.25.25,0,0,1-.2-.21c0-.16,0-.31,0-.47,0-1,0-1.93.14-2.9a25.42,25.42,0,0,1,1-4.92A26.15,26.15,0,0,1,39.28,26.27,24.78,24.78,0,0,1,45,24.46a24.09,24.09,0,0,1,4-.47,1.92,1.92,0,0,1,.39,0,.17.17,0,0,1,.11.1,1.29,1.29,0,0,1,0,.31c0,1.1.05,2.2.07,3.3a4.66,4.66,0,0,1,0,.62.32.32,0,0,1-.3.31l-.31,0a20.7,20.7,0,0,0-9.54,2.81,21.14,21.14,0,0,0-8,8.13A21.08,21.08,0,0,0,28.68,50c0,.76,0,.74-.71.78l-1.73.08Z"
     id="path42"
     style="fill:#ffffff" />
  <path
     d="M8.5,51.6l1.65-.06c.13,0,.26,0,.39,0a.19.19,0,0,1,.17.14,1.58,1.58,0,0,1,.06.38,38.93,38.93,0,0,0,5.57,18.2,39.19,39.19,0,0,0,9.6,10.79l.62.49a.24.24,0,0,1,0,.28l-.25.4-1.86,2.82c-.07.11-.15.21-.23.32a.23.23,0,0,1-.28.06l-.38-.27A44,44,0,0,1,7.3,60.58,43.24,43.24,0,0,1,6.12,53c-.1-1.47-.26-1.3,1.21-1.34l1.18,0Z"
     id="path44"
     style="fill:#ffffff" />
  <path
     d="M86.39,84.12a1.65,1.65,0,0,1-.23-.17l-2.8-2.86L83.31,81a.24.24,0,0,1,0-.29l.61-.71A44.71,44.71,0,0,0,93,64.22a43.37,43.37,0,0,0,1.28-4.69A45.79,45.79,0,0,0,95,54.87a47.69,47.69,0,0,0,.26-5.72q0-.12,0-.24c0-.34.07-.41.41-.42l3.69-.13a3.39,3.39,0,0,1,.39,0,.18.18,0,0,1,.15.16,3.15,3.15,0,0,1,0,.55q0,1.26,0,2.51c0,.37,0,.73-.05,1.1a45.07,45.07,0,0,1-.46,4.61,48.56,48.56,0,0,1-1.06,5.23,49.28,49.28,0,0,1-2.88,8.13,50,50,0,0,1-5.81,9.67c-.92,1.21-1.91,2.36-2.93,3.49A.66.66,0,0,1,86.39,84.12Z"
     id="path46"
     style="fill:#ffffff" />
  <path
     d="M85.9,48.78l-1.88,0h-.16a.27.27,0,0,1-.2-.21c0-.26-.06-.52-.07-.78a33.51,33.51,0,0,0-8.16-19.9,33.53,33.53,0,0,0-8.56-7.07,4.63,4.63,0,0,1-.4-.25.17.17,0,0,1-.07-.21,2.59,2.59,0,0,1,.13-.28l1.82-3.3a1.16,1.16,0,0,1,.19-.25.16.16,0,0,1,.14,0,3.73,3.73,0,0,1,.42.21,38.67,38.67,0,0,1,5.52,3.87A38.28,38.28,0,0,1,87.7,42.92a34.34,34.34,0,0,1,.59,5.14,3,3,0,0,1,0,.47.16.16,0,0,1-.1.11,4.23,4.23,0,0,1-.54.06l-1.73.06Z"
     id="path48"
     style="fill:#ffffff" />
  <path
     d="M90,68.16a1.54,1.54,0,0,1-.08.28c-.4.8-.78,1.6-1.2,2.38a43.35,43.35,0,0,1-5,7.39,44.06,44.06,0,0,1-9.19,8.27,43.27,43.27,0,0,1-8.6,4.5c-1.24.48-2.51.91-3.79,1.28l-.3.08a.26.26,0,0,1-.26-.13c-.08-.25-.15-.5-.22-.75l-.85-3.1a.92.92,0,0,1,0-.31.26.26,0,0,1,.11-.19,4,4,0,0,1,.52-.18,38.82,38.82,0,0,0,13-6.64A39.48,39.48,0,0,0,85.74,66.37l.21-.42a.24.24,0,0,1,.34-.08l.28.15,3,1.73a3.93,3.93,0,0,1,.39.26S90,68.09,90,68.16Z"
     id="path50"
     style="fill:#ffffff" />
  <path
     d="M18.28,137.47q0,4.67,0,9.33c0,.16,0,.33,0,.49a.14.14,0,0,1-.15.14H15.85l-.26,0a.1.1,0,0,1-.06-.06.43.43,0,0,1,0-.13c0-.15,0-.3,0-.44q0-9.33,0-18.66,0-.24,0-.49a.17.17,0,0,1,.17-.16h2.44a.16.16,0,0,1,.14.15c0,.06,0,.12,0,.18s0,.27,0,.4Q18.28,132.83,18.28,137.47Z"
     id="path52"
     style="fill:#ffffff" />
  <path
     d="M25.29,19.39c-.08.07-.16.17-.26.25a40.29,40.29,0,0,0-3.23,3,39.26,39.26,0,0,0-7.28,10.46,38.78,38.78,0,0,0-2.65,7.38,39.27,39.27,0,0,0-.94,5.33c-.12,1.09-.17,2.19-.22,3.29,0,.18,0,.36,0,.55a.24.24,0,0,1-.21.19l-.16,0-3.93,0a.6.6,0,0,1-.22,0,.18.18,0,0,1-.1-.11,2.77,2.77,0,0,1,0-.47c0-1.52.13-3,.32-4.54a44.53,44.53,0,0,1,1.08-5.7,44,44,0,0,1,9.72-18.17,44.16,44.16,0,0,1,4.49-4.38c.1-.08.21-.16.32-.23a.19.19,0,0,1,.22,0,1.59,1.59,0,0,1,.24.2L25.07,19A.57.57,0,0,1,25.29,19.39Z"
     id="path54"
     style="fill:#ffffff" />
  <path
     d="M16.44,86.92a1.79,1.79,0,0,1,.15-.25l2.53-3.1a1,1,0,0,1,.12-.1.21.21,0,0,1,.22,0L20,84A45.29,45.29,0,0,0,31,91.12,44.76,44.76,0,0,0,43.2,94.77c1.17.17,2.33.31,3.51.39s2.46.13,3.69.12c.23,0,.47,0,.7,0a.29.29,0,0,1,.21.21c0,.08,0,.16,0,.23q.05,1.77.11,3.53a2.57,2.57,0,0,1,0,.47.26.26,0,0,1-.14.16A.86.86,0,0,1,51,100,43.31,43.31,0,0,1,46,99.81l-1.87-.18a43.94,43.94,0,0,1-5.1-.86,49.12,49.12,0,0,1-8.29-2.64,49.73,49.73,0,0,1-9.07-5A51.39,51.39,0,0,1,17,87.51c-.16-.14-.31-.28-.46-.43A.72.72,0,0,1,16.44,86.92Z"
     id="path56"
     style="fill:#ffffff" />
  <path
     d="M84.12,13.56a2.22,2.22,0,0,1-.17.24l-2.31,2.46a2,2,0,0,1-.66.53.68.68,0,0,1-.4-.24,42,42,0,0,0-3.32-2.76,44.91,44.91,0,0,0-6.93-4.3,45.46,45.46,0,0,0-6.6-2.69A44,44,0,0,0,58.4,5.47a46.14,46.14,0,0,0-8.19-.78l-.55,0a.26.26,0,0,1-.25-.25c0-.13,0-.26,0-.39Q49.3,2.19,49.24.35a.3.3,0,0,1,0-.15c0-.06.09-.15.15-.16a1.44,1.44,0,0,1,.39,0c.89,0,1.78,0,2.67.07,1,.06,2.09.13,3.13.24s2.13.27,3.18.46a48.84,48.84,0,0,1,7.58,2A49.66,49.66,0,0,1,79.13,9.38a51.3,51.3,0,0,1,4.4,3.55c.17.16.34.32.51.49A.74.74,0,0,1,84.12,13.56Z"
     id="path58"
     style="fill:#ffffff" />
  <path
     d="M50.69,73.66q0-.79,0-1.57c0-.16,0-.31,0-.47a.29.29,0,0,1,.28-.31l1.49-.13a20.79,20.79,0,0,0,7-2A21.33,21.33,0,0,0,70.65,55.39a19.75,19.75,0,0,0,.67-4.73c0-.16,0-.31,0-.47a.28.28,0,0,1,.26-.24h3.85a1.56,1.56,0,0,1,.39,0,.26.26,0,0,1,.15.15.94.94,0,0,1,0,.31c0,.5,0,1-.05,1.49A25.87,25.87,0,0,1,69.1,67.67a25.93,25.93,0,0,1-14.4,7.92c-1.06.19-2.12.3-3.19.4a5.68,5.68,0,0,1-.63,0,.25.25,0,0,1-.2-.21c0-.1,0-.21,0-.31,0-.6,0-1.2,0-1.81Z"
     id="path60"
     style="fill:#ffffff" />
  <path
     d="M88.64,29.11a1,1,0,0,1-.42.34,30.47,30.47,0,0,1-3.46,2c-.2-.1-.26-.32-.36-.49a39.31,39.31,0,0,0-8.08-10.15,39.11,39.11,0,0,0-17.94-9.22l-.23-.06a.24.24,0,0,1-.14-.25l0-.15.75-3.69a2.9,2.9,0,0,1,.09-.3A.24.24,0,0,1,59.11,7c.21,0,.41.06.62.11A44.15,44.15,0,0,1,88.41,28.54,1.15,1.15,0,0,1,88.64,29.11Z"
     id="path62"
     style="fill:#ffffff" />
  <path
     d="M36.28,49.69a14,14,0,0,1,1.25-5.37,13.64,13.64,0,0,1,6.57-6.69,14,14,0,0,1,6.23-1.35,13.76,13.76,0,0,1,12.85,9.89,10.51,10.51,0,0,1,.43,2.15,1.16,1.16,0,0,1,0,.31.49.49,0,0,1-.12.18s0,0-.07,0l-4.07.34a.42.42,0,0,1-.16,0c-.07,0-.15-.05-.17-.14s-.08-.3-.11-.46a9,9,0,0,0-7.31-7.45,8.91,8.91,0,0,0-5.58.77,8.81,8.81,0,0,0-3.92,3.72,9,9,0,0,0-1.13,4c0,.1,0,.21,0,.31s-.09.29-.27.32l-.39,0-3.61.12a.52.52,0,0,1-.23,0c-.06,0-.15-.09-.15-.15S36.28,49.84,36.28,49.69Z"
     id="path64"
     style="fill:#ffffff" />
  <path
     d="M47.08,49.86a2.28,2.28,0,0,1-.84,0l-2.51-.13h-.31c-1.12,0-1,0-.86-1.1a6.82,6.82,0,0,1,1.31-3.08,7.49,7.49,0,0,1,4.33-2.93,7.58,7.58,0,0,1,9.2,5.72,7.21,7.21,0,0,1-1,5.64,7.55,7.55,0,0,1-11.22,1.79,7.42,7.42,0,0,1-2.61-4.36,2.37,2.37,0,0,1,0-.39.17.17,0,0,1,.14-.17,3.16,3.16,0,0,1,.46-.1l3.73-.49a.27.27,0,0,1,.29.21c0,.1.05.2.08.3a2.89,2.89,0,1,0,0-1.61C47.18,49.41,47.14,49.62,47.08,49.86Z"
     id="path66"
     style="fill:#ffffff" />
  <path
     d="M51.67,164.37q0-2.75,0-5.51c0-.15,0-.3,0-.44a.14.14,0,0,1,.11-.12h2.35a.61.61,0,0,1,.18,0,.17.17,0,0,1,.09.08.31.31,0,0,1,0,.13c0,.13,0,.27,0,.4q0,5.48,0,11c0,.66.07.6-.59.6h-2a.16.16,0,0,1-.17-.16c0-.13,0-.27,0-.4Q51.67,167.15,51.67,164.37Z"
     id="path68"
     style="fill:#ffffff" />
  <path
     d="M58.23,154.73a1.74,1.74,0,1,1,0-3.48,1.74,1.74,0,0,1,0,3.48Z"
     id="path70"
     style="fill:#ffffff" />
</svg>
