<?xml version="1.0" encoding="utf-8"?>
<!-- Generator: Adobe Illustrator 20.1.0, SVG Export Plug-In . SVG Version: 6.00 Build 0)  -->
<svg version="1.1"
	 id="Слой_1" inkscape:version="0.92.1 r15371" sodipodi:docname="logover.svg" xmlns:cc="http://creativecommons.org/ns#" xmlns:dc="http://purl.org/dc/elements/1.1/" xmlns:inkscape="http://www.inkscape.org/namespaces/inkscape" xmlns:rdf="http://www.w3.org/1999/02/22-rdf-syntax-ns#" xmlns:sodipodi="http://sodipodi.sourceforge.net/DTD/sodipodi-0.dtd" xmlns:svg="http://www.w3.org/2000/svg"
	 xmlns="http://www.w3.org/2000/svg" xmlns:xlink="http://www.w3.org/1999/xlink" x="0px" y="0px" viewBox="0 0 100 190.5"
	 style="enable-background:new 0 0 100 190.5;" xml:space="preserve">
<style type="text/css">
	.st0{fill:#FFFFFF;}
</style>
<sodipodi:namedview  bordercolor="#666666" borderopacity="1" gridtolerance="10" guidetolerance="10" id="namedview73" inkscape:current-layer="Слой_1" inkscape:cx="56.200718" inkscape:cy="20.969233" inkscape:pageopacity="0" inkscape:pageshadow="2" inkscape:window-height="876" inkscape:window-maximized="1" inkscape:window-width="1553" inkscape:window-x="47" inkscape:window-y="24" inkscape:zoom="22.081871" objecttolerance="10" pagecolor="#ffffff" showgrid="false">
	</sodipodi:namedview>
<title  id="title2">logo 100x171</title>
<path id="path4" class="st0" d="M47.6,160.5c0,3.1,0,6.3,0,9.4c0,0.2,0,0.3,0,0.5c0,0.1-0.1,0.1-0.1,0.1h-2.4c-0.1,0-0.1,0-0.2,0
	c0,0-0.1,0-0.1-0.1c0-0.1,0-0.1,0-0.2c0-0.3,0-0.6,0-0.8c0-0.1,0-0.1,0-0.2c0,0-0.1,0-0.1,0c0,0-0.1,0-0.1,0.1l-0.3,0.4
	c-0.7,0.8-1.7,1.3-2.7,1.4c-0.9,0.1-1.8,0.1-2.6-0.2c-0.7-0.2-1.4-0.6-1.9-1.1c-0.7-0.7-1.2-1.6-1.5-2.5c-0.3-1.2-0.4-2.4-0.3-3.6
	c0.1-0.7,0.2-1.4,0.5-2.1c0.3-0.7,0.7-1.4,1.3-2c0.7-0.8,1.8-1.4,2.9-1.5c0.6-0.1,1.2-0.1,1.8,0c0.8,0.1,1.5,0.5,2.2,1
	c0.3,0.3,0.6,0.6,0.8,0.9c0,0.1,0.1,0.2,0.2,0.2l0,0c0,0,0-0.1,0-0.1c0-0.1,0-0.3,0-0.4c0-2.8,0-5.6,0-8.4c0-0.7-0.1-0.6,0.6-0.6
	h1.8c0.1,0,0.2,0,0.3,0c0,0,0.1,0,0.1,0.1c0,0,0,0.1,0,0.1c0,0.1,0,0.3,0,0.4C47.6,154.3,47.6,157.4,47.6,160.5z M44.9,164.3
	c0-0.4,0-0.8-0.1-1.2c-0.1-0.5-0.3-0.9-0.5-1.4c-0.4-0.7-1.1-1.1-1.8-1.3c-0.4-0.1-0.9-0.1-1.3-0.1c-1,0-2,0.6-2.5,1.5
	c-0.2,0.3-0.3,0.7-0.4,1.1c-0.2,1-0.2,1.9,0,2.9c0.1,0.4,0.2,0.8,0.4,1.2c0.4,0.7,1,1.2,1.7,1.4c0.7,0.2,1.4,0.2,2.1,0
	c0.4-0.1,0.8-0.3,1.1-0.6c0.5-0.4,0.8-1,1-1.6C44.8,165.6,44.9,165,44.9,164.3z"/>
<path id="path6" class="st0" d="M0,137.4c0-3.1,0-6.3,0-9.4c0-0.2,0-0.3,0-0.5c0-0.1,0.1-0.1,0.1-0.1h2.3c0.1,0,0.1,0,0.2,0
	c0,0,0.1,0,0.1,0.1c0,0,0,0.1,0,0.1c0,0.1,0,0.3,0,0.4c0,2.8,0,5.6,0,8.4c0,0.1,0,0.3,0,0.4l0,0l0,0c0,0,0.1-0.1,0.1-0.1
	c0.2-0.3,0.3-0.5,0.5-0.8c0.5-0.5,1.2-0.9,2-1.1c0.7-0.2,1.5-0.3,2.3-0.1c0.6,0.1,1.2,0.3,1.8,0.6c0.5,0.3,0.9,0.6,1.2,1
	c0.7,0.8,1.2,1.7,1.4,2.7c0.2,1,0.3,2.1,0.2,3.1c0,0.6-0.2,1.2-0.3,1.8c-0.2,0.8-0.6,1.5-1.1,2.1c-0.6,0.8-1.5,1.3-2.5,1.6
	c-0.9,0.2-1.8,0.3-2.7,0.1c-0.8-0.2-1.5-0.6-2.1-1.1c-0.2-0.2-0.4-0.4-0.6-0.7l0,0c0,0-0.1,0-0.1,0.1c0,0.1,0,0.1,0,0.2
	c0,0.3,0,0.6,0,0.9c0,0.1,0,0.1,0,0.2c0,0,0,0.1-0.1,0.1c0,0-0.1,0-0.1,0H0.1c-0.1,0-0.1-0.1-0.1-0.1c0-0.1,0-0.3,0-0.4
	c0-0.8,0-1.5,0-2.3C0,142.2,0,139.8,0,137.4z M9.5,141.4c0-0.4,0-0.9-0.1-1.3c-0.1-0.5-0.3-1-0.6-1.5c-0.4-0.7-1.1-1.1-1.8-1.3
	c-0.5-0.1-1.1-0.1-1.6,0c-0.8,0.1-1.5,0.6-1.9,1.2c-0.2,0.3-0.4,0.7-0.5,1.1c-0.3,1-0.3,2-0.1,2.9c0.1,0.5,0.3,0.9,0.5,1.3
	c0.3,0.5,0.8,0.9,1.3,1.2c0.9,0.4,1.9,0.5,2.8,0.1c0.7-0.3,1.3-0.8,1.6-1.5c0.2-0.4,0.3-0.7,0.4-1.1C9.5,142.3,9.5,141.8,9.5,141.4
	L9.5,141.4z"/>
<path id="path8" class="st0" d="M56.6,36.3l-0.7-0.3c-1.4-0.6-2.8-0.9-4.2-1.1c-0.7-0.1-1.3-0.1-2-0.1c-6.5,0.1-12.2,4.4-14.1,10.6
	c-0.5,1.7-0.7,3.4-0.7,5.1c0.2,4.7,2.6,9.1,6.5,11.8c1.6,1.1,3.5,2,5.4,2.4c1.4,0.3,2.8,0.4,4.1,0.3c1.8-0.1,3.6-0.5,5.2-1.3
	c0.7-0.3,1.4-0.7,2-1.1l0.3-0.2c0.1,0,0.2,0,0.3,0.1l0.1,0.1l2,3.5c0,0,0,0.1,0,0.2c0,0,0,0.1,0,0.1c-0.1,0.1-0.1,0.1-0.2,0.2
	c-3.3,2.1-7.1,3.2-11,3.1c-2.3,0-4.5-0.4-6.7-1.3c-6.5-2.4-11.2-8.1-12.5-14.9c-0.4-2.1-0.4-4.2-0.1-6.3c1.2-8.3,7.4-15,15.7-16.7
	c1.5-0.3,3-0.4,4.5-0.4c1.5,0,3,0.3,4.5,0.6c1.2,0.3,2.3,0.7,3.4,1.2c0.1,0,0.2,0.1,0.3,0.2c0,0,0.1,0.1,0.1,0.1
	c0,0.1-0.1,0.2-0.1,0.3l-1.7,3.5C56.7,36.2,56.7,36.3,56.6,36.3z"/>
<path id="path10" class="st0" d="M57.6,135.2h3h0.2c0,0,0,0.1,0,0.1c0,0,0,0.1-0.1,0.1l-3.1,3l-1.9,1.9l-0.2,0.2
	c-0.1,0.1-0.1,0.1,0,0.2l0.2,0.3l5.4,6.1l0.2,0.2v0.1h-3.3c-0.1,0-0.1,0-0.2-0.1c-0.1-0.1-0.2-0.2-0.3-0.3l-4-4.6l-1-1.1
	c0,0-0.1-0.1-0.1-0.1c0,0,0,0-0.1,0c0,0.1,0,0.1,0,0.2c0,1.8,0,3.6,0,5.4c0,0.6,0,0.6-0.5,0.6h-2c-0.2,0-0.2-0.1-0.2-0.2
	s0-0.1,0-0.2s0-0.2,0-0.3c0-6.2,0-12.4,0-18.6c0-0.2,0-0.3,0-0.5s0.1-0.2,0.2-0.2h2.2h0.3c0,0,0.1,0,0.1,0.1c0,0,0,0.1,0,0.1
	c0,0.1,0,0.2,0,0.4c0,3.8,0,7.6,0,11.4c0,0.2,0,0.4,0,0.6c0,0,0,0,0,0.1c0,0,0,0,0.1,0c0,0,0,0,0,0l0.2-0.1l1.7-1.7l2.9-2.9
	L57.6,135.2z"/>
<path id="path12" class="st0" d="M33.8,141.3c0,1.8,0,3.7,0,5.5c0,0.1,0,0.3,0,0.4c0,0.1-0.1,0.1-0.1,0.1h-2.5
	c-0.1,0-0.1-0.1-0.1-0.1c0-0.1,0-0.2,0-0.3c0-0.2,0-0.5,0-0.8c0-0.1,0-0.1,0-0.2c0,0,0-0.1,0-0.1c0,0,0,0,0,0l0,0l-0.2,0.2
	c-0.2,0.3-0.4,0.5-0.7,0.7c-0.6,0.5-1.4,0.9-2.2,1c-0.7,0.1-1.5,0.1-2.2-0.1c-1.3-0.2-2.4-1-3.1-2c-0.5-0.7-0.8-1.4-1-2.2
	c-0.2-0.9-0.3-1.9-0.2-2.8c0-0.6,0.1-1.3,0.3-1.9c0.3-0.9,0.7-1.8,1.4-2.5c0.7-0.7,1.5-1.2,2.5-1.5c0.7-0.1,1.3-0.2,2-0.1
	c0.4,0,0.7,0.1,1.1,0.2c0.4,0.1,0.8,0.4,1.2,0.6c0.4,0.3,0.7,0.7,0.9,1.1l0.1,0.1c0,0,0,0.1,0.1,0.1s0.1-0.1,0.1-0.1s0-0.3,0-0.4
	c0-0.3,0-0.6,0-0.9c0-0.1,0-0.1,0-0.2c0,0,0-0.1,0.1-0.1h0.1h2.3h0.1c0,0,0.1,0,0.1,0.1c0,0.1,0,0.2,0,0.4c0,0.8,0,1.5,0,2.3
	C33.8,139.1,33.8,140.2,33.8,141.3z M31.1,141.3c0-0.6-0.1-1.1-0.2-1.6c-0.1-0.3-0.2-0.6-0.4-0.9c-0.4-0.8-1.2-1.3-2.1-1.5
	c-0.4-0.1-0.9-0.1-1.3,0c-0.7,0.1-1.3,0.4-1.7,0.9c-0.4,0.4-0.6,0.9-0.8,1.4c-0.1,0.3-0.2,0.7-0.2,1c-0.1,0.8-0.1,1.6,0.1,2.5
	c0.1,0.3,0.2,0.6,0.4,0.9c0.4,0.7,1,1.2,1.7,1.4c0.5,0.1,1,0.2,1.5,0.1c0.7-0.1,1.4-0.4,1.9-1c0.4-0.4,0.7-1,0.9-1.6
	C31,142.4,31.1,141.8,31.1,141.3L31.1,141.3z"/>
<path id="path14" class="st0" d="M71,164.4c0,1-0.2,2-0.7,2.8c-0.3,0.7-0.8,1.3-1.4,1.9c-0.9,0.9-2.1,1.5-3.3,1.7
	c-0.9,0.2-1.8,0.2-2.7,0c-1.5-0.3-2.8-1-3.7-2.2c-2-2.2-2.2-5.6-0.5-8c1-1.4,2.4-2.4,4.1-2.7c0.6-0.1,1.1-0.2,1.7-0.2
	c2.2,0,4.2,1.2,5.4,3C70.7,161.9,71,163.2,71,164.4z M68.1,164.3c0-0.1,0-0.2,0-0.4c-0.1-0.8-0.4-1.6-0.9-2.3
	c-0.5-0.6-1.1-1-1.9-1.2c-0.3-0.1-0.7-0.1-1.1-0.1c-0.7,0-1.3,0.2-1.9,0.6c-0.8,0.5-1.3,1.3-1.6,2.1c-0.2,0.5-0.2,1-0.2,1.6
	c0,0.9,0.4,1.8,1,2.6c0.6,0.7,1.4,1.2,2.3,1.3c0.8,0.1,1.6,0,2.3-0.4c0.9-0.5,1.5-1.3,1.8-2.3C68,165.3,68.1,164.8,68.1,164.3
	L68.1,164.3z"/>
<path id="path16" class="st0" d="M69,134.8c1.2,0,2.3,0.3,3.4,0.8c1.4,0.7,2.5,2,3.1,3.4c1,2.6,0.2,5.6-2,7.4
	c-1.4,1.1-3.1,1.6-4.9,1.5c-2.8-0.2-5.1-2.1-5.9-4.8c-0.6-2.2,0-4.6,1.6-6.3c1-1,2.2-1.7,3.6-1.9C68.2,134.8,68.6,134.8,69,134.8z
	 M65.3,141.4c0,0.1,0,0.2,0,0.3c0,1.3,0.7,2.4,1.7,3.1c0.2,0.2,0.5,0.3,0.7,0.4c0.7,0.3,1.5,0.3,2.3,0.1c0.5-0.1,0.9-0.4,1.3-0.7
	c0.6-0.5,1.1-1.2,1.3-1.9c0.1-0.5,0.2-1,0.2-1.5c0-1.2-0.5-2.2-1.4-3c-0.4-0.4-0.9-0.6-1.4-0.8c-0.4-0.1-0.8-0.1-1.2-0.1
	c-0.7,0-1.3,0.2-1.9,0.6c-0.8,0.6-1.4,1.5-1.6,2.5C65.4,140.7,65.4,141.1,65.3,141.4L65.3,141.4z"/>
<path id="path18" class="st0" d="M29.6,162.2c0-1.1,0-2.2,0-3.3c0-0.1,0-0.3,0-0.4c0-0.1,0.1-0.2,0.2-0.2c0,0,0,0,0,0h2.4h0.1
	c0,0,0,0,0.1,0.1c0,0.1,0,0.2,0,0.3c0,1.9,0,3.9,0,5.8c0,0.8-0.1,1.5-0.2,2.3c-0.1,0.5-0.3,1-0.5,1.5c-0.3,0.7-0.8,1.3-1.4,1.7
	c-0.3,0.2-0.7,0.4-1.1,0.6c-0.5,0.2-1,0.3-1.6,0.4c-0.5,0.1-1,0.1-1.5,0.1c-0.8,0-1.5-0.1-2.2-0.3c-0.6-0.2-1.2-0.5-1.7-0.9
	c-0.3-0.3-0.6-0.6-0.8-1c-0.3-0.6-0.6-1.3-0.7-2c-0.1-0.6-0.2-1.2-0.2-1.8c0-0.4,0-0.9,0-1.3c0-1.6,0-3.3,0-4.9c0-0.5,0-0.5,0.5-0.5
	h2.1c0.1,0,0.2,0.1,0.2,0.1c0,0,0,0,0,0c0,0.1,0,0.3,0,0.4c0,2,0,4,0,5.9c0,0.2,0,0.5,0,0.7c0,0.4,0.1,0.8,0.2,1.2
	c0.1,0.3,0.2,0.6,0.4,0.8c0.3,0.4,0.7,0.7,1.2,0.8c0.3,0.1,0.7,0.1,1,0.2c0.5,0,0.9,0,1.4-0.1c0.3,0,0.5-0.1,0.8-0.2
	c0.5-0.2,0.9-0.6,1.1-1.1c0.2-0.4,0.2-0.8,0.3-1.2c0-0.3,0-0.6,0-0.9C29.6,164,29.6,163.1,29.6,162.2z"/>
<path id="path20" class="st0" d="M87.8,139.1c0-1.1,0-2.2,0-3.3c0-0.1,0-0.3,0-0.4c0-0.1,0.1-0.1,0.1-0.1h2.5c0.1,0,0.1,0.1,0.1,0.1
	c0,0.1,0,0.2,0,0.3c0,1.9,0,3.8,0,5.7c0,0.8-0.1,1.6-0.2,2.4c-0.1,0.4-0.2,0.9-0.4,1.3c-0.5,1.1-1.4,2-2.5,2.4
	c-0.5,0.2-1.1,0.3-1.7,0.4h-0.6c-0.9,0-1.8,0-2.6-0.2c-0.5-0.1-1-0.4-1.5-0.6c-0.5-0.3-0.9-0.8-1.2-1.3c-0.3-0.5-0.5-1-0.6-1.6
	c-0.2-0.7-0.3-1.5-0.3-2.2c0-0.2,0-0.4,0-0.6c0-1.9,0-3.8,0-5.6c0-0.1,0-0.2,0-0.3c0-0.1,0.1-0.1,0.2-0.1h2.3h0.2c0,0,0,0,0.1,0.1
	c0,0,0,0.1,0,0.1c0,0.1,0,0.3,0,0.4c0,2,0,4,0,6.1c0,0.4,0,0.8,0.1,1.2c0,0.3,0.1,0.5,0.2,0.8c0.2,0.6,0.7,1,1.3,1.2
	c0.4,0.1,0.8,0.2,1.2,0.2c0.4,0,0.8,0,1.2-0.1c0.3,0,0.6-0.1,0.9-0.3c0.4-0.2,0.8-0.6,0.9-1c0.2-0.4,0.3-0.8,0.3-1.2
	c0-0.3,0-0.6,0-0.9C87.8,140.9,87.8,139.9,87.8,139.1L87.8,139.1z"/>
<path id="path22" class="st0" d="M7.2,161.1L7.1,161c-0.3-0.6-0.9-0.9-1.6-1c-0.3-0.1-0.7-0.1-1,0c-0.2,0.1-0.5,0.2-0.7,0.3
	c-0.3,0.2-0.4,0.6-0.5,0.9c0,0.3,0.1,0.5,0.2,0.7c0.2,0.2,0.4,0.4,0.6,0.5c0.3,0.2,0.7,0.4,1.1,0.5l1,0.4c0.6,0.2,1.3,0.5,1.8,0.9
	c0.3,0.2,0.5,0.4,0.7,0.6c0.5,0.5,0.8,1.1,0.9,1.8c0.1,0.5,0,1.1-0.1,1.6c-0.2,0.8-0.8,1.5-1.5,1.9c-0.5,0.3-1,0.5-1.6,0.6
	c-1.1,0.3-2.3,0.3-3.4,0c-1.3-0.3-2.4-1.1-3-2.3v-0.1c0,0,0-0.1,0-0.2l0.2-0.1l1.9-1h0.1c0,0,0,0,0.1,0c0,0.1,0.1,0.2,0.1,0.2
	c0.3,0.7,0.9,1.2,1.6,1.4c0.2,0,0.3,0.1,0.5,0.1c0.3,0,0.7,0,1,0c0.3,0,0.6-0.1,0.9-0.3c0.5-0.3,0.7-0.8,0.7-1.4
	c0-0.3-0.1-0.5-0.3-0.7c-0.2-0.2-0.3-0.3-0.6-0.4c-0.3-0.2-0.7-0.4-1-0.5c-0.6-0.2-1.3-0.5-1.9-0.8c-0.4-0.2-0.7-0.4-1.1-0.6
	c-0.2-0.1-0.4-0.3-0.6-0.5c-0.6-0.5-0.9-1.3-0.9-2.1c0-0.3,0-0.6,0.1-0.9c0.2-0.7,0.6-1.4,1.1-1.8c0.5-0.4,1.1-0.7,1.7-0.9
	c1.1-0.3,2.2-0.3,3.3,0c0.5,0.1,0.9,0.3,1.3,0.6c0.4,0.3,0.7,0.6,0.9,1l0.1,0.2c0,0,0,0.1,0,0.2L8.9,160l-1.5,1L7.2,161.1z"/>
<path id="path24" class="st0" d="M46.8,135.6c0,0.1,0,0.1,0,0.2c0,0.9,0,1.7,0,2.6l0,0c0,0,0,0.1,0,0.1c0,0-0.1,0-0.1,0l-0.2-0.1
	c-0.5-0.4-1-0.7-1.6-0.9c-0.6-0.2-1.3-0.3-2-0.2c-0.2,0-0.4,0.1-0.7,0.1c-1,0.3-1.8,1-2.2,1.9c-0.2,0.4-0.3,0.8-0.3,1.1
	c-0.1,0.8-0.1,1.6,0.1,2.4c0.2,0.8,0.8,1.6,1.5,2c0.2,0.1,0.4,0.2,0.7,0.3c0.9,0.3,1.8,0.3,2.7,0.1c0.7-0.2,1.2-0.5,1.7-1l0.2-0.2
	c0,0,0.1,0,0.1,0c0,0,0,0.1,0,0.1c0,0.9,0,1.8,0,2.7c0,0.1-0.1,0.2-0.2,0.3c-0.4,0.2-0.9,0.4-1.4,0.5c-0.8,0.2-1.7,0.3-2.6,0.2
	c-0.5,0-1-0.1-1.5-0.3c-1.9-0.6-3.4-2-4-3.8c-0.2-0.6-0.3-1.1-0.4-1.7c-0.1-0.9,0-1.7,0.2-2.6c0.4-1.7,1.5-3.1,3-3.9
	c0.7-0.4,1.5-0.6,2.3-0.7c0.5-0.1,0.9-0.1,1.4-0.1c0.7,0,1.4,0.1,2.1,0.4C46.2,135.2,46.5,135.4,46.8,135.6z"/>
<path id="path26" class="st0" d="M14.5,14.9c0.1,0,0.1,0.1,0.2,0.1l2.9,3c0,0,0.1,0.1,0.1,0.1c-0.1,0.2-0.2,0.3-0.3,0.4
	c-1.1,1.1-2.1,2.3-3.1,3.5c-3,3.9-5.4,8.2-7,12.9c-0.6,1.7-1.1,3.4-1.5,5.1c-0.3,1.5-0.6,2.9-0.8,4.4c-0.1,0.9-0.2,1.7-0.2,2.6
	c-0.1,1.3-0.1,2.6-0.1,3.9c0,0.3,0,0.6,0,0.9c0,0.1-0.1,0.3-0.2,0.3H4.2c-1,0.1-2.1,0.1-3.1,0.2c-1.2,0-1,0.2-1.1-1
	c-0.1-1.3-0.1-2.5,0-3.8c0.1-1.8,0.3-3.6,0.6-5.3c0.5-3,1.2-6,2.2-8.8c1.3-3.8,3.1-7.4,5.3-10.7c1.8-2.7,3.8-5.2,6-7.5
	C14.2,15.1,14.3,15,14.5,14.9z"/>
<path id="path28" class="st0" d="M13.9,51.2h-1.6c-0.1,0-0.3,0-0.4,0c-0.1,0-0.1-0.1-0.2-0.1c0-0.2-0.1-0.4-0.1-0.5c0-0.7,0-1.4,0-2
	c0.1-1.7,0.2-3.4,0.5-5.2c1.9-10.8,8.3-20.2,17.7-26c0.1-0.1,0.2-0.1,0.3-0.2c0.1,0,0.1,0,0.2,0c0,0,0.1,0.1,0.1,0.1l2.3,3.3
	c0,0.1,0.1,0.1,0.1,0.2c0,0,0,0.1,0,0.1c-0.1,0.1-0.2,0.1-0.2,0.2c-0.6,0.4-1.2,0.8-1.8,1.1c-4.2,2.9-7.7,6.7-10.2,11.2
	c-2.8,5-4.3,10.6-4.3,16.4c0,0.3,0,0.7,0,1c0,0.2-0.1,0.3-0.3,0.3c0,0,0,0,0,0L13.9,51.2L13.9,51.2z"/>
<path id="path30" class="st0" d="M32.1,83.7c0.5-1.3,1.2-2.6,1.7-3.8c0-0.1,0.1-0.1,0.1-0.2l0.1-0.1c0.8,0.3,1.5,0.8,2.3,1.1
	s1.5,0.7,2.3,0.9s1.6,0.5,2.5,0.8s1.6,0.4,2.5,0.6s1.7,0.3,2.6,0.4s1.7,0.2,2.5,0.2s1.7,0,2.6,0c0.8,0,1.7-0.1,2.5-0.2
	c0.9-0.1,1.7-0.2,2.6-0.4s1.6-0.4,2.5-0.6c0.8-0.2,1.7-0.5,2.5-0.8c0.8-0.3,1.6-0.6,2.3-0.9c0.8-0.3,1.6-0.7,2.3-1.1
	c0.7-0.4,1.4-0.8,2.2-1.2c0.1,0.1,0.2,0.2,0.2,0.2l2.2,3.2c0.1,0.1,0.1,0.2,0.2,0.3c0,0.1,0,0.2-0.1,0.2l-0.4,0.3
	c-3.3,2.1-7,3.6-10.8,4.6c-1.6,0.4-3.3,0.7-4.9,0.9c-1.6,0.2-3.3,0.3-4.9,0.2c-1.7,0-3.4-0.1-5.1-0.4c-4.2-0.6-8.2-1.9-12-3.9
	C32.3,84,32.1,83.9,32.1,83.7z"/>
<path id="path32" class="st0" d="M71.9,32.7c0.1-0.1,0.2-0.2,0.3-0.3l2.9-2.5c0.1-0.1,0.2-0.1,0.3-0.2c0,0,0.1,0,0.1,0
	c0.1,0.1,0.2,0.1,0.2,0.2c2.8,3.6,4.8,7.7,5.9,12.1c0.3,1.4,0.6,2.8,0.8,4.2c0.2,2.1,0.3,4.1,0.1,6.2c-0.1,2-0.5,3.9-1,5.8
	c-0.5,2-1.3,3.9-2.2,5.8c-0.6,1.3-1.3,2.5-2.2,3.7C77,68,77,68.1,76.9,68.2c-0.1,0-0.2-0.1-0.3-0.1l-3.3-2.3h-0.1
	c-0.1-0.1-0.1-0.2-0.1-0.3c0.1-0.1,0.1-0.2,0.2-0.3c1.8-2.8,3.1-5.9,3.8-9.2c0.3-1.4,0.5-2.8,0.6-4.3c0-0.5,0.1-1,0.1-1.6
	c0-4.5-1-8.9-3.1-12.9c-0.7-1.3-1.5-2.6-2.4-3.8C72.2,33.2,72,33,71.9,32.7z"/>
<path id="path34" class="st0" d="M19.9,51.2l1.7-0.1c0.1,0,0.3,0,0.4,0c0.1,0,0.1,0.1,0.2,0.1c0,0.1,0,0.3,0,0.4
	c0.2,3.2,0.9,6.4,2.2,9.4c2.3,5.4,6.4,10,11.4,13c1.8,1.1,3.7,1.9,5.7,2.5l0.8,0.2c0.2,0.1,0.2,0.2,0.2,0.3l-0.9,2.6L41.1,81
	c0,0.1-0.2,0.2-0.3,0.2c0,0,0,0,0,0c-1.4-0.4-2.8-0.9-4.2-1.6c-6.7-3.1-12.2-8.3-15.6-14.9c-1.4-2.8-2.4-5.8-3-8.9
	c-0.2-1.3-0.4-2.7-0.5-4c0-0.5,0-0.6,0.6-0.6L19.9,51.2z"/>
<path id="path36" class="st0" d="M19.8,49.9H18c-0.1,0-0.2,0-0.3,0c-0.1,0-0.1-0.1-0.1-0.2c0-0.2,0-0.4,0-0.5c0-1.8,0.2-3.6,0.6-5.4
	c0.5-2.9,1.5-5.6,2.8-8.2c3.1-6.3,8.3-11.5,14.6-14.7c1.3-0.6,2.6-1.2,3.9-1.6l0.3-0.1c0.1,0,0.2,0,0.2,0.1c0,0.1,0.1,0.1,0.1,0.2
	l1.2,3.6c0,0.1,0,0.1,0.1,0.2c0,0.1,0,0.2-0.1,0.2l-0.4,0.2c-5.5,1.9-10.2,5.6-13.5,10.3c-1.5,2.2-2.7,4.5-3.5,7
	c-0.5,1.4-0.8,2.9-1.1,4.3c-0.2,1.2-0.3,2.5-0.4,3.8c0,0.2,0,0.3,0,0.5c0,0.1-0.1,0.2-0.2,0.3h-0.5L19.8,49.9L19.8,49.9z"/>
<path id="path38" class="st0" d="M97.9,142.6c0,1.4,0,2.9,0,4.3c0,0.1,0,0.3,0,0.4c0,0.1-0.1,0.1-0.1,0.1h-2.4c0,0-0.1,0-0.1,0
	c0,0-0.1-0.1-0.1-0.1c0,0,0-0.1,0-0.1c0-0.1,0-0.3,0-0.4c0-2.8,0-5.7,0-8.5c0-0.2,0-0.3,0-0.5c0-0.1-0.1-0.2-0.2-0.2c0,0,0,0,0,0
	h-1.9c-0.1,0-0.1-0.1-0.1-0.1c0,0,0-0.1,0-0.1c0-0.7,0-1.3,0-1.9c0-0.1,0-0.1,0-0.2c0,0,0,0,0.1-0.1h0.2H95c0.1,0,0.1-0.1,0.1-0.1
	c0-0.1,0-0.3,0-0.4c0-1.2,0-2.3,0-3.5c0-0.1,0-0.3,0-0.4s0.1-0.1,0.2-0.2h2.3c0.1,0,0.1,0,0.2,0c0,0,0.1,0,0.1,0.1
	c0,0.1,0,0.3,0,0.4c0,1.2,0,2.4,0,3.6c0,0.1,0,0.3,0,0.4c0,0.1,0.1,0.1,0.1,0.1h1.6c0.1,0,0.2,0,0.3,0c0,0,0.1,0.1,0.1,0.1
	c0,0,0,0.1,0,0.1c0,0.7,0,1.3,0,2c0,1,0,0.1,0,0.1c0,0.1-0.1,0.1-0.1,0.1h-1.6c-0.1,0-0.2,0-0.3,0c0,0-0.1,0-0.1,0.1
	c0,0.1,0,0.3,0,0.4c0,1.3,0,2.5,0,3.8L97.9,142.6z"/>
<path id="path40" class="st0" d="M16,165.6c0,1.5,0,2.9,0,4.4c0,0.1,0,0.3,0,0.4s0,0-0.1,0.1h-0.1h-2.3h-0.2c0,0-0.1,0-0.1-0.1
	c0,0,0-0.1,0-0.1c0-0.1,0-0.3,0-0.4c0-2.8,0-5.7,0-8.5c0-0.1,0-0.3,0-0.4s-0.1-0.2-0.2-0.2h-1.6c-0.1,0-0.2,0-0.3,0
	c0,0-0.1,0-0.1-0.1c0,0,0-0.1,0-0.1c0-0.7,0-1.3,0-2c0-1,0,0,0,0c0-0.1,0.1-0.2,0.1-0.2c0,0,0,0,0,0h1.6c0.1,0,0.2,0,0.3,0
	c0,0,0.1,0,0.1-0.1c0,0,0-0.1,0-0.1c0-0.1,0-0.2,0-0.4c0-1.2,0-2.3,0-3.5c0-0.1,0-0.3,0-0.4c0-0.1,0-0.1,0.1-0.1h2.5
	c0.1,0,0.1,0.1,0.1,0.1c0,0.1,0,0.1,0,0.2s0,0.3,0,0.4c0,1.1,0,2.3,0,3.4c0,0.1,0,0.3,0,0.4c0,0.1,0.1,0.1,0.1,0.1h1.6H18
	c0,0,0.1,0,0.1,0.1c0,0,0,0.1,0,0.1c0,0.7,0,1.3,0,2c0,0,0,0.1,0,0.1c0,0-0.1,0.1-0.1,0.1h-0.3h-1.6c-0.1,0-0.1,0.1-0.1,0.1
	c0,0,0,0.1,0,0.1s0,0.2,0,0.4C16,162.8,16,164.2,16,165.6z"/>
<path id="path42" class="st0" d="M26.2,50.9l-1.6,0h-0.5c-0.1,0-0.2-0.1-0.2-0.2c0-0.2,0-0.3,0-0.5c0-1,0-1.9,0.1-2.9
	c0.2-1.7,0.5-3.3,1-4.9c2.2-7.2,7.3-13,14.1-16.1c1.8-0.8,3.7-1.4,5.7-1.8c1.3-0.3,2.7-0.4,4-0.5c0.1,0,0.3,0,0.4,0
	c0.1,0,0.1,0.1,0.1,0.1c0,0.1,0,0.2,0,0.3c0,1.1,0,2.2,0.1,3.3c0,0.2,0,0.4,0,0.6c0,0.2-0.1,0.3-0.3,0.3H49
	c-3.4,0.1-6.6,1.1-9.5,2.8c-3.4,1.9-6.1,4.7-8,8.1c-1.8,3.2-2.7,6.8-2.7,10.4c0,0.8,0,0.7-0.7,0.8C28,50.8,26.2,50.9,26.2,50.9z"/>
<path id="path44" class="st0" d="M8.5,51.6l1.6-0.1c0.1,0,0.3,0,0.4,0c0.1,0,0.1,0.1,0.2,0.1c0,0.1,0.1,0.3,0.1,0.4
	c0.3,6.4,2.2,12.7,5.6,18.2c2.5,4.2,5.8,7.8,9.6,10.8l0.6,0.5c0.1,0.1,0.1,0.2,0,0.3l-0.2,0.4L24.5,85c-0.1,0.1-0.1,0.2-0.2,0.3
	c-0.1,0.1-0.2,0.1-0.3,0.1l-0.4-0.3C15.5,79.1,9.7,70.4,7.3,60.6c-0.6-2.5-1-5-1.2-7.6c-0.1-1.5-0.3-1.3,1.2-1.3L8.5,51.6L8.5,51.6z
	"/>
<path id="path46" class="st0" d="M86.4,84.1c-0.1,0-0.2-0.1-0.2-0.2l-2.8-2.9l0-0.1c-0.1-0.1-0.1-0.2,0-0.3l0.6-0.7
	c4.1-4.6,7.2-10,9.1-15.8c0.5-1.5,0.9-3.1,1.3-4.7c0.3-1.5,0.6-3.1,0.7-4.7c0.2-1.9,0.3-3.8,0.3-5.7c0-0.1,0-0.2,0-0.2
	c0-0.3,0.1-0.4,0.4-0.4l3.7-0.1c0.1,0,0.3,0,0.4,0c0.1,0,0.1,0.1,0.2,0.2c0,0.2,0,0.4,0,0.5c0,0.8,0,1.7,0,2.5c0,0.4,0,0.7-0.1,1.1
	c-0.1,1.5-0.2,3.1-0.5,4.6c-0.3,1.8-0.6,3.5-1.1,5.2c-0.7,2.8-1.7,5.5-2.9,8.1c-1.6,3.4-3.5,6.7-5.8,9.7c-0.9,1.2-1.9,2.4-2.9,3.5
	C86.6,83.9,86.5,84.1,86.4,84.1z"/>
<path id="path48" class="st0" d="M85.9,48.8H84h-0.2c-0.1,0-0.2-0.1-0.2-0.2c0-0.3-0.1-0.5-0.1-0.8c-0.5-7.3-3.3-14.3-8.2-19.9
	c-2.4-2.8-5.3-5.2-8.6-7.1c-0.1-0.1-0.3-0.2-0.4-0.2c-0.1,0-0.1-0.1-0.1-0.2c0-0.1,0.1-0.2,0.1-0.3l1.8-3.3c0.1-0.1,0.1-0.2,0.2-0.2
	c0,0,0.1,0,0.1,0c0.1,0.1,0.3,0.1,0.4,0.2c1.9,1.1,3.8,2.4,5.5,3.9c6.8,5.7,11.4,13.6,13.1,22.3c0.3,1.7,0.5,3.4,0.6,5.1
	c0,0.2,0,0.3,0,0.5c0,0.1-0.1,0.1-0.1,0.1c-0.2,0-0.4,0.1-0.5,0.1L85.9,48.8L85.9,48.8z"/>
<path id="path50" class="st0" d="M90,68.2c0,0.1,0,0.2-0.1,0.3c-0.4,0.8-0.8,1.6-1.2,2.4c-1.4,2.6-3.1,5.1-5,7.4
	c-2.7,3.2-5.8,6-9.2,8.3c-2.7,1.8-5.6,3.3-8.6,4.5c-1.2,0.5-2.5,0.9-3.8,1.3l-0.3,0.1c-0.1,0-0.2,0-0.3-0.1
	c-0.1-0.2-0.2-0.5-0.2-0.8l-0.8-3.1c0-0.1,0-0.2,0-0.3c0-0.1,0-0.1,0.1-0.2c0.2-0.1,0.3-0.1,0.5-0.2c4.7-1.4,9.1-3.6,13-6.6
	c5-3.9,9-8.9,11.6-14.7l0.2-0.4c0.1-0.1,0.2-0.2,0.3-0.1c0,0,0,0,0,0l0.3,0.2l3,1.7c0.1,0.1,0.3,0.2,0.4,0.3C90,68,90,68.1,90,68.2z
	"/>
<path id="path52" class="st0" d="M18.3,137.5c0,3.1,0,6.2,0,9.3c0,0.2,0,0.3,0,0.5c0,0.1-0.1,0.1-0.1,0.1c0,0,0,0,0,0h-2.3h-0.3
	c0,0,0,0-0.1-0.1c0,0,0-0.1,0-0.1c0-0.1,0-0.3,0-0.4c0-6.2,0-12.4,0-18.7c0-0.2,0-0.3,0-0.5c0-0.1,0.1-0.2,0.2-0.2h2.4
	c0.1,0,0.1,0.1,0.1,0.2c0,0.1,0,0.1,0,0.2s0,0.3,0,0.4C18.3,131.3,18.3,134.4,18.3,137.5z"/>
<path id="path54" class="st0" d="M25.3,19.4c-0.1,0.1-0.2,0.2-0.3,0.2c-1.1,0.9-2.2,1.9-3.2,3c-3,3.1-5.4,6.6-7.3,10.5
	c-1.1,2.4-2,4.8-2.6,7.4c-0.4,1.8-0.7,3.5-0.9,5.3c-0.1,1.1-0.2,2.2-0.2,3.3c0,0.2,0,0.4,0,0.5c0,0.1-0.1,0.2-0.2,0.2h-0.2H6.4
	c-0.1,0-0.1,0-0.2,0c0,0-0.1-0.1-0.1-0.1c0-0.2,0-0.3,0-0.5c0-1.5,0.1-3,0.3-4.5C6.6,42.8,7,40.9,7.5,39c1.8-6.7,5.1-13,9.7-18.2
	c1.4-1.6,2.9-3,4.5-4.4c0.1-0.1,0.2-0.2,0.3-0.2c0.1,0,0.2,0,0.2,0c0.1,0.1,0.2,0.1,0.2,0.2l2.6,2.6C25.2,19.1,25.3,19.2,25.3,19.4z
	"/>
<path id="path56" class="st0" d="M16.4,86.9c0-0.1,0.1-0.2,0.1-0.2l2.5-3.1c0,0,0.1-0.1,0.1-0.1c0.1,0,0.2,0,0.2,0L20,84
	c3.3,2.9,7,5.3,11,7.1c3.9,1.8,8,3,12.2,3.6c1.2,0.2,2.3,0.3,3.5,0.4s2.5,0.1,3.7,0.1c0.2,0,0.5,0,0.7,0c0.1,0,0.2,0.1,0.2,0.2
	c0,0.1,0,0.2,0,0.2c0,1.2,0.1,2.4,0.1,3.5c0,0.2,0,0.3,0,0.5c0,0.1-0.1,0.1-0.1,0.2c-0.1,0.1-0.2,0.1-0.3,0.1c-1.7,0-3.3,0-5-0.2
	l-1.9-0.2c-1.7-0.2-3.4-0.5-5.1-0.9c-2.8-0.6-5.6-1.5-8.3-2.6c-3.2-1.3-6.2-3-9.1-5C20,90,18.5,88.8,17,87.5
	c-0.2-0.1-0.3-0.3-0.5-0.4C16.5,87,16.5,87,16.4,86.9z"/>
<path id="path58" class="st0" d="M84.1,13.6c-0.1,0.1-0.1,0.2-0.2,0.2l-2.3,2.5c-0.2,0.2-0.4,0.4-0.7,0.5c-0.2,0-0.3-0.1-0.4-0.2
	c-1.1-1-2.2-1.9-3.3-2.8c-2.2-1.6-4.5-3.1-6.9-4.3c-2.1-1.1-4.3-2-6.6-2.7c-1.7-0.6-3.5-1-5.3-1.3C55.7,5,53,4.7,50.2,4.7h-0.5
	c-0.1,0-0.2-0.1-0.2-0.2c0-0.1,0-0.3,0-0.4c-0.1-1.2-0.1-2.5-0.2-3.7c0,0,0-0.1,0-0.1c0-0.1,0.1-0.2,0.2-0.2c0.1,0,0.3,0,0.4,0
	c0.9,0,1.8,0,2.7,0.1c1,0.1,2.1,0.1,3.1,0.2s2.1,0.3,3.2,0.5c2.6,0.5,5.1,1.1,7.6,2c4.6,1.6,8.9,3.8,12.8,6.6c1.5,1.1,3,2.3,4.4,3.6
	c0.2,0.2,0.3,0.3,0.5,0.5C84.1,13.5,84.1,13.5,84.1,13.6z"/>
<path id="path60" class="st0" d="M50.7,73.7c0-0.5,0-1,0-1.6c0-0.2,0-0.3,0-0.5c0-0.2,0.1-0.3,0.3-0.3c0,0,0,0,0,0l1.5-0.1
	c2.4-0.2,4.8-0.9,7-2c5.6-2.8,9.6-7.8,11.2-13.8c0.4-1.5,0.6-3.1,0.7-4.7c0-0.2,0-0.3,0-0.5c0-0.1,0.1-0.2,0.3-0.2h3.8
	c0.1,0,0.3,0,0.4,0c0.1,0,0.1,0.1,0.2,0.2c0,0.1,0,0.2,0,0.3c0,0.5,0,1-0.1,1.5c-0.4,5.9-2.8,11.4-6.8,15.8
	c-3.8,4.1-8.9,6.9-14.4,7.9c-1.1,0.2-2.1,0.3-3.2,0.4c-0.2,0-0.4,0-0.6,0c-0.1,0-0.2-0.1-0.2-0.2c0-0.1,0-0.2,0-0.3
	C50.7,74.9,50.7,74.3,50.7,73.7L50.7,73.7z"/>
<path id="path62" class="st0" d="M88.6,29.1c-0.1,0.1-0.3,0.3-0.4,0.3c-1.1,0.7-2.3,1.4-3.5,2c-0.2-0.1-0.3-0.3-0.4-0.5
	c-2.1-3.8-4.8-7.2-8.1-10.1c-5.1-4.6-11.3-7.8-17.9-9.2l-0.2-0.1c-0.1,0-0.2-0.1-0.1-0.2v-0.1l0.8-3.7c0-0.1,0.1-0.2,0.1-0.3
	C58.9,7,59,7,59.1,7c0.2,0,0.4,0.1,0.6,0.1c12.2,2.8,22.6,10.6,28.7,21.4C88.5,28.7,88.6,28.9,88.6,29.1z"/>
<path id="path64" class="st0" d="M36.3,49.7c0.1-1.9,0.5-3.7,1.2-5.4c1.3-2.9,3.7-5.3,6.6-6.7c1.9-0.9,4.1-1.4,6.2-1.3
	c6,0.2,11.2,4.2,12.9,9.9c0.2,0.7,0.4,1.4,0.4,2.2c0,0.1,0,0.2,0,0.3c0,0.1-0.1,0.1-0.1,0.2c0,0,0,0-0.1,0l-4.1,0.3
	c-0.1,0-0.1,0-0.2,0c-0.1,0-0.2,0-0.2-0.1s-0.1-0.3-0.1-0.5c-0.6-3.8-3.5-6.8-7.3-7.5c-1.9-0.4-3.9-0.1-5.6,0.8
	c-1.7,0.8-3,2.1-3.9,3.7c-0.7,1.2-1.1,2.6-1.1,4c0,0.1,0,0.2,0,0.3s-0.1,0.3-0.3,0.3h-0.4l-3.6,0.1c-0.1,0-0.2,0-0.2,0
	c-0.1,0-0.2-0.1-0.2-0.2S36.3,49.8,36.3,49.7z"/>
<path id="path66" class="st0" d="M47.1,49.9c-0.3,0.1-0.6,0.1-0.8,0l-2.5-0.1h-0.3c-1.1,0-1,0-0.9-1.1c0.2-1.1,0.6-2.2,1.3-3.1
	c1-1.5,2.6-2.5,4.3-2.9c4.1-1,8.2,1.5,9.2,5.6c0,0.1,0,0.1,0,0.2c0.5,1.9,0.1,4-1,5.6c-2.2,3.5-6.9,4.6-10.4,2.4
	c-0.3-0.2-0.6-0.4-0.8-0.6c-1.4-1.1-2.3-2.6-2.6-4.4c0-0.1,0-0.3,0-0.4c0-0.1,0.1-0.2,0.1-0.2c0.2,0,0.3-0.1,0.5-0.1l3.7-0.5
	c0.1,0,0.3,0.1,0.3,0.2c0,0.1,0,0.2,0.1,0.3c0.4,1.5,2,2.4,3.6,2c1.5-0.4,2.4-2,2-3.6c-0.4-1.5-2-2.4-3.6-2c-1,0.3-1.7,1-2,2
	C47.2,49.4,47.1,49.6,47.1,49.9z"/>
<path id="path68" class="st0" d="M51.7,164.4c0-1.8,0-3.7,0-5.5c0-0.1,0-0.3,0-0.4c0-0.1,0.1-0.1,0.1-0.1h2.3c0.1,0,0.1,0,0.2,0
	c0,0,0.1,0,0.1,0.1c0,0,0,0.1,0,0.1c0,0.1,0,0.3,0,0.4c0,3.7,0,7.3,0,11c0,0.7,0.1,0.6-0.6,0.6h-2c-0.1,0-0.2-0.1-0.2-0.1
	c0,0,0,0,0,0c0-0.1,0-0.3,0-0.4C51.7,168.1,51.7,166.2,51.7,164.4z"/>
<path id="path70" inkscape:connector-curvature="0" class="st0" d="M52.9,153.8c-1,0-1.7-0.8-1.7-1.7c0-1,0.8-1.7,1.7-1.7
	c0,0,0,0,0,0c1,0,1.7,0.8,1.7,1.7C54.7,153,53.9,153.8,52.9,153.8z"/>
<path class="st0" d="M8.2,179.9h0.6v0.9c0.4-0.7,1-1,1.7-1c0.4,0,0.7,0.1,1,0.3c0.3,0.2,0.5,0.5,0.6,0.9c0.2-0.4,0.5-0.7,0.8-0.9
	c0.3-0.2,0.7-0.3,1.1-0.3c0.4,0,0.8,0.2,1.1,0.5c0.3,0.3,0.5,1,0.5,1.9v2.7H15v-2.7c0-0.5,0-0.8-0.1-1c-0.1-0.2-0.2-0.4-0.4-0.5
	c-0.2-0.1-0.4-0.2-0.7-0.2c-0.3,0-0.6,0.1-0.9,0.3c-0.3,0.2-0.5,0.5-0.6,0.8c-0.1,0.3-0.2,0.8-0.2,1.4v2h-0.6v-2.6
	c0-0.5,0-0.9-0.1-1.1c-0.1-0.2-0.2-0.4-0.4-0.6c-0.2-0.2-0.4-0.2-0.7-0.2c-0.3,0-0.5,0.1-0.8,0.2c-0.2,0.2-0.4,0.4-0.6,0.7
	c-0.1,0.3-0.2,0.8-0.2,1.5v2.1H8.2V179.9z"/>
<path class="st0" d="M30.3,182.4c0-0.6-0.2-1-0.6-1.4c-0.4-0.4-0.8-0.6-1.4-0.6c-0.5,0-1,0.2-1.4,0.6c-0.4,0.4-0.6,0.9-0.6,1.4
	c0,0.6,0.2,1,0.6,1.4c0.4,0.4,0.8,0.6,1.4,0.6s1-0.2,1.4-0.6C30.1,183.4,30.3,183,30.3,182.4 M25.8,182.4c0-0.7,0.3-1.4,0.8-1.9
	c0.5-0.5,1.1-0.8,1.8-0.8c0.7,0,1.3,0.3,1.8,0.8c0.5,0.5,0.8,1.1,0.8,1.9c0,0.7-0.2,1.4-0.7,1.9c-0.5,0.5-1.1,0.8-1.9,0.8
	c-0.7,0-1.4-0.3-1.9-0.8C26,183.7,25.8,183.1,25.8,182.4"/>
<path class="st0" d="M43.6,180.4l-0.4,0.4c-0.3-0.3-0.7-0.5-1-0.5c-0.2,0-0.4,0.1-0.5,0.2c-0.1,0.1-0.2,0.3-0.2,0.5
	c0,0.2,0.1,0.4,0.2,0.5c0.2,0.1,0.4,0.3,0.8,0.5c0.4,0.2,0.7,0.4,0.9,0.6c0.2,0.2,0.3,0.5,0.3,0.8c0,0.4-0.1,0.8-0.4,1.1
	c-0.3,0.3-0.7,0.4-1.1,0.4c-0.3,0-0.6-0.1-0.8-0.2c-0.3-0.1-0.5-0.3-0.7-0.5l0.4-0.5c0.3,0.4,0.7,0.6,1,0.6c0.3,0,0.5-0.1,0.7-0.3
	c0.2-0.2,0.3-0.4,0.3-0.6c0-0.2-0.1-0.4-0.2-0.6c-0.2-0.1-0.4-0.3-0.8-0.5c-0.4-0.2-0.7-0.4-0.8-0.6c-0.2-0.2-0.3-0.5-0.3-0.9
	s0.1-0.7,0.4-0.9s0.6-0.4,1-0.4C42.7,179.7,43.2,180,43.6,180.4"/>
<path class="st0" d="M58.6,180.9l-0.5,0.3c-0.4-0.6-1-0.9-1.8-0.9c-0.6,0-1.1,0.2-1.5,0.6c-0.4,0.4-0.6,0.9-0.6,1.4
	c0,0.6,0.2,1.1,0.6,1.5c0.4,0.4,0.9,0.6,1.5,0.6c0.7,0,1.3-0.3,1.8-0.9l0.5,0.3c-0.3,0.4-0.6,0.6-1,0.8c-0.4,0.2-0.9,0.3-1.4,0.3
	c-0.8,0-1.4-0.3-1.9-0.8c-0.5-0.5-0.8-1.1-0.8-1.9c0-0.7,0.3-1.4,0.8-1.9c0.5-0.5,1.2-0.8,2-0.8c0.5,0,0.9,0.1,1.3,0.3
	C58.1,180.2,58.4,180.5,58.6,180.9"/>
<path class="st0" d="M73.1,182.4c0-0.6-0.2-1-0.6-1.4c-0.4-0.4-0.8-0.6-1.4-0.6c-0.5,0-1,0.2-1.4,0.6c-0.4,0.4-0.6,0.9-0.6,1.4
	c0,0.6,0.2,1,0.6,1.4c0.4,0.4,0.8,0.6,1.4,0.6c0.6,0,1-0.2,1.4-0.6C72.9,183.4,73.1,183,73.1,182.4 M68.5,182.4
	c0-0.7,0.3-1.4,0.8-1.9s1.1-0.8,1.8-0.8c0.7,0,1.3,0.3,1.8,0.8c0.5,0.5,0.8,1.1,0.8,1.9c0,0.7-0.2,1.4-0.7,1.9
	c-0.5,0.5-1.1,0.8-1.9,0.8c-0.7,0-1.4-0.3-1.9-0.8C68.8,183.7,68.5,183.1,68.5,182.4"/>
<polygon class="st0" points="90.3,179.9 88.7,183.7 87.1,179.9 87,179.9 85.4,183.7 83.9,179.9 83.2,179.9 85.3,185 85.4,185 
	87,181.3 88.6,185 88.8,185 90.9,179.9 "/>
</svg>
