<svg xmlns="http://www.w3.org/2000/svg" xmlns:xlink="http://www.w3.org/1999/xlink" width="40" height="40" viewBox="0 0 40 40"><defs><path id="a" d="M720.68 2071.24a.9.9 0 0 1 .32.71v11.11a.9.9 0 0 1-.5.81c-.31.17-.69.17-1 0a.9.9 0 0 1-.5-.81v-11.11c-.01-.48.38-.89.89-.94.29-.03.57.05.79.23zm-13.05 6.05l8.09 8.08c.37.37.37.98 0 1.35a.97.97 0 0 1-1.36 0l-8.08-8.09a.95.95 0 0 1-.22-1 .94.94 0 0 1 1.57-.34zm27.27.25c.18.36.11.8-.18 1.09l-8.08 8.09a.97.97 0 0 1-1.36 0 .96.96 0 0 1 0-1.35l8.08-8.08a.89.89 0 0 1 .57-.28c.4-.05.8.16.97.53zM712.06 2090c.34 0 .65.19.81.5.17.31.17.69 0 1a.91.91 0 0 1-.81.5h-11.09a.9.9 0 0 1-.82-.46c-.18-.3-.2-.68-.05-1a.94.94 0 0 1 .78-.54h11.18zm15.82 0h11.18c.34 0 .65.19.81.5.17.31.17.69 0 1a.91.91 0 0 1-.81.5h-11.09a.9.9 0 0 1-.82-.46c-.18-.3-.2-.68-.05-1a.94.94 0 0 1 .78-.54zm-11.96 6.58c.16.36.07.78-.21 1.06l-8.07 8.06a.94.94 0 0 1-.92.27.93.93 0 0 1-.69-.68.93.93 0 0 1 .26-.92l8.07-8.07a.94.94 0 0 1 1.56.28zm10.04-.58c.26 0 .5.11.68.3l8.07 8.07c.25.24.35.59.26.92a.93.93 0 0 1-.69.68.94.94 0 0 1-.92-.27l-8.07-8.07a.94.94 0 0 1-.22-1.04c.15-.36.5-.59.89-.59zm-5.28 2.24a.9.9 0 0 1 .32.71v11.11a.9.9 0 0 1-.5.81c-.31.17-.69.17-1 0a.9.9 0 0 1-.5-.81v-11.11c-.01-.48.38-.89.89-.94.29-.03.57.05.79.23z"/></defs><desc>Generated with Avocode.</desc><g transform="translate(-700 -2071)"><use fill="#dcdcdc" xlink:href="#a"/></g></svg>