<?xml version="1.0" encoding="UTF-8" standalone="no"?>
<svg
   xmlns:dc="http://purl.org/dc/elements/1.1/"
   xmlns:cc="http://creativecommons.org/ns#"
   xmlns:rdf="http://www.w3.org/1999/02/22-rdf-syntax-ns#"
   xmlns:svg="http://www.w3.org/2000/svg"
   xmlns="http://www.w3.org/2000/svg"
   xmlns:sodipodi="http://sodipodi.sourceforge.net/DTD/sodipodi-0.dtd"
   xmlns:inkscape="http://www.inkscape.org/namespaces/inkscape"
   id="Слой_1"
   data-name="Слой 1"
   viewBox="0 0 190 70"
   version="1.1"
   sodipodi:docname="logo 190x70.svg"
   inkscape:version="0.92.1 r15371">
  <metadata
     id="metadata77">
    <rdf:RDF>
      <cc:Work
         rdf:about="">
        <dc:format>image/svg+xml</dc:format>
        <dc:type
           rdf:resource="http://purl.org/dc/dcmitype/StillImage" />
      </cc:Work>
    </rdf:RDF>
  </metadata>
  <defs
     id="defs75" />
  <sodipodi:namedview
     pagecolor="#ffffff"
     bordercolor="#666666"
     borderopacity="1"
     objecttolerance="10"
     gridtolerance="10"
     guidetolerance="10"
     inkscape:pageopacity="0"
     inkscape:pageshadow="2"
     inkscape:window-width="640"
     inkscape:window-height="480"
     id="namedview73"
     showgrid="false"
     inkscape:zoom="1.4578947"
     inkscape:cx="95"
     inkscape:cy="35"
     inkscape:window-x="57"
     inkscape:window-y="34"
     inkscape:window-maximized="0"
     inkscape:current-layer="Слой_1" />
  <title
     id="title2">logo 190x70</title>
  <path
     d="M128.09,46.73q0,5.54,0,11.09c0,.19,0,.38,0,.58a.19.19,0,0,1-.14.14h-2.78a.68.68,0,0,1-.21,0,.18.18,0,0,1-.11-.1,1,1,0,0,1,0-.26c0-.33,0-.67,0-1a1.18,1.18,0,0,0,0-.26s-.07,0-.09,0a.38.38,0,0,0-.12.09l-.38.43A5.3,5.3,0,0,1,121,59.07a7.15,7.15,0,0,1-3.12-.25,5.36,5.36,0,0,1-2.23-1.33,6.71,6.71,0,0,1-1.76-3,11.47,11.47,0,0,1-.37-4.27,9.19,9.19,0,0,1,.55-2.45,7,7,0,0,1,1.55-2.41A5.67,5.67,0,0,1,119,43.68a7.07,7.07,0,0,1,2.09,0,5,5,0,0,1,2.54,1.17,4.54,4.54,0,0,1,.88,1.1c.05.09.08.19.18.24h0a.21.21,0,0,0,0-.09q0-.24,0-.47,0-5,0-9.93c0-.87-.09-.77.75-.77h2.1a1.51,1.51,0,0,1,.31,0,.19.19,0,0,1,.11.1.38.38,0,0,1,0,.15c0,.16,0,.32,0,.47Q128.09,41.21,128.09,46.73Zm-3.2,4.53a6.66,6.66,0,0,0-.12-1.42,4.8,4.8,0,0,0-.6-1.62A3.4,3.4,0,0,0,122,46.65a4.63,4.63,0,0,0-1.51-.11,3.55,3.55,0,0,0-2.93,1.78,4.46,4.46,0,0,0-.51,1.26A8.13,8.13,0,0,0,117,53a4.46,4.46,0,0,0,.52,1.43,3.32,3.32,0,0,0,2,1.61,4.51,4.51,0,0,0,2.49,0,3.21,3.21,0,0,0,1.32-.73,4.41,4.41,0,0,0,1.22-1.87A6.39,6.39,0,0,0,124.89,51.26Z"
     id="path4"
     style="fill:#ffffff" />
  <path
     d="M71.76,19.48q0-5.54,0-11.09c0-.19,0-.38,0-.58a.19.19,0,0,1,.14-.14l.21,0h2.52a1,1,0,0,1,.26,0,.2.2,0,0,1,.1.1A.39.39,0,0,1,75,8c0,.16,0,.32,0,.47q0,5,0,10c0,.17,0,.35,0,.52l0,0h0a1.3,1.3,0,0,0,.12-.17,5,5,0,0,1,.65-.89,4.65,4.65,0,0,1,2.23-1.32,6.78,6.78,0,0,1,2.71-.17,5.72,5.72,0,0,1,2.13.7,5.89,5.89,0,0,1,1.46,1.19,7.26,7.26,0,0,1,1.66,3.18,11.26,11.26,0,0,1,.25,3.7A10.25,10.25,0,0,1,86,27.3a7,7,0,0,1-1.36,2.53,5.56,5.56,0,0,1-2.94,1.83,7.06,7.06,0,0,1-3.23.08,5,5,0,0,1-2.52-1.34c-.26-.26-.5-.54-.75-.81l0,0s-.07,0-.07.06a1.07,1.07,0,0,0,0,.21c0,.35,0,.7,0,1.05a1.1,1.1,0,0,1,0,.26.2.2,0,0,1-.1.1.36.36,0,0,1-.15,0H71.92a.16.16,0,0,1-.14-.13c0-.16,0-.31,0-.47q0-1.34,0-2.68Q71.76,23.74,71.76,19.48ZM83,24.17a6.71,6.71,0,0,0-.12-1.52,4.73,4.73,0,0,0-.69-1.75A3.48,3.48,0,0,0,80,19.38a4.94,4.94,0,0,0-1.88,0,3.35,3.35,0,0,0-2.3,1.44,4.24,4.24,0,0,0-.62,1.33,7.42,7.42,0,0,0-.08,3.49,4.6,4.6,0,0,0,.66,1.59,3.78,3.78,0,0,0,1.53,1.4,4.16,4.16,0,0,0,3.27.14A3.25,3.25,0,0,0,82.39,27a4.92,4.92,0,0,0,.44-1.34A6.82,6.82,0,0,0,83,24.17Z"
     id="path6"
     style="fill:#ffffff" />
  <path
     d="M37.88,25.88l-.47-.19A9.86,9.86,0,0,0,34.58,25a9.43,9.43,0,0,0-1.31-.06A10.12,10.12,0,0,0,23.79,32a9.88,9.88,0,0,0-.44,3.42,10.09,10.09,0,0,0,4.32,7.87,9.87,9.87,0,0,0,3.64,1.58,10.39,10.39,0,0,0,2.77.21,10,10,0,0,0,3.5-.85,11.25,11.25,0,0,0,1.34-.72l.22-.14a.15.15,0,0,1,.18.05l.06.08,1.35,2.31a.23.23,0,0,1,0,.1.14.14,0,0,1,0,.1.79.79,0,0,1-.16.14,13.06,13.06,0,0,1-7.38,2.07,12.88,12.88,0,0,1-4.42-.84,13.29,13.29,0,0,1-8.37-10,13.25,13.25,0,0,1-.1-4.24A13.27,13.27,0,0,1,30.81,22a12.78,12.78,0,0,1,3-.27,13.38,13.38,0,0,1,3,.43A13,13,0,0,1,39,23l.18.11a.11.11,0,0,1,0,.09.82.82,0,0,1-.07.2L38,25.73A1,1,0,0,1,37.88,25.88Z"
     id="path8"
     style="fill:#ffffff" />
  <path
     d="M139.9,16.88l.32,0h3.26l.26,0s0,.06,0,.08a.42.42,0,0,1-.09.12L140,20.66l-2.27,2.19-.22.22c-.1.11-.11.17,0,.27l.27.32,6.39,7.19.23.28s0,.13,0,.13l-.21,0h-3.47a1,1,0,0,1-.21,0,.4.4,0,0,1-.19-.08c-.11-.11-.22-.23-.32-.35l-4.7-5.39-1.18-1.35a.76.76,0,0,0-.16-.13.1.1,0,0,0-.09,0,.76.76,0,0,0,0,.21q0,3.21,0,6.41c0,.72,0,.66-.65.66h-2.42c-.18,0-.21-.1-.21-.24s0-.14,0-.21,0-.25,0-.37q0-11,0-22c0-.19,0-.39,0-.58s.08-.24.27-.25h2.58a1.57,1.57,0,0,1,.31,0,.13.13,0,0,1,.1.11,1.49,1.49,0,0,1,0,.16c0,.14,0,.28,0,.42q0,6.76,0,13.51c0,.25,0,.49,0,.74,0,0,0,.06.05.08a.06.06,0,0,0,.09,0l.2-.17,2-2,3.44-3.4Z"
     id="path10"
     style="fill:#ffffff" />
  <path
     d="M111.72,24.09q0,3.26,0,6.52c0,.17,0,.35,0,.52a.16.16,0,0,1-.13.14h-2.78l-.21,0a.16.16,0,0,1-.12-.15c0-.1,0-.21,0-.31,0-.3,0-.6,0-.89a2.53,2.53,0,0,0,0-.26.06.06,0,0,0-.07-.06h0l-.21.23a6.07,6.07,0,0,1-.81.82,5.22,5.22,0,0,1-2.56,1.14,7.29,7.29,0,0,1-2.56-.07,5.67,5.67,0,0,1-3.64-2.38,7.36,7.36,0,0,1-1.14-2.63,12.14,12.14,0,0,1-.26-3.34,9.38,9.38,0,0,1,.36-2.22,7.2,7.2,0,0,1,1.63-2.91A5.67,5.67,0,0,1,102,16.52a6.91,6.91,0,0,1,2.35-.12,6,6,0,0,1,1.28.28,4.83,4.83,0,0,1,1.38.74,4.31,4.31,0,0,1,1.09,1.26l.1.18s0,.09.11.09.08-.06.08-.17,0-.32,0-.47c0-.35,0-.7,0-1.05a1.41,1.41,0,0,1,0-.26.12.12,0,0,1,.1-.11l.15,0h2.73l.15,0a.12.12,0,0,1,.1.11,3.88,3.88,0,0,1,0,.42q0,1.34,0,2.68Q111.72,22.1,111.72,24.09Zm-3.2-.08a7,7,0,0,0-.24-1.94,4.28,4.28,0,0,0-.42-1,3.43,3.43,0,0,0-2.5-1.73,5.07,5.07,0,0,0-1.57,0,3.44,3.44,0,0,0-2,1,4.16,4.16,0,0,0-1,1.61,6.33,6.33,0,0,0-.25,1.18,7.94,7.94,0,0,0,.16,2.92,4.19,4.19,0,0,0,.42,1.07,3.36,3.36,0,0,0,2,1.65,4.55,4.55,0,0,0,1.77.16,3.5,3.5,0,0,0,2.3-1.14A4.63,4.63,0,0,0,108.28,26,6.63,6.63,0,0,0,108.53,24Z"
     id="path12"
     style="fill:#ffffff" />
  <path
     d="M155.72,51.39a7.51,7.51,0,0,1-.77,3.36A7.3,7.3,0,0,1,153.28,57a8.13,8.13,0,0,1-3.92,2,8,8,0,0,1-3.18,0,7.86,7.86,0,0,1-4.43-2.55,7.62,7.62,0,0,1-.54-9.47A7.72,7.72,0,0,1,146,43.8a7.64,7.64,0,0,1,2-.19,7.9,7.9,0,0,1,6.43,3.53A7.2,7.2,0,0,1,155.72,51.39Zm-3.46-.1c0-.1,0-.28,0-.45a4.67,4.67,0,0,0-1.09-2.68,4.24,4.24,0,0,0-2.25-1.46,4.57,4.57,0,0,0-1.25-.14,4.08,4.08,0,0,0-2.23.7,4.74,4.74,0,0,0-1.89,2.51,5.25,5.25,0,0,0-.24,1.87,4.81,4.81,0,0,0,1.18,3,4.21,4.21,0,0,0,2.74,1.52,4.13,4.13,0,0,0,2.69-.51A4.7,4.7,0,0,0,152,53,5.47,5.47,0,0,0,152.26,51.29Z"
     id="path14"
     style="fill:#ffffff" />
  <path
     d="M153.39,16.35a8,8,0,0,1,4,1A7.85,7.85,0,0,1,161,21.38a7.6,7.6,0,0,1-2.39,8.7,8,8,0,0,1-5.78,1.76,7.94,7.94,0,0,1-6.93-5.66,7.59,7.59,0,0,1,1.89-7.43A7.92,7.92,0,0,1,152,16.49,6.05,6.05,0,0,1,153.39,16.35Zm-4.32,7.79c0,.1,0,.21,0,.31a4.78,4.78,0,0,0,2,3.71,3.48,3.48,0,0,0,.87.48,4.52,4.52,0,0,0,2.73.17,4,4,0,0,0,1.58-.8,4.76,4.76,0,0,0,1.58-2.3,5.46,5.46,0,0,0,.22-1.81,4.75,4.75,0,0,0-1.62-3.52,4,4,0,0,0-1.69-.93,4.65,4.65,0,0,0-1.4-.14,4,4,0,0,0-2.21.74,4.75,4.75,0,0,0-1.94,3A4.9,4.9,0,0,0,149.07,24.14Z"
     id="path16"
     style="fill:#ffffff" />
  <path
     d="M106.72,48.7q0-1.95,0-3.89c0-.16,0-.32,0-.47a.2.2,0,0,1,.19-.21h2.89l.1,0a.14.14,0,0,1,.07.08,2.59,2.59,0,0,1,0,.36c0,2.3,0,4.59,0,6.89a13.84,13.84,0,0,1-.26,2.72,8.07,8.07,0,0,1-.55,1.75,4.9,4.9,0,0,1-1.63,2,5.29,5.29,0,0,1-1.3.68,8.41,8.41,0,0,1-1.84.42,11.6,11.6,0,0,1-1.73.08,9.93,9.93,0,0,1-2.64-.41,5.32,5.32,0,0,1-2-1.11,4.7,4.7,0,0,1-.92-1.14,7.37,7.37,0,0,1-.83-2.31A11.72,11.72,0,0,1,96,52c0-.51,0-1,0-1.52q0-2.89,0-5.78c0-.64,0-.6.59-.6H99.1a.19.19,0,0,1,.21.19c0,.16,0,.32,0,.47q0,3.5,0,7,0,.42,0,.84a5.46,5.46,0,0,0,.21,1.45,3,3,0,0,0,.47,1,2.62,2.62,0,0,0,1.42.93,5.38,5.38,0,0,0,1.14.19,6.4,6.4,0,0,0,1.62-.09,3.92,3.92,0,0,0,.9-.28,2.42,2.42,0,0,0,1.28-1.33,4.44,4.44,0,0,0,.32-1.38c0-.37,0-.74,0-1.1C106.72,50.91,106.72,49.8,106.72,48.7Z"
     id="path18"
     style="fill:#ffffff" />
  <path
     d="M175.64,21.43q0-1.94,0-3.89c0-.17,0-.35,0-.52a.16.16,0,0,1,.14-.13h2.94a.18.18,0,0,1,.17.17c0,.1,0,.21,0,.31,0,2.26,0,4.52,0,6.78a13.61,13.61,0,0,1-.29,2.87,9.06,9.06,0,0,1-.48,1.55,4.94,4.94,0,0,1-3,2.83,7.48,7.48,0,0,1-2,.43l-.73.05a11,11,0,0,1-3.13-.3,5.81,5.81,0,0,1-1.78-.77A4.65,4.65,0,0,1,166,29.26a6.69,6.69,0,0,1-.74-1.85,12.4,12.4,0,0,1-.35-2.65c0-.23,0-.46,0-.68q0-3.34,0-6.68c0-.12,0-.24,0-.37a.17.17,0,0,1,.17-.16h2.73l.26,0a.12.12,0,0,1,.07.07.52.52,0,0,1,0,.16c0,.18,0,.35,0,.53q0,3.6,0,7.2a7.89,7.89,0,0,0,.1,1.47,4.53,4.53,0,0,0,.26.91,2.48,2.48,0,0,0,1.56,1.46,5.44,5.44,0,0,0,1.44.26,6.9,6.9,0,0,0,1.47-.08,3.44,3.44,0,0,0,1-.34,2.38,2.38,0,0,0,1.11-1.15,4.23,4.23,0,0,0,.37-1.42c0-.35.05-.7.05-1,0-1.16,0-2.31,0-3.47Z"
     id="path20"
     style="fill:#ffffff" />
  <path
     d="M80.3,47.48l-.14-.2a2.45,2.45,0,0,0-1.87-1.21,3.27,3.27,0,0,0-1.2.05,1.89,1.89,0,0,0-.8.39,1.45,1.45,0,0,0-.55,1.09,1.18,1.18,0,0,0,.27.83,2.84,2.84,0,0,0,.76.64A7.67,7.67,0,0,0,78,49.7l1.13.42a11.84,11.84,0,0,1,2.17,1,5.16,5.16,0,0,1,.86.69,3.44,3.44,0,0,1,1,2.14,4.88,4.88,0,0,1-.15,1.93,4,4,0,0,1-1.77,2.27,5.56,5.56,0,0,1-1.84.74,9.35,9.35,0,0,1-4.07,0,5.22,5.22,0,0,1-3.59-2.75l0-.1a.17.17,0,0,1,0-.19l.18-.11,2.22-1.21a.21.21,0,0,1,.1,0,.12.12,0,0,1,.09,0c0,.09.09.19.13.29a2.77,2.77,0,0,0,1.92,1.65,4,4,0,0,0,.57.11,5.37,5.37,0,0,0,1.21,0,2.34,2.34,0,0,0,1-.36,1.69,1.69,0,0,0,.8-1.66,1.33,1.33,0,0,0-.37-.8A3,3,0,0,0,79,53.3a6.55,6.55,0,0,0-1.23-.58,22.11,22.11,0,0,1-2.23-.93,10.79,10.79,0,0,1-1.28-.73,5.45,5.45,0,0,1-.74-.59A3.32,3.32,0,0,1,72.47,48a4.39,4.39,0,0,1,.08-1,3.83,3.83,0,0,1,1.34-2.14,5,5,0,0,1,2-1,7.82,7.82,0,0,1,3.9,0,4.78,4.78,0,0,1,1.53.68,3.55,3.55,0,0,1,1.08,1.13l.1.19a.18.18,0,0,1,0,.19l-.21.16-1.78,1.22Z"
     id="path22"
     style="fill:#ffffff" />
  <path
     d="M127.07,17.25a2.07,2.07,0,0,1,0,.25q0,1.55,0,3.1a.14.14,0,0,1,0,.05s0,.07,0,.08a.11.11,0,0,1-.1,0l-.2-.17a5,5,0,0,0-1.85-1.07,5.32,5.32,0,0,0-2.38-.23,5.6,5.6,0,0,0-.77.14,4.07,4.07,0,0,0-2.61,2.27,4.52,4.52,0,0,0-.39,1.36,6.67,6.67,0,0,0,.17,2.81,4,4,0,0,0,1.82,2.42,3.64,3.64,0,0,0,.81.37,5.79,5.79,0,0,0,3.16.08,4.27,4.27,0,0,0,2-1.17,3.21,3.21,0,0,1,.27-.24s.07,0,.08,0a.19.19,0,0,1,0,.1c0,1.07,0,2.14,0,3.21a.34.34,0,0,1-.21.33,7.09,7.09,0,0,1-1.61.63,9.25,9.25,0,0,1-3,.27,8.88,8.88,0,0,1-1.81-.32A7.19,7.19,0,0,1,115.73,27a8.82,8.82,0,0,1-.42-2.05,9.12,9.12,0,0,1,.21-3,7,7,0,0,1,3.59-4.63,7.66,7.66,0,0,1,2.74-.86,10.85,10.85,0,0,1,1.68-.09,8.27,8.27,0,0,1,2.48.41A5.21,5.21,0,0,1,127.07,17.25Z"
     id="path24"
     style="fill:#ffffff" />
  <path
     d="M9.71,11.53a.7.7,0,0,1,.13.08l2,2a.32.32,0,0,1,0,.09.66.66,0,0,1-.21.29,29.64,29.64,0,0,0-2.07,2.38A30.38,30.38,0,0,0,4.85,25a30,30,0,0,0-1,3.43,29.07,29.07,0,0,0-.5,2.95c-.07.57-.11,1.15-.15,1.73a26.09,26.09,0,0,0-.06,2.62c0,.21,0,.42,0,.63a.19.19,0,0,1-.16.18l-.16,0-2.1.11c-.81,0-.68.12-.73-.67a24.65,24.65,0,0,1,0-2.52,30.73,30.73,0,0,1,.35-3.6,32.84,32.84,0,0,1,1.48-5.9,33.35,33.35,0,0,1,3.54-7.19,33.93,33.93,0,0,1,4-5A.61.61,0,0,1,9.71,11.53Z"
     id="path26"
     style="fill:#ffffff" />
  <path
     d="M9.32,35.8l-1.1,0a1.14,1.14,0,0,1-.26,0,.16.16,0,0,1-.11-.1,1.77,1.77,0,0,1,0-.36c0-.46,0-.91,0-1.37a24.12,24.12,0,0,1,.36-3.45A25.74,25.74,0,0,1,20,13.16a1.26,1.26,0,0,1,.23-.13.23.23,0,0,1,.14,0,.21.21,0,0,1,.07.07L22,15.33a.41.41,0,0,1,.07.14.12.12,0,0,1,0,.1,1,1,0,0,1-.16.13c-.4.26-.8.5-1.19.77a22.5,22.5,0,0,0-6.83,7.46,22.29,22.29,0,0,0-2.9,11c0,.23,0,.46,0,.68a.19.19,0,0,1-.2.2l-1.42.06Z"
     id="path28"
     style="fill:#ffffff" />
  <path
     d="M21.46,57.6c.36-.86.77-1.71,1.15-2.57a.62.62,0,0,1,.09-.13l.06,0c.52.22,1,.52,1.55.73s1,.43,1.56.62,1.1.36,1.65.52,1.09.27,1.64.38,1.14.2,1.71.26,1.12.1,1.68.12,1.16,0,1.73,0A16.51,16.51,0,0,0,36,57.38c.57-.08,1.15-.14,1.72-.25s1.09-.24,1.64-.38A15.44,15.44,0,0,0,41,56.24c.53-.19,1-.41,1.56-.62a15.66,15.66,0,0,0,1.56-.76c.49-.27,1-.55,1.47-.83a1.35,1.35,0,0,1,.15.16l1.45,2.13.11.18a.13.13,0,0,1,0,.14l-.26.18a25.46,25.46,0,0,1-7.23,3.07,26.59,26.59,0,0,1-3.3.61,27.16,27.16,0,0,1-3.31.16,23.59,23.59,0,0,1-3.4-.26,25.43,25.43,0,0,1-8-2.58A.46.46,0,0,1,21.46,57.6Z"
     id="path30"
     style="fill:#ffffff" />
  <path
     d="M48.15,23.45l.18-.18,1.92-1.63a.83.83,0,0,1,.17-.11.11.11,0,0,1,.1,0,.93.93,0,0,1,.15.15,21.61,21.61,0,0,1,3.92,8.07,22.14,22.14,0,0,1,.51,2.84,22.44,22.44,0,0,1,.07,4.14,20.82,20.82,0,0,1-.66,3.88A22,22,0,0,1,53,44.5,20.32,20.32,0,0,1,51.61,47c0,.07-.11.13-.17.21a1.33,1.33,0,0,1-.2-.09l-2.19-1.55,0,0a.15.15,0,0,1,0-.19l.13-.23A18.36,18.36,0,0,0,51.67,39,16.25,16.25,0,0,0,52,36.09c0-.35,0-.7,0-1.05A18.55,18.55,0,0,0,50,26.44a19.24,19.24,0,0,0-1.58-2.54A1.05,1.05,0,0,1,48.15,23.45Z"
     id="path32"
     style="fill:#ffffff" />
  <path
     d="M13.34,35.8l1.13-.05a1.08,1.08,0,0,1,.26,0,.17.17,0,0,1,.11.09,1.1,1.1,0,0,1,0,.26,18.2,18.2,0,0,0,1.5,6.3A18.67,18.67,0,0,0,24,51.05a17.76,17.76,0,0,0,3.78,1.69l.5.16c.13,0,.17.12.13.24l-.6,1.74-.32.89a.16.16,0,0,1-.21.1,20.12,20.12,0,0,1-2.8-1,21.85,21.85,0,0,1-10.42-10,21.45,21.45,0,0,1-2-6,22.32,22.32,0,0,1-.31-2.66c0-.35,0-.39.37-.41Z"
     id="path34"
     style="fill:#ffffff" />
  <path
     d="M13.25,34.94H12a.61.61,0,0,1-.21,0,.17.17,0,0,1-.1-.11,2.28,2.28,0,0,1,0-.36,19.63,19.63,0,0,1,.38-3.6A21.32,21.32,0,0,1,14,25.33a21.87,21.87,0,0,1,9.78-9.8,19.87,19.87,0,0,1,2.61-1.1l.2-.06a.12.12,0,0,1,.13.06.55.55,0,0,1,.07.14l.8,2.45s0,.1,0,.15a.16.16,0,0,1-.09.17l-.29.11a18.61,18.61,0,0,0-9,6.91A18.48,18.48,0,0,0,15.82,29a18.12,18.12,0,0,0-.72,2.9,18.55,18.55,0,0,0-.24,2.51c0,.1,0,.21,0,.31a.19.19,0,0,1-.16.18H13.25Z"
     id="path36"
     style="fill:#ffffff" />
  <path
     d="M187.48,25.53q0,2.55,0,5.1c0,.17,0,.35,0,.52a.16.16,0,0,1-.14.13h-2.84a.37.37,0,0,1-.15,0,.23.23,0,0,1-.1-.11.4.4,0,0,1,0-.15c0-.16,0-.32,0-.47q0-5,0-10c0-.19,0-.39,0-.58a.19.19,0,0,0-.21-.19h-2.15a.16.16,0,0,1-.14-.13,1.42,1.42,0,0,1,0-.16q0-1.13,0-2.26a.82.82,0,0,1,0-.21.11.11,0,0,1,.07-.07l.26,0h2a.18.18,0,0,0,.16-.18q0-.24,0-.47,0-2.08,0-4.15c0-.16,0-.32,0-.47s.08-.18.2-.19h2.68a1,1,0,0,1,.26,0,.16.16,0,0,1,.1.1,4.39,4.39,0,0,1,0,.47q0,2.13,0,4.26c0,.16,0,.31,0,.47a.16.16,0,0,0,.14.14l.37,0h1.58a1.55,1.55,0,0,1,.31,0s.08.07.1.11a.42.42,0,0,1,0,.15q0,1.16,0,2.31s0,.07,0,.1a.16.16,0,0,1-.13.14h-1.94a1.62,1.62,0,0,0-.31,0,.15.15,0,0,0-.1.1,4.18,4.18,0,0,0,0,.47q0,2.26,0,4.52Z"
     id="path38"
     style="fill:#ffffff" />
  <path
     d="M90.71,52.76q0,2.57,0,5.15c0,.17,0,.35,0,.52s0,.06-.07.08l-.1,0H87.83l-.26,0a.14.14,0,0,1-.11-.1.44.44,0,0,1,0-.15c0-.16,0-.32,0-.47q0-5,0-10c0-.18,0-.35,0-.53s-.06-.26-.24-.26H85.35A1.71,1.71,0,0,1,85,47a.19.19,0,0,1-.11-.1.36.36,0,0,1,0-.15q0-1.16,0-2.31s0,0,0-.05a.19.19,0,0,1,.19-.21H87a1.72,1.72,0,0,0,.31,0,.19.19,0,0,0,.11-.1.38.38,0,0,0,0-.15c0-.14,0-.28,0-.42q0-2.08,0-4.15c0-.16,0-.31,0-.47a.16.16,0,0,1,.13-.14l.21,0h2.57l.21,0a.17.17,0,0,1,.13.14c0,.07,0,.14,0,.21s0,.32,0,.47q0,2,0,4c0,.16,0,.31,0,.47a.18.18,0,0,0,.17.16h1.89a1.76,1.76,0,0,1,.31,0,.19.19,0,0,1,.11.1.34.34,0,0,1,0,.15q0,1.16,0,2.31a.36.36,0,0,1,0,.15.19.19,0,0,1-.11.1,1.75,1.75,0,0,1-.31,0H90.9a.18.18,0,0,0-.18.16c0,.05,0,.1,0,.16s0,.28,0,.42Q90.71,50.24,90.71,52.76Z"
     id="path40"
     style="fill:#ffffff" />
  <path
     d="M17.56,35.59l-1.05,0H16.2a.16.16,0,0,1-.13-.14c0-.1,0-.21,0-.31,0-.65,0-1.29.09-1.94a17,17,0,0,1,.66-3.29,17.5,17.5,0,0,1,9.49-10.8,16.58,16.58,0,0,1,3.79-1.21,16.12,16.12,0,0,1,2.66-.31l.26,0a.11.11,0,0,1,.07.07.86.86,0,0,1,0,.21c0,.74,0,1.47,0,2.21a3.12,3.12,0,0,1,0,.42.22.22,0,0,1-.2.2l-.21,0a13.85,13.85,0,0,0-6.39,1.88A14.15,14.15,0,0,0,21,28.07,14.11,14.11,0,0,0,19.19,35c0,.51,0,.5-.48.52l-1.15.06Z"
     id="path42"
     style="fill:#ffffff" />
  <path
     d="M5.69,36.08l1.1,0h.26a.13.13,0,0,1,.11.1,1.06,1.06,0,0,1,0,.26,26.05,26.05,0,0,0,3.73,12.18,26.23,26.23,0,0,0,6.42,7.22l.41.33a.16.16,0,0,1,0,.19l-.17.27-1.24,1.89-.15.21a.15.15,0,0,1-.19,0l-.26-.18A29.45,29.45,0,0,1,4.89,42.09,28.94,28.94,0,0,1,4.09,37c-.06-1-.17-.87.81-.9l.79,0Z"
     id="path44"
     style="fill:#ffffff" />
  <path
     d="M57.82,57.84a1.1,1.1,0,0,1-.16-.11l-1.88-1.92,0,0a.16.16,0,0,1,0-.19l.41-.48a29.92,29.92,0,0,0,6.1-10.58,29,29,0,0,0,.86-3.14,30.64,30.64,0,0,0,.49-3.11,31.92,31.92,0,0,0,.18-3.83q0-.08,0-.16c0-.23,0-.27.28-.28l2.47-.09.26,0a.12.12,0,0,1,.1.11,2.11,2.11,0,0,1,0,.37q0,.84,0,1.68c0,.25,0,.49,0,.74a30.16,30.16,0,0,1-.31,3.08,32.49,32.49,0,0,1-.71,3.5,33,33,0,0,1-1.93,5.44A33.46,33.46,0,0,1,60,55.32c-.62.81-1.28,1.58-2,2.33A.44.44,0,0,1,57.82,57.84Z"
     id="path46"
     style="fill:#ffffff" />
  <path
     d="M57.48,34.2l-1.26,0h-.1a.18.18,0,0,1-.14-.14c0-.17,0-.35,0-.52a22.43,22.43,0,0,0-5.46-13.32,22.44,22.44,0,0,0-5.73-4.73l-.27-.17a.12.12,0,0,1,0-.14,1.73,1.73,0,0,1,.09-.19l1.22-2.21a.78.78,0,0,1,.13-.16.11.11,0,0,1,.09,0l.28.14a25.88,25.88,0,0,1,3.7,2.59,25.61,25.61,0,0,1,8.75,14.93,23,23,0,0,1,.4,3.44,2,2,0,0,1,0,.31.11.11,0,0,1-.07.07l-.36,0-1.15,0Z"
     id="path48"
     style="fill:#ffffff" />
  <path
     d="M60.25,47.16a1,1,0,0,1-.05.19c-.26.53-.52,1.07-.8,1.6A29,29,0,0,1,56,53.89a29.49,29.49,0,0,1-6.15,5.54,29,29,0,0,1-5.76,3c-.83.32-1.68.61-2.54.85l-.2.05a.17.17,0,0,1-.17-.09c-.05-.17-.1-.33-.15-.5l-.57-2.08a.61.61,0,0,1,0-.21.17.17,0,0,1,.08-.13,2.7,2.7,0,0,1,.35-.12,26,26,0,0,0,8.69-4.44A26.42,26.42,0,0,0,57.38,46l.14-.28a.16.16,0,0,1,.23-.06l.19.1,2,1.15.26.18S60.22,47.12,60.25,47.16Z"
     id="path50"
     style="fill:#ffffff" />
  <path
     d="M93.37,19.51q0,5.52,0,11c0,.19,0,.38,0,.58a.17.17,0,0,1-.17.16H90.51l-.31,0a.12.12,0,0,1-.07-.07.51.51,0,0,1,0-.15c0-.18,0-.35,0-.53q0-11,0-22.06,0-.29,0-.58a.2.2,0,0,1,.2-.19H93.2a.19.19,0,0,1,.16.17c0,.07,0,.14,0,.21s0,.32,0,.47Q93.37,14,93.37,19.51Z"
     id="path52"
     style="fill:#ffffff" />
  <path
     d="M16.92,14.53l-.17.17a27,27,0,0,0-2.16,2,26.28,26.28,0,0,0-4.87,7,26,26,0,0,0-1.77,4.94,26.28,26.28,0,0,0-.63,3.57c-.08.73-.11,1.47-.14,2.2,0,.12,0,.24,0,.37a.16.16,0,0,1-.14.13H4.27a.4.4,0,0,1-.15,0,.12.12,0,0,1-.07-.07,1.85,1.85,0,0,1,0-.31c0-1,.09-2,.21-3A29.8,29.8,0,0,1,5,27.61a29.43,29.43,0,0,1,6.5-12.16,29.55,29.55,0,0,1,3-2.93l.21-.15a.13.13,0,0,1,.15,0,1.07,1.07,0,0,1,.16.13l1.78,1.78A.38.38,0,0,1,16.92,14.53Z"
     id="path54"
     style="fill:#ffffff" />
  <path
     d="M11,59.72a1.2,1.2,0,0,1,.1-.17l1.69-2.08.08-.07a.14.14,0,0,1,.15,0l.4.34a30.31,30.31,0,0,0,7.32,4.78A30,30,0,0,0,28.91,65c.78.11,1.56.21,2.35.26s1.64.09,2.47.08l.47,0a.19.19,0,0,1,.14.14c0,.05,0,.1,0,.16q0,1.18.07,2.36a1.72,1.72,0,0,1,0,.31.17.17,0,0,1-.1.11.58.58,0,0,1-.2,0,29,29,0,0,1-3.31-.1l-1.25-.12a29.4,29.4,0,0,1-3.42-.57,32.87,32.87,0,0,1-5.55-1.76,33.28,33.28,0,0,1-6.07-3.32,34.39,34.39,0,0,1-3.15-2.45l-.31-.29A.48.48,0,0,1,11,59.72Z"
     id="path56"
     style="fill:#ffffff" />
  <path
     d="M56.29,10.63a1.49,1.49,0,0,1-.12.16l-1.55,1.65a1.36,1.36,0,0,1-.44.35.46.46,0,0,1-.27-.16,28.12,28.12,0,0,0-2.22-1.85,30.05,30.05,0,0,0-4.63-2.88,30.42,30.42,0,0,0-4.42-1.8,29.46,29.46,0,0,0-3.56-.9,30.88,30.88,0,0,0-5.48-.52h-.37a.17.17,0,0,1-.17-.17c0-.09,0-.17,0-.26Q33,3,33,1.78a.2.2,0,0,1,0-.1s.06-.1.1-.11a1,1,0,0,1,.26,0c.6,0,1.19,0,1.79,0s1.4.08,2.09.16,1.42.18,2.13.31a32.68,32.68,0,0,1,5.08,1.32A33.24,33.24,0,0,1,53,7.82a34.33,34.33,0,0,1,2.94,2.37l.34.33A.49.49,0,0,1,56.29,10.63Z"
     id="path58"
     style="fill:#ffffff" />
  <path
     d="M33.92,50.84q0-.53,0-1.05c0-.11,0-.21,0-.32a.19.19,0,0,1,.19-.21l1-.09a13.91,13.91,0,0,0,4.66-1.36,14.28,14.28,0,0,0,7.51-9.2,13.22,13.22,0,0,0,.45-3.17c0-.1,0-.21,0-.31a.19.19,0,0,1,.17-.16H50.5a1,1,0,0,1,.26,0,.17.17,0,0,1,.1.1.63.63,0,0,1,0,.21c0,.33,0,.67,0,1a17.31,17.31,0,0,1-4.6,10.54,17.35,17.35,0,0,1-9.64,5.3c-.71.13-1.42.2-2.14.27a3.8,3.8,0,0,1-.42,0,.17.17,0,0,1-.13-.14c0-.07,0-.14,0-.21,0-.4,0-.81,0-1.21Z"
     id="path60"
     style="fill:#ffffff" />
  <path
     d="M59.32,21a.67.67,0,0,1-.28.23,20.39,20.39,0,0,1-2.31,1.33c-.14-.07-.18-.21-.24-.33a26.31,26.31,0,0,0-5.41-6.79,26.17,26.17,0,0,0-12-6.17l-.15,0a.16.16,0,0,1-.1-.17l0-.1.5-2.47a1.94,1.94,0,0,1,.06-.2.16.16,0,0,1,.16-.11l.41.07A29.55,29.55,0,0,1,59.16,20.65.77.77,0,0,1,59.32,21Z"
     id="path62"
     style="fill:#ffffff" />
  <path
     d="M24.28,34.8a9.34,9.34,0,0,1,.83-3.6,9.13,9.13,0,0,1,4.4-4.48,9.34,9.34,0,0,1,4.17-.9,9.21,9.21,0,0,1,8.6,6.62,7,7,0,0,1,.29,1.44.77.77,0,0,1,0,.21.33.33,0,0,1-.08.12h0l-2.72.23h-.1s-.1,0-.11-.09-.05-.2-.07-.31a6,6,0,0,0-4.89-5,6,6,0,0,0-3.73.52,5.89,5.89,0,0,0-2.62,2.49,6,6,0,0,0-.75,2.71c0,.07,0,.14,0,.21s-.06.2-.18.21l-.26,0-2.42.08a.35.35,0,0,1-.15,0s-.1-.06-.1-.1S24.28,34.9,24.28,34.8Z"
     id="path64"
     style="fill:#ffffff" />
  <path
     d="M31.51,34.91a1.52,1.52,0,0,1-.56,0l-1.68-.08h-.21c-.75,0-.68,0-.58-.74a4.56,4.56,0,0,1,.87-2.06,5,5,0,0,1,2.9-2,5.07,5.07,0,0,1,6.16,3.83,4.83,4.83,0,0,1-.66,3.78,5.05,5.05,0,0,1-7.51,1.2A5,5,0,0,1,28.49,36a1.59,1.59,0,0,1,0-.26.12.12,0,0,1,.09-.11l.31-.06,2.5-.33a.18.18,0,0,1,.19.14l.05.2a1.93,1.93,0,1,0,0-1.08C31.58,34.62,31.55,34.75,31.51,34.91Z"
     id="path66"
     style="fill:#ffffff" />
  <path
     d="M132.86,51.32q0-3.26,0-6.51c0-.17,0-.35,0-.52a.16.16,0,0,1,.13-.14l.21,0h2.57a.72.72,0,0,1,.21,0,.21.21,0,0,1,.11.1.36.36,0,0,1,0,.15c0,.16,0,.32,0,.47q0,6.49,0,13c0,.79.08.71-.69.71h-2.36a.19.19,0,0,1-.21-.19c0-.16,0-.31,0-.47Q132.86,54.6,132.86,51.32Z"
     id="path68"
     style="fill:#ffffff" />
  <path
     d="M140.61,39.91a2.06,2.06,0,1,1,0-4.11,2.06,2.06,0,0,1,0,4.11Z"
     id="path70"
     style="fill:#ffffff" />
</svg>
