<?xml version="1.0" encoding="utf-8"?>
<!-- Generator: Adobe Illustrator 20.1.0, SVG Export Plug-In . SVG Version: 6.00 Build 0)  -->
<svg version="1.1"
	 id="Слой_1" inkscape:version="0.92.1 r15371" sodipodi:docname="logogor.svg" xmlns:cc="http://creativecommons.org/ns#" xmlns:dc="http://purl.org/dc/elements/1.1/" xmlns:inkscape="http://www.inkscape.org/namespaces/inkscape" xmlns:rdf="http://www.w3.org/1999/02/22-rdf-syntax-ns#" xmlns:sodipodi="http://sodipodi.sourceforge.net/DTD/sodipodi-0.dtd" xmlns:svg="http://www.w3.org/2000/svg"
	 xmlns="http://www.w3.org/2000/svg" xmlns:xlink="http://www.w3.org/1999/xlink" x="0px" y="0px" viewBox="0 0 190 81.1"
	 style="enable-background:new 0 0 190 81.1;" xml:space="preserve">
<style type="text/css">
	.st0{fill:#FFFFFF;}
</style>
<sodipodi:namedview  bordercolor="#666666" borderopacity="1" gridtolerance="10" guidetolerance="10" id="namedview73" inkscape:current-layer="Слой_1" inkscape:cx="147.89567" inkscape:cy="41.690728" inkscape:pageopacity="0" inkscape:pageshadow="2" inkscape:window-height="876" inkscape:window-maximized="1" inkscape:window-width="1553" inkscape:window-x="47" inkscape:window-y="24" inkscape:zoom="11.663158" objecttolerance="10" pagecolor="#ffffff" showgrid="false">
	</sodipodi:namedview>
<title  id="title2">logo 190x70</title>
<path id="path4" class="st0" d="M128.1,46.7c0,3.7,0,7.4,0,11.1c0,0.2,0,0.4,0,0.6c0,0.1-0.1,0.1-0.1,0.1h-2.8c-0.1,0-0.1,0-0.2,0
	c0,0-0.1-0.1-0.1-0.1c0-0.1,0-0.2,0-0.3c0-0.3,0-0.7,0-1c0-0.1,0-0.2,0-0.3c0,0-0.1,0-0.1,0c0,0-0.1,0.1-0.1,0.1l-0.4,0.4
	c-0.9,0.9-2,1.5-3.3,1.6c-1,0.1-2.1,0.1-3.1-0.2c-0.8-0.3-1.6-0.7-2.2-1.3c-0.8-0.8-1.4-1.9-1.8-3c-0.4-1.4-0.5-2.8-0.4-4.3
	c0.1-0.8,0.3-1.7,0.6-2.5c0.3-0.9,0.9-1.7,1.6-2.4c0.9-0.9,2.1-1.5,3.4-1.7c0.7-0.1,1.4-0.1,2.1,0c0.9,0.1,1.8,0.5,2.5,1.2
	c0.3,0.3,0.6,0.7,0.9,1.1c0.1,0.1,0.1,0.2,0.2,0.2l0,0c0,0,0-0.1,0-0.1c0-0.2,0-0.3,0-0.5c0-3.3,0-6.6,0-9.9c0-0.9-0.1-0.8,0.8-0.8
	h2.1c0.1,0,0.2,0,0.3,0c0,0,0.1,0.1,0.1,0.1c0,0,0,0.1,0,0.2c0,0.2,0,0.3,0,0.5C128,39.4,128.1,43,128.1,46.7z M124.9,51.3
	c0-0.5,0-1-0.1-1.4c-0.1-0.6-0.3-1.1-0.6-1.6c-0.5-0.8-1.3-1.4-2.2-1.6c-0.5-0.1-1-0.2-1.5-0.1c-1.2,0.1-2.3,0.7-2.9,1.8
	c-0.2,0.4-0.4,0.8-0.5,1.3c-0.3,1.1-0.3,2.3,0,3.4c0.1,0.5,0.3,1,0.5,1.4c0.4,0.8,1.1,1.4,2,1.6c0.8,0.2,1.7,0.2,2.5,0
	c0.5-0.1,0.9-0.4,1.3-0.7c0.6-0.5,1-1.2,1.2-1.9C124.8,52.7,124.9,52,124.9,51.3z"/>
<path id="path6" class="st0" d="M71.8,19.5c0-3.7,0-7.4,0-11.1c0-0.2,0-0.4,0-0.6c0-0.1,0.1-0.1,0.1-0.1h0.2h2.5c0.1,0,0.2,0,0.3,0
	c0,0,0.1,0.1,0.1,0.1c0,0.1,0,0.2,0,0.2c0,0.2,0,0.3,0,0.5c0,3.3,0,6.7,0,10c0,0.2,0,0.4,0,0.5l0,0l0,0c0-0.1,0.1-0.1,0.1-0.2
	c0.2-0.3,0.4-0.6,0.7-0.9c0.6-0.6,1.4-1.1,2.2-1.3c0.9-0.2,1.8-0.3,2.7-0.2c0.7,0.1,1.5,0.3,2.1,0.7c0.5,0.3,1,0.7,1.5,1.2
	c0.8,0.9,1.4,2,1.7,3.2c0.3,1.2,0.4,2.5,0.2,3.7c0,0.7-0.1,1.4-0.2,2.1c-0.3,0.9-0.7,1.8-1.4,2.5c-0.8,0.9-1.8,1.5-2.9,1.8
	c-1.1,0.3-2.2,0.3-3.2,0.1c-1-0.2-1.8-0.7-2.5-1.3c-0.3-0.3-0.5-0.5-0.8-0.8l0,0c0,0-0.1,0-0.1,0.1c0,0.1,0,0.1,0,0.2
	c0,0.4,0,0.7,0,1c0,0.1,0,0.2,0,0.3c0,0-0.1,0.1-0.1,0.1c0,0-0.1,0-0.2,0h-3c-0.1,0-0.1-0.1-0.1-0.1c0-0.2,0-0.3,0-0.5
	c0-0.9,0-1.8,0-2.7C71.8,25.2,71.8,22.3,71.8,19.5z M83,24.2c0-0.5,0-1-0.1-1.5c-0.1-0.6-0.3-1.2-0.7-1.8c-0.5-0.8-1.3-1.3-2.2-1.5
	c-0.6-0.1-1.3-0.1-1.9,0c-0.9,0.1-1.8,0.7-2.3,1.4c-0.3,0.4-0.5,0.9-0.6,1.3c-0.3,1.1-0.3,2.3-0.1,3.5c0.1,0.6,0.3,1.1,0.7,1.6
	c0.4,0.6,0.9,1.1,1.5,1.4c1,0.5,2.2,0.5,3.3,0.1c0.8-0.3,1.5-1,1.8-1.8c0.2-0.4,0.4-0.9,0.4-1.3C82.9,25.2,83,24.7,83,24.2z"/>
<path id="path8" class="st0" d="M37.9,25.9l-0.5-0.2c-0.9-0.4-1.9-0.6-2.8-0.7c-0.4-0.1-0.9-0.1-1.3-0.1c-4.3,0.1-8.2,2.9-9.5,7.1
	c-0.3,1.1-0.5,2.3-0.4,3.4c0.1,3.2,1.7,6.1,4.3,7.9c1.1,0.8,2.3,1.3,3.6,1.6c0.9,0.2,1.8,0.3,2.8,0.2c1.2-0.1,2.4-0.4,3.5-0.8
	c0.5-0.2,0.9-0.5,1.3-0.7l0.2-0.1c0.1,0,0.1,0,0.2,0l0.1,0.1l1.3,2.3c0,0,0,0.1,0,0.1c0,0,0,0.1,0,0.1c0,0.1-0.1,0.1-0.2,0.1
	c-2.2,1.4-4.8,2.1-7.4,2.1c-1.5,0-3-0.3-4.4-0.8c-4.3-1.6-7.5-5.4-8.4-10c-0.3-1.4-0.3-2.8-0.1-4.2c0.8-5.6,5-10,10.5-11.1
	c1-0.2,2-0.3,3-0.3c1,0,2,0.2,3,0.4c0.8,0.2,1.5,0.5,2.2,0.8l0.2,0.1c0,0,0,0.1,0,0.1c0,0.1,0,0.1-0.1,0.2L38,25.7
	C38,25.8,37.9,25.8,37.9,25.9z"/>
<path id="path10" class="st0" d="M139.9,16.9h0.3h3.3h0.3c0,0,0,0.1,0,0.1c0,0-0.1,0.1-0.1,0.1l-3.6,3.6l-2.3,2.2l-0.2,0.2
	c-0.1,0.1-0.1,0.2,0,0.3l0.3,0.3l6.4,7.2l0.2,0.3v0.1h-0.2h-3.5c-0.1,0-0.1,0-0.2,0c-0.1,0-0.1,0-0.2-0.1c-0.1-0.1-0.2-0.2-0.3-0.4
	l-4.7-5.4l-1.2-1.4c0-0.1-0.1-0.1-0.2-0.1c0,0-0.1,0-0.1,0c0,0.1,0,0.1,0,0.2c0,2.1,0,4.3,0,6.4c0,0.7,0,0.7-0.6,0.7h-2.4
	c-0.2,0-0.2-0.1-0.2-0.2s0-0.1,0-0.2s0-0.2,0-0.4c0-7.3,0-14.7,0-22c0-0.2,0-0.4,0-0.6c0-0.2,0.1-0.2,0.3-0.2h2.6c0.1,0,0.2,0,0.3,0
	c0.1,0,0.1,0.1,0.1,0.1c0,0.1,0,0.1,0,0.2c0,0.1,0,0.3,0,0.4c0,4.5,0,9,0,13.5c0,0.2,0,0.5,0,0.7c0,0,0,0.1,0.1,0.1c0,0,0.1,0,0.1,0
	c0,0,0,0,0,0l0.2-0.2l2-2l3.4-3.4L139.9,16.9z"/>
<path id="path12" class="st0" d="M111.7,24.1c0,2.2,0,4.3,0,6.5c0,0.2,0,0.4,0,0.5c0,0.1-0.1,0.1-0.1,0.1h-2.8h-0.2
	c-0.1,0-0.1-0.1-0.1-0.1c0-0.1,0-0.2,0-0.3c0-0.3,0-0.6,0-0.9c0-0.1,0-0.2,0-0.3c0,0,0-0.1-0.1-0.1c0,0,0,0,0,0l0,0l-0.2,0.2
	c-0.2,0.3-0.5,0.6-0.8,0.8c-0.7,0.6-1.6,1-2.6,1.1c-0.9,0.1-1.7,0.1-2.6-0.1c-1.5-0.3-2.8-1.1-3.6-2.4c-0.5-0.8-0.9-1.7-1.1-2.6
	c-0.2-1.1-0.3-2.2-0.3-3.3c0-0.8,0.2-1.5,0.4-2.2c0.3-1.1,0.9-2.1,1.6-2.9c0.7-0.8,1.7-1.4,2.8-1.7c0.8-0.2,1.6-0.2,2.3-0.1
	c0.4,0,0.9,0.1,1.3,0.3c0.5,0.2,1,0.4,1.4,0.7c0.4,0.3,0.8,0.8,1.1,1.3l0.1,0.2c0,0,0,0.1,0.1,0.1s0.1-0.1,0.1-0.2s0-0.3,0-0.5
	c0-0.4,0-0.7,0-1c0-0.1,0-0.2,0-0.3c0-0.1,0-0.1,0.1-0.1h0.2h2.7h0.2c0.1,0,0.1,0.1,0.1,0.1c0,0.1,0,0.3,0,0.4c0,0.9,0,1.8,0,2.7
	C111.7,21.4,111.7,22.8,111.7,24.1z M108.5,24c0-0.7-0.1-1.3-0.2-1.9c-0.1-0.3-0.2-0.7-0.4-1c-0.5-0.9-1.4-1.6-2.5-1.7
	c-0.5-0.1-1-0.1-1.6,0c-0.8,0.1-1.5,0.5-2,1c-0.5,0.5-0.8,1-1,1.6c-0.1,0.4-0.2,0.8-0.2,1.2c-0.1,1-0.1,2,0.2,2.9
	c0.1,0.4,0.2,0.7,0.4,1.1c0.4,0.8,1.1,1.4,2,1.6c0.6,0.2,1.2,0.2,1.8,0.2c0.9-0.1,1.7-0.5,2.3-1.1c0.5-0.5,0.9-1.1,1.1-1.8
	C108.5,25.3,108.5,24.7,108.5,24L108.5,24z"/>
<path id="path14" class="st0" d="M155.7,51.4c0,1.2-0.3,2.3-0.8,3.4c-0.4,0.9-1,1.6-1.7,2.2c-1.1,1-2.5,1.7-3.9,2
	c-1,0.2-2.1,0.2-3.2,0c-1.7-0.3-3.3-1.2-4.4-2.5c-2.4-2.6-2.6-6.6-0.5-9.5c1.1-1.6,2.8-2.8,4.8-3.2c0.7-0.2,1.3-0.2,2-0.2
	c2.6,0,5,1.4,6.4,3.5C155.3,48.4,155.7,49.9,155.7,51.4z M152.3,51.3c0-0.1,0-0.3,0-0.5c-0.1-1-0.5-1.9-1.1-2.7
	c-0.6-0.7-1.4-1.2-2.2-1.5c-0.4-0.1-0.8-0.2-1.2-0.1c-0.8,0-1.6,0.3-2.2,0.7c-0.9,0.6-1.6,1.5-1.9,2.5c-0.2,0.6-0.3,1.2-0.2,1.9
	c0,1.1,0.5,2.2,1.2,3c0.7,0.8,1.7,1.4,2.7,1.5c0.9,0.1,1.9,0,2.7-0.5c1-0.6,1.7-1.5,2.1-2.7C152.2,52.4,152.3,51.9,152.3,51.3z"/>
<path id="path16" class="st0" d="M153.4,16.3c1.4,0,2.8,0.3,4,1c1.6,0.9,2.9,2.3,3.6,4c1.2,3.1,0.2,6.6-2.4,8.7
	c-1.6,1.3-3.7,2-5.8,1.8c-3.3-0.3-6-2.5-6.9-5.7c-0.8-2.6,0-5.5,1.9-7.4c1.1-1.2,2.6-2,4.2-2.3C152.5,16.4,152.9,16.3,153.4,16.3z
	 M149.1,24.1c0,0.1,0,0.2,0,0.3c0.1,1.5,0.8,2.8,2,3.7c0.3,0.2,0.6,0.4,0.9,0.5c0.9,0.3,1.8,0.4,2.7,0.2c0.6-0.1,1.1-0.4,1.6-0.8
	c0.7-0.6,1.3-1.4,1.6-2.3c0.2-0.6,0.2-1.2,0.2-1.8c0-1.4-0.6-2.6-1.6-3.5c-0.5-0.4-1.1-0.8-1.7-0.9c-0.5-0.1-0.9-0.2-1.4-0.1
	c-0.8,0-1.6,0.3-2.2,0.7c-1,0.7-1.7,1.8-1.9,3C149.1,23.4,149.1,23.8,149.1,24.1L149.1,24.1z"/>
<path id="path18" class="st0" d="M106.7,48.7c0-1.3,0-2.6,0-3.9c0-0.2,0-0.3,0-0.5c0-0.1,0.1-0.2,0.2-0.2c0,0,0,0,0,0h2.9h0.1
	c0,0,0.1,0,0.1,0.1c0,0.1,0,0.2,0,0.4c0,2.3,0,4.6,0,6.9c0,0.9-0.1,1.8-0.3,2.7c-0.1,0.6-0.3,1.2-0.6,1.8c-0.4,0.8-0.9,1.5-1.6,2
	c-0.4,0.3-0.8,0.5-1.3,0.7c-0.6,0.2-1.2,0.3-1.8,0.4c-0.6,0.1-1.2,0.1-1.7,0.1c-0.9,0-1.8-0.2-2.6-0.4c-0.7-0.2-1.4-0.6-2-1.1
	c-0.4-0.3-0.7-0.7-0.9-1.1c-0.4-0.7-0.7-1.5-0.8-2.3C96.1,53.4,96,52.7,96,52c0-0.5,0-1,0-1.5c0-1.9,0-3.9,0-5.8
	c0-0.6,0-0.6,0.6-0.6h2.5c0.1,0,0.2,0.1,0.2,0.2c0,0,0,0,0,0c0,0.2,0,0.3,0,0.5c0,2.3,0,4.7,0,7c0,0.3,0,0.6,0,0.8
	c0,0.5,0.1,1,0.2,1.5c0.1,0.4,0.3,0.7,0.5,1c0.4,0.5,0.9,0.8,1.4,0.9c0.4,0.1,0.8,0.2,1.1,0.2c0.5,0,1.1,0,1.6-0.1
	c0.3-0.1,0.6-0.2,0.9-0.3c0.6-0.3,1-0.7,1.3-1.3c0.2-0.4,0.3-0.9,0.3-1.4c0-0.4,0-0.7,0-1.1C106.7,50.9,106.7,49.8,106.7,48.7z"/>
<path id="path20" class="st0" d="M175.6,21.4c0-1.3,0-2.6,0-3.9c0-0.2,0-0.4,0-0.5c0-0.1,0.1-0.1,0.1-0.1h2.9c0.1,0,0.2,0.1,0.2,0.2
	c0,0.1,0,0.2,0,0.3c0,2.3,0,4.5,0,6.8c0,1-0.1,1.9-0.3,2.9c-0.1,0.5-0.3,1-0.5,1.5c-0.5,1.3-1.6,2.4-3,2.8c-0.6,0.2-1.3,0.4-2,0.4
	l-0.7,0c-1.1,0.1-2.1-0.1-3.1-0.3c-0.6-0.2-1.2-0.4-1.8-0.8c-0.6-0.4-1.1-0.9-1.5-1.5c-0.3-0.6-0.6-1.2-0.7-1.9
	c-0.2-0.9-0.3-1.8-0.4-2.6c0-0.2,0-0.5,0-0.7c0-2.2,0-4.5,0-6.7c0-0.1,0-0.2,0-0.4c0-0.1,0.1-0.2,0.2-0.2h2.7h0.3c0,0,0.1,0,0.1,0.1
	c0,0.1,0,0.1,0,0.2c0,0.2,0,0.4,0,0.5c0,2.4,0,4.8,0,7.2c0,0.5,0,1,0.1,1.5c0.1,0.3,0.1,0.6,0.3,0.9c0.3,0.7,0.8,1.2,1.6,1.5
	c0.5,0.2,1,0.2,1.4,0.3c0.5,0,1,0,1.5-0.1c0.3-0.1,0.7-0.2,1-0.3c0.5-0.2,0.9-0.7,1.1-1.1c0.2-0.4,0.3-0.9,0.4-1.4
	c0-0.4,0.1-0.7,0.1-1c0-1.2,0-2.3,0-3.5L175.6,21.4z"/>
<path id="path22" class="st0" d="M80.3,47.5l-0.1-0.2c-0.4-0.7-1.1-1.1-1.9-1.2c-0.4-0.1-0.8,0-1.2,0c-0.3,0.1-0.6,0.2-0.8,0.4
	c-0.3,0.3-0.5,0.7-0.6,1.1c0,0.3,0.1,0.6,0.3,0.8c0.2,0.3,0.5,0.5,0.8,0.6c0.4,0.2,0.8,0.5,1.2,0.6l1.1,0.4c0.8,0.3,1.5,0.6,2.2,1
	c0.3,0.2,0.6,0.4,0.9,0.7c0.6,0.6,0.9,1.3,1,2.1c0.1,0.6,0,1.3-0.2,1.9c-0.3,1-0.9,1.8-1.8,2.3c-0.6,0.4-1.2,0.6-1.8,0.7
	c-1.3,0.3-2.7,0.3-4.1,0c-1.6-0.3-2.9-1.3-3.6-2.8V56c0-0.1,0-0.1,0-0.2l0.2-0.1l2.2-1.2c0,0,0.1,0,0.1,0c0,0,0.1,0,0.1,0
	c0,0.1,0.1,0.2,0.1,0.3c0.3,0.8,1.1,1.4,1.9,1.7c0.2,0.1,0.4,0.1,0.6,0.1c0.4,0,0.8,0,1.2,0c0.4,0,0.7-0.2,1-0.4
	c0.6-0.3,0.9-1,0.8-1.7c0-0.3-0.2-0.6-0.4-0.8c-0.2-0.2-0.4-0.3-0.6-0.5c-0.4-0.2-0.8-0.4-1.2-0.6c-0.8-0.3-1.5-0.6-2.2-0.9
	c-0.4-0.2-0.9-0.5-1.3-0.7c-0.3-0.2-0.5-0.4-0.7-0.6c-0.7-0.6-1.1-1.5-1-2.5c0-0.3,0-0.7,0.1-1c0.2-0.8,0.7-1.6,1.3-2.1
	c0.6-0.5,1.3-0.8,2-1c1.3-0.3,2.6-0.3,3.9,0c0.5,0.1,1.1,0.4,1.5,0.7c0.4,0.3,0.8,0.7,1.1,1.1l0.1,0.2c0,0.1,0,0.1,0,0.2l-0.2,0.2
	l-1.8,1.2L80.3,47.5z"/>
<path id="path24" class="st0" d="M127.1,17.2c0,0.1,0,0.2,0,0.2c0,1,0,2.1,0,3.1c0,0,0,0,0,0c0,0,0,0.1,0,0.1c0,0-0.1,0-0.1,0
	l-0.2-0.2c-0.5-0.5-1.2-0.9-1.8-1.1c-0.8-0.3-1.6-0.3-2.4-0.2c-0.3,0-0.5,0.1-0.8,0.1c-1.2,0.3-2.1,1.2-2.6,2.3
	c-0.2,0.4-0.3,0.9-0.4,1.4c-0.1,0.9-0.1,1.9,0.2,2.8c0.3,1,0.9,1.9,1.8,2.4c0.3,0.2,0.5,0.3,0.8,0.4c1,0.3,2.1,0.3,3.2,0.1
	c0.8-0.2,1.5-0.6,2-1.2c0.1-0.1,0.2-0.2,0.3-0.2c0,0,0.1,0,0.1,0c0,0,0,0.1,0,0.1c0,1.1,0,2.1,0,3.2c0,0.1-0.1,0.3-0.2,0.3
	c-0.5,0.3-1,0.5-1.6,0.6c-1,0.3-2,0.3-3,0.3c-0.6,0-1.2-0.2-1.8-0.3c-2.2-0.7-4-2.3-4.7-4.5c-0.2-0.7-0.4-1.4-0.4-2
	c-0.1-1,0-2,0.2-3c0.5-2,1.8-3.7,3.6-4.6c0.9-0.5,1.8-0.7,2.7-0.9c0.6-0.1,1.1-0.1,1.7-0.1c0.8,0,1.7,0.1,2.5,0.4
	C126.4,16.9,126.7,17.1,127.1,17.2z"/>
<path id="path26" class="st0" d="M9.7,11.5c0,0,0.1,0,0.1,0.1l2,2c0,0,0,0.1,0,0.1c0,0.1-0.1,0.2-0.2,0.3c-0.7,0.8-1.4,1.6-2.1,2.4
	c-2,2.6-3.6,5.5-4.7,8.6c-0.4,1.1-0.7,2.3-1,3.4c-0.2,1-0.4,2-0.5,3c-0.1,0.6-0.1,1.2-0.2,1.7c-0.1,0.9-0.1,1.7-0.1,2.6
	c0,0.2,0,0.4,0,0.6c0,0.1-0.1,0.2-0.2,0.2H2.8l-2.1,0.1C-0.1,36.6,0,36.8,0,36c0-0.8,0-1.7,0-2.5c0-1.2,0.2-2.4,0.3-3.6
	c0.3-2,0.8-4,1.5-5.9c0.9-2.5,2.1-4.9,3.5-7.2c1.2-1.8,2.5-3.5,4-5C9.4,11.7,9.6,11.6,9.7,11.5z"/>
<path id="path28" class="st0" d="M9.3,35.8H8.2c-0.1,0-0.2,0-0.3,0c-0.1,0-0.1-0.1-0.1-0.1c0-0.1,0-0.2,0-0.4c0-0.5,0-0.9,0-1.4
	c0-1.2,0.2-2.3,0.4-3.5C9.5,23.3,13.8,17,20,13.2c0.1-0.1,0.1-0.1,0.2-0.1c0,0,0.1,0,0.1,0c0,0,0.1,0,0.1,0.1l1.6,2.2
	c0,0,0.1,0.1,0.1,0.1c0,0,0,0.1,0,0.1c0,0-0.1,0.1-0.2,0.1c-0.4,0.3-0.8,0.5-1.2,0.8c-2.8,1.9-5.1,4.5-6.8,7.5
	c-1.9,3.4-2.9,7.1-2.9,11c0,0.2,0,0.5,0,0.7c0,0.1-0.1,0.2-0.2,0.2c0,0,0,0,0,0L9.3,35.8L9.3,35.8z"/>
<path id="path30" class="st0" d="M21.5,57.6c0.4-0.9,0.8-1.7,1.1-2.6c0,0,0.1-0.1,0.1-0.1h0.1c0.5,0.2,1,0.5,1.5,0.7s1,0.4,1.6,0.6
	s1.1,0.4,1.6,0.5s1.1,0.3,1.6,0.4s1.1,0.2,1.7,0.3s1.1,0.1,1.7,0.1c0.6,0,1.2,0,1.7,0c0.6,0,1.1-0.1,1.7-0.1
	c0.6-0.1,1.2-0.1,1.7-0.2s1.1-0.2,1.6-0.4c0.6-0.1,1.1-0.3,1.6-0.5c0.5-0.2,1-0.4,1.6-0.6c0.5-0.2,1.1-0.5,1.6-0.8
	c0.5-0.3,1-0.5,1.5-0.8c0.1,0,0.1,0.1,0.2,0.2l1.5,2.1l0.1,0.2c0,0,0,0.1,0,0.1L47,56.8c-2.2,1.4-4.7,2.4-7.2,3.1
	c-1.1,0.3-2.2,0.5-3.3,0.6c-1.1,0.1-2.2,0.2-3.3,0.2c-1.1,0-2.3-0.1-3.4-0.3c-2.8-0.4-5.5-1.3-8-2.6C21.7,57.8,21.5,57.7,21.5,57.6z
	"/>
<path id="path32" class="st0" d="M48.2,23.4l0.2-0.2l1.9-1.6c0.1,0,0.1-0.1,0.2-0.1c0,0,0.1,0,0.1,0c0.1,0,0.1,0.1,0.2,0.1
	c1.9,2.4,3.2,5.1,3.9,8.1c0.2,0.9,0.4,1.9,0.5,2.8c0.2,1.4,0.2,2.8,0.1,4.1c-0.1,1.3-0.3,2.6-0.7,3.9c-0.4,1.3-0.9,2.6-1.5,3.9
	c-0.4,0.9-0.9,1.7-1.4,2.5c0,0.1-0.1,0.1-0.2,0.2c-0.1,0-0.1-0.1-0.2-0.1l-2.2-1.5l0,0c0-0.1,0-0.1,0-0.2l0.1-0.2
	c1.2-1.9,2-4,2.5-6.2c0.2-1,0.3-1.9,0.3-2.9c0-0.3,0-0.7,0-1c0-3-0.7-5.9-2-8.6c-0.5-0.9-1-1.7-1.6-2.5
	C48.3,23.8,48.2,23.6,48.2,23.4z"/>
<path id="path34" class="st0" d="M13.3,35.8l1.1,0c0.1,0,0.2,0,0.3,0c0,0,0.1,0,0.1,0.1c0,0.1,0,0.2,0,0.3c0.1,2.2,0.6,4.3,1.5,6.3
	C17.9,46,20.6,49,24,51c1.2,0.7,2.5,1.3,3.8,1.7l0.5,0.2c0.1,0,0.2,0.1,0.1,0.2l-0.6,1.7l-0.3,0.9c0,0.1-0.1,0.1-0.2,0.1
	c0,0,0,0,0,0c-1-0.3-1.9-0.6-2.8-1c-4.5-2.1-8.2-5.6-10.4-10c-1-1.9-1.6-3.9-2-6c-0.2-0.9-0.3-1.8-0.3-2.7c0-0.3,0-0.4,0.4-0.4H13.3
	z"/>
<path id="path36" class="st0" d="M13.2,34.9H12c-0.1,0-0.1,0-0.2,0c0,0-0.1-0.1-0.1-0.1c0-0.1,0-0.2,0-0.4c0-1.2,0.1-2.4,0.4-3.6
	c0.4-1.9,1-3.8,1.9-5.5c2.1-4.2,5.5-7.7,9.8-9.8c0.8-0.4,1.7-0.8,2.6-1.1l0.2-0.1c0.1,0,0.1,0,0.1,0.1c0,0,0.1,0.1,0.1,0.1l0.8,2.4
	c0,0,0,0.1,0,0.1c0,0.1,0,0.1-0.1,0.2l-0.3,0.1c-3.6,1.3-6.8,3.7-9,6.9c-1,1.4-1.8,3-2.4,4.6c-0.3,0.9-0.6,1.9-0.7,2.9
	c-0.1,0.8-0.2,1.7-0.2,2.5c0,0.1,0,0.2,0,0.3c0,0.1-0.1,0.2-0.2,0.2L13.2,34.9L13.2,34.9z"/>
<path id="path38" class="st0" d="M187.5,25.5c0,1.7,0,3.4,0,5.1c0,0.2,0,0.4,0,0.5c0,0.1-0.1,0.1-0.1,0.1h-2.8c0,0-0.1,0-0.1,0
	c0,0-0.1-0.1-0.1-0.1c0,0,0-0.1,0-0.1c0-0.2,0-0.3,0-0.5c0-3.3,0-6.7,0-10c0-0.2,0-0.4,0-0.6c0-0.1-0.1-0.2-0.2-0.2c0,0,0,0,0,0
	h-2.1c-0.1,0-0.1-0.1-0.1-0.1c0-0.1,0-0.1,0-0.2c0-0.8,0-1.5,0-2.3c0-0.1,0-0.1,0-0.2c0,0,0-0.1,0.1-0.1h0.3h2
	c0.1,0,0.2-0.1,0.2-0.2c0-0.2,0-0.3,0-0.5c0-1.4,0-2.8,0-4.1c0-0.2,0-0.3,0-0.5s0.1-0.2,0.2-0.2h2.7c0.1,0,0.2,0,0.3,0
	c0,0,0.1,0.1,0.1,0.1c0,0.2,0,0.3,0,0.5c0,1.4,0,2.8,0,4.3c0,0.2,0,0.3,0,0.5c0,0.1,0.1,0.1,0.1,0.1h0.4h1.6c0.1,0,0.2,0,0.3,0
	c0,0,0.1,0.1,0.1,0.1c0,0,0,0.1,0,0.1c0,0.8,0,1.5,0,2.3c0,1.1,0,0.1,0,0.1c0,0.1-0.1,0.1-0.1,0.1h-1.9c-0.1,0-0.2,0-0.3,0
	c0,0-0.1,0.1-0.1,0.1c0,0.2,0,0.3,0,0.5c0,1.5,0,3,0,4.5L187.5,25.5z"/>
<path id="path40" class="st0" d="M90.7,52.8c0,1.7,0,3.4,0,5.2c0,0.2,0,0.3,0,0.5s0,0.1-0.1,0.1h-0.1h-2.7h-0.3
	c-0.1,0-0.1,0-0.1-0.1c0,0,0-0.1,0-0.2c0-0.2,0-0.3,0-0.5c0-3.3,0-6.7,0-10c0-0.2,0-0.3,0-0.5S87.4,47,87.2,47h-1.9
	c-0.1,0-0.2,0-0.3,0c0,0-0.1-0.1-0.1-0.1c0,0,0-0.1,0-0.2c0-0.8,0-1.5,0-2.3c0-1.2,0,0,0,0c0-0.1,0.1-0.2,0.2-0.2c0,0,0,0,0,0H87
	c0.1,0,0.2,0,0.3,0c0,0,0.1-0.1,0.1-0.1c0,0,0-0.1,0-0.2c0-0.1,0-0.3,0-0.4c0-1.4,0-2.8,0-4.2c0-0.2,0-0.3,0-0.5
	c0-0.1,0.1-0.1,0.1-0.1h0.2h2.6h0.2c0.1,0,0.1,0.1,0.1,0.1c0,0.1,0,0.1,0,0.2s0,0.3,0,0.5c0,1.3,0,2.7,0,4c0,0.2,0,0.3,0,0.5
	c0,0.1,0.1,0.2,0.2,0.2h1.9c0.1,0,0.2,0,0.3,0c0,0,0.1,0.1,0.1,0.1c0,0,0,0.1,0,0.2c0,0.8,0,1.5,0,2.3c0,0,0,0.1,0,0.2
	c0,0-0.1,0.1-0.1,0.1c-0.1,0-0.2,0-0.3,0h-1.8c-0.1,0-0.2,0.1-0.2,0.2c0,0,0,0.1,0,0.2s0,0.3,0,0.4C90.7,49.4,90.7,51.1,90.7,52.8z"
	/>
<path id="path42" class="st0" d="M17.6,35.6h-1h-0.3c-0.1,0-0.1-0.1-0.1-0.1c0-0.1,0-0.2,0-0.3c0-0.7,0-1.3,0.1-1.9
	c0.1-1.1,0.3-2.2,0.7-3.3c1.5-4.8,4.9-8.7,9.5-10.8c1.2-0.6,2.5-1,3.8-1.2c0.9-0.2,1.8-0.3,2.7-0.3H33c0,0,0.1,0,0.1,0.1
	c0,0.1,0,0.1,0,0.2c0,0.7,0,1.5,0,2.2c0,0.1,0,0.3,0,0.4c0,0.1-0.1,0.2-0.2,0.2h-0.2c-2.3,0.1-4.4,0.7-6.4,1.9
	c-2.2,1.3-4.1,3.2-5.3,5.5c-1.2,2.1-1.8,4.5-1.8,6.9c0,0.5,0,0.5-0.5,0.5L17.6,35.6L17.6,35.6z"/>
<path id="path44" class="st0" d="M5.7,36.1h1.1h0.3c0.1,0,0.1,0,0.1,0.1c0,0.1,0,0.2,0,0.3c0.2,4.3,1.5,8.5,3.7,12.2
	c1.7,2.8,3.9,5.2,6.4,7.2l0.4,0.3c0,0.1,0,0.1,0,0.2l-0.2,0.3l-1.2,1.9l-0.1,0.2c-0.1,0-0.1,0-0.2,0l-0.3-0.2
	c-5.4-4.1-9.2-9.9-10.8-16.5c-0.4-1.7-0.7-3.4-0.8-5.1c-0.1-1-0.2-0.9,0.8-0.9L5.7,36.1L5.7,36.1z"/>
<path id="path46" class="st0" d="M57.8,57.8c-0.1,0-0.1-0.1-0.2-0.1l-1.9-1.9l0,0c0-0.1,0-0.1,0-0.2l0.4-0.5
	c2.7-3.1,4.8-6.7,6.1-10.6c0.3-1,0.6-2.1,0.9-3.1c0.2-1,0.4-2.1,0.5-3.1c0.1-1.3,0.2-2.6,0.2-3.8c0-0.1,0-0.1,0-0.2
	c0-0.2,0-0.3,0.3-0.3l2.5-0.1h0.3c0.1,0,0.1,0.1,0.1,0.1c0,0.1,0,0.2,0,0.4c0,0.6,0,1.1,0,1.7c0,0.2,0,0.5,0,0.7
	c-0.1,1-0.2,2.1-0.3,3.1c-0.2,1.2-0.4,2.3-0.7,3.5c-0.5,1.9-1.1,3.7-1.9,5.4c-1.1,2.3-2.4,4.5-4,6.4c-0.6,0.8-1.3,1.6-2,2.3
	C58,57.7,57.9,57.8,57.8,57.8z"/>
<path id="path48" class="st0" d="M57.5,34.2h-1.3h-0.1c-0.1,0-0.1-0.1-0.1-0.1c0-0.2,0-0.3,0-0.5c-0.3-4.9-2.2-9.6-5.5-13.3
	c-1.6-1.9-3.6-3.5-5.7-4.7l-0.3-0.2c0,0,0-0.1,0-0.1c0-0.1,0.1-0.1,0.1-0.2l1.2-2.2c0-0.1,0.1-0.1,0.1-0.2c0,0,0.1,0,0.1,0l0.3,0.1
	c1.3,0.8,2.5,1.6,3.7,2.6c4.6,3.8,7.7,9.1,8.8,14.9c0.2,1.1,0.4,2.3,0.4,3.4c0,0.1,0,0.2,0,0.3c0,0,0,0.1-0.1,0.1h-0.4h-1.2
	L57.5,34.2z"/>
<path id="path50" class="st0" d="M60.2,47.2c0,0.1,0,0.1,0,0.2c-0.3,0.5-0.5,1.1-0.8,1.6c-1,1.8-2.1,3.4-3.4,4.9
	c-1.8,2.1-3.8,4-6.2,5.5c-1.8,1.2-3.7,2.2-5.8,3c-0.8,0.3-1.7,0.6-2.5,0.8l-0.2,0c-0.1,0-0.1,0-0.2-0.1c0-0.2-0.1-0.3-0.2-0.5
	l-0.6-2.1c0-0.1,0-0.1,0-0.2c0-0.1,0-0.1,0.1-0.1c0.1,0,0.2-0.1,0.3-0.1c3.2-0.9,6.1-2.4,8.7-4.4c3.3-2.6,6-5.9,7.8-9.8l0.1-0.3
	c0-0.1,0.1-0.1,0.2-0.1c0,0,0,0,0,0l0.2,0.1l2,1.2L60.2,47.2C60.2,47.1,60.2,47.1,60.2,47.2z"/>
<path id="path52" class="st0" d="M93.4,19.5c0,3.7,0,7.3,0,11c0,0.2,0,0.4,0,0.6c0,0.1-0.1,0.2-0.2,0.2h-2.7h-0.3c0,0-0.1,0-0.1-0.1
	c0,0,0-0.1,0-0.1c0-0.2,0-0.4,0-0.5c0-7.3,0-14.7,0-22.1c0-0.2,0-0.4,0-0.6c0-0.1,0.1-0.2,0.2-0.2h2.9c0.1,0,0.2,0.1,0.2,0.2
	c0,0.1,0,0.1,0,0.2c0,0.1,0,0.3,0,0.5C93.4,12.2,93.4,15.8,93.4,19.5z"/>
<path id="path54" class="st0" d="M16.9,14.5l-0.2,0.2c-0.8,0.6-1.5,1.3-2.2,2c-2,2.1-3.6,4.4-4.9,7C9,25.3,8.4,26.9,8,28.6
	c-0.3,1.2-0.5,2.4-0.6,3.6c-0.1,0.7-0.1,1.5-0.1,2.2c0,0.1,0,0.2,0,0.4c0,0.1-0.1,0.1-0.1,0.1H4.3c0,0-0.1,0-0.2,0
	c0,0-0.1,0-0.1-0.1c0-0.1,0-0.2,0-0.3c0-1,0.1-2,0.2-3c0.2-1.3,0.4-2.6,0.7-3.9c1.2-4.5,3.4-8.7,6.5-12.2c0.9-1,1.9-2,3-2.9l0.2-0.1
	c0,0,0.1,0,0.1,0c0.1,0,0.1,0.1,0.2,0.1l1.8,1.8C16.9,14.3,16.9,14.4,16.9,14.5z"/>
<path id="path56" class="st0" d="M11,59.7c0-0.1,0.1-0.1,0.1-0.2l1.7-2.1l0.1-0.1c0,0,0.1,0,0.1,0l0.4,0.3c2.2,1.9,4.7,3.5,7.3,4.8
	c2.6,1.2,5.3,2,8.2,2.5c0.8,0.1,1.6,0.2,2.4,0.3c0.8,0.1,1.6,0.1,2.5,0.1h0.5c0.1,0,0.1,0.1,0.1,0.1c0,0.1,0,0.1,0,0.2
	c0,0.8,0,1.6,0.1,2.4c0,0.1,0,0.2,0,0.3c0,0.1-0.1,0.1-0.1,0.1c-0.1,0-0.1,0-0.2,0c-1.1,0-2.2,0-3.3-0.1l-1.2-0.1
	c-1.2-0.1-2.3-0.3-3.4-0.6c-1.9-0.4-3.8-1-5.5-1.8c-2.1-0.9-4.2-2-6.1-3.3c-1.1-0.8-2.1-1.6-3.1-2.5L11,59.7
	C11,59.8,11,59.8,11,59.7z"/>
<path id="path58" class="st0" d="M56.3,10.6c0,0.1-0.1,0.1-0.1,0.2l-1.5,1.6c-0.1,0.1-0.3,0.3-0.4,0.4c-0.1,0-0.2-0.1-0.3-0.2
	c-0.7-0.7-1.4-1.3-2.2-1.9c-1.5-1.1-3-2.1-4.6-2.9c-1.4-0.7-2.9-1.3-4.4-1.8c-1.2-0.4-2.4-0.7-3.6-0.9c-1.8-0.3-3.6-0.5-5.5-0.5
	h-0.4c-0.1,0-0.2-0.1-0.2-0.2c0-0.1,0-0.2,0-0.3C33,3.4,33,2.6,33,1.8c0,0,0-0.1,0-0.1c0,0,0.1-0.1,0.1-0.1c0.1,0,0.2,0,0.3,0
	c0.6,0,1.2,0,1.8,0s1.4,0.1,2.1,0.2s1.4,0.2,2.1,0.3c1.7,0.3,3.4,0.7,5.1,1.3c3.1,1.1,5.9,2.6,8.6,4.5c1,0.7,2,1.5,2.9,2.4l0.3,0.3
	C56.3,10.6,56.3,10.6,56.3,10.6z"/>
<path id="path60" class="st0" d="M33.9,50.8c0-0.4,0-0.7,0-1c0-0.1,0-0.2,0-0.3c0-0.1,0.1-0.2,0.2-0.2c0,0,0,0,0,0l1-0.1
	c1.6-0.2,3.2-0.6,4.7-1.4c3.7-1.8,6.5-5.2,7.5-9.2c0.3-1,0.4-2.1,0.5-3.2c0-0.1,0-0.2,0-0.3c0-0.1,0.1-0.2,0.2-0.2h2.6
	c0.1,0,0.2,0,0.3,0c0,0,0.1,0.1,0.1,0.1c0,0.1,0,0.1,0,0.2c0,0.3,0,0.7,0,1c-0.3,3.9-1.9,7.7-4.6,10.5c-2.6,2.8-5.9,4.6-9.6,5.3
	c-0.7,0.1-1.4,0.2-2.1,0.3c-0.1,0-0.3,0-0.4,0c-0.1,0-0.1-0.1-0.1-0.1c0-0.1,0-0.1,0-0.2C33.9,51.6,33.9,51.2,33.9,50.8L33.9,50.8z"
	/>
<path id="path62" class="st0" d="M59.3,21c-0.1,0.1-0.2,0.2-0.3,0.2c-0.7,0.5-1.5,0.9-2.3,1.3c-0.1-0.1-0.2-0.2-0.2-0.3
	c-1.4-2.5-3.2-4.8-5.4-6.8c-3.4-3.1-7.5-5.2-12-6.2h-0.2c-0.1,0-0.1-0.1-0.1-0.2V9l0.5-2.5c0-0.1,0-0.1,0.1-0.2
	c0-0.1,0.1-0.1,0.2-0.1L40,6.3c8.1,1.9,15.1,7.1,19.2,14.4C59.2,20.8,59.3,20.9,59.3,21z"/>
<path id="path64" class="st0" d="M24.3,34.8c0-1.2,0.3-2.5,0.8-3.6c0.9-2,2.4-3.6,4.4-4.5c1.3-0.6,2.7-0.9,4.2-0.9
	c4,0.1,7.5,2.8,8.6,6.6c0.1,0.5,0.2,1,0.3,1.4c0,0.1,0,0.1,0,0.2c0,0,0,0.1-0.1,0.1l0,0l-2.7,0.2h-0.1c0,0-0.1,0-0.1-0.1
	s0-0.2-0.1-0.3c-0.4-2.5-2.4-4.6-4.9-5c-1.3-0.2-2.6,0-3.7,0.5c-1.1,0.5-2,1.4-2.6,2.5c-0.5,0.8-0.7,1.8-0.8,2.7c0,0.1,0,0.1,0,0.2
	s-0.1,0.2-0.2,0.2h-0.3l-2.4,0.1c0,0-0.1,0-0.1,0c0,0-0.1-0.1-0.1-0.1S24.3,34.9,24.3,34.8z"/>
<path id="path66" class="st0" d="M31.5,34.9c-0.2,0-0.4,0-0.6,0l-1.7-0.1h-0.2c-0.8,0-0.7,0-0.6-0.7c0.1-0.7,0.4-1.5,0.9-2.1
	c0.7-1,1.7-1.7,2.9-2c2.7-0.7,5.5,1,6.1,3.7c0,0,0,0.1,0,0.1c0.3,1.3,0.1,2.7-0.7,3.8c-1.5,2.4-4.6,3.1-7,1.6
	c-0.2-0.1-0.4-0.3-0.5-0.4c-0.9-0.7-1.5-1.7-1.8-2.8c0-0.1,0-0.2,0-0.3c0-0.1,0-0.1,0.1-0.1l0.3-0.1l2.5-0.3c0.1,0,0.2,0.1,0.2,0.1
	l0,0.2c0.3,1,1.4,1.6,2.4,1.3c1-0.3,1.6-1.4,1.3-2.4c-0.3-1-1.4-1.6-2.4-1.3c-0.6,0.2-1.1,0.7-1.3,1.3
	C31.6,34.6,31.5,34.7,31.5,34.9z"/>
<path id="path68" class="st0" d="M132.9,51.3c0-2.2,0-4.3,0-6.5c0-0.2,0-0.3,0-0.5c0-0.1,0.1-0.1,0.1-0.1h0.2h2.6c0.1,0,0.1,0,0.2,0
	c0,0,0.1,0.1,0.1,0.1c0,0,0,0.1,0,0.2c0,0.2,0,0.3,0,0.5c0,4.3,0,8.7,0,13c0,0.8,0.1,0.7-0.7,0.7H133c-0.1,0-0.2-0.1-0.2-0.2
	c0,0,0,0,0,0c0-0.2,0-0.3,0-0.5C132.9,55.7,132.9,53.5,132.9,51.3z"/>
<path id="path70" inkscape:connector-curvature="0" class="st0" d="M134.6,39.1c-1.1,0.1-2.1-0.8-2.2-1.9c-0.1-1.1,0.8-2.1,1.9-2.2
	c0.1,0,0.2,0,0.3,0c1.1,0.1,2,1.1,1.9,2.2C136.4,38.2,135.6,39,134.6,39.1z"/>
<path class="st0" d="M72,68.2h0.8v1.1c0.6-0.8,1.3-1.3,2.2-1.3c0.5,0,0.9,0.1,1.3,0.4c0.4,0.3,0.6,0.6,0.7,1.1
	c0.3-0.5,0.6-0.9,1-1.1c0.4-0.3,0.9-0.4,1.4-0.4s1,0.2,1.4,0.6c0.4,0.4,0.6,1.2,0.6,2.4v3.4h-0.8v-3.4c0-0.6,0-1-0.1-1.3
	c-0.1-0.3-0.2-0.5-0.5-0.7c-0.2-0.2-0.6-0.3-0.9-0.3c-0.4,0-0.8,0.1-1.1,0.4c-0.3,0.3-0.6,0.6-0.7,1c-0.1,0.4-0.2,1-0.2,1.8v2.5
	h-0.8v-3.2c0-0.7,0-1.2-0.1-1.4c-0.1-0.3-0.2-0.5-0.5-0.7c-0.2-0.2-0.5-0.3-0.9-0.3s-0.7,0.1-1,0.3c-0.3,0.2-0.6,0.5-0.7,0.9
	c-0.2,0.4-0.3,1-0.3,1.8v2.7H72V68.2z"/>
<path class="st0" d="M99.9,71.4c0-0.7-0.2-1.3-0.7-1.8c-0.5-0.5-1.1-0.8-1.7-0.8c-0.7,0-1.2,0.3-1.7,0.8c-0.5,0.5-0.7,1.1-0.7,1.8
	c0,0.7,0.2,1.3,0.7,1.8c0.5,0.5,1,0.7,1.7,0.7c0.7,0,1.3-0.2,1.8-0.7C99.7,72.7,99.9,72.1,99.9,71.4 M94.1,71.4c0-0.9,0.3-1.7,1-2.4
	c0.6-0.7,1.4-1,2.3-1c0.9,0,1.7,0.3,2.3,1c0.6,0.7,1,1.4,1,2.4c0,0.9-0.3,1.7-0.9,2.4c-0.6,0.7-1.4,1-2.3,1c-0.9,0-1.7-0.3-2.3-1
	C94.5,73.1,94.1,72.3,94.1,71.4"/>
<path class="st0" d="M116.7,68.9l-0.5,0.5c-0.4-0.4-0.9-0.6-1.3-0.6c-0.3,0-0.5,0.1-0.7,0.3c-0.2,0.2-0.3,0.4-0.3,0.6
	c0,0.3,0.1,0.5,0.3,0.6c0.2,0.2,0.5,0.4,1,0.6c0.5,0.3,0.8,0.5,1.1,0.8c0.2,0.3,0.4,0.6,0.4,1.1c0,0.5-0.2,1-0.6,1.3
	c-0.4,0.4-0.8,0.5-1.4,0.5c-0.4,0-0.7-0.1-1-0.2c-0.3-0.2-0.6-0.4-0.8-0.7l0.5-0.6c0.4,0.5,0.9,0.7,1.3,0.7c0.3,0,0.6-0.1,0.8-0.3
	c0.2-0.2,0.3-0.5,0.3-0.8s-0.1-0.5-0.3-0.7c-0.2-0.2-0.5-0.4-1-0.6c-0.5-0.2-0.8-0.5-1.1-0.8c-0.2-0.3-0.3-0.6-0.3-1.1
	c0-0.4,0.2-0.8,0.5-1.1c0.3-0.3,0.8-0.5,1.3-0.5S116.1,68.4,116.7,68.9"/>
<path class="st0" d="M135.6,69.5l-0.6,0.4c-0.6-0.7-1.3-1.1-2.3-1.1c-0.8,0-1.4,0.2-1.9,0.7c-0.5,0.5-0.8,1.1-0.8,1.8
	c0,0.7,0.3,1.3,0.8,1.9c0.5,0.5,1.1,0.8,1.9,0.8c0.9,0,1.7-0.4,2.3-1.1l0.6,0.4c-0.3,0.5-0.7,0.8-1.3,1.1s-1.1,0.4-1.7,0.4
	c-1,0-1.8-0.3-2.4-1c-0.7-0.6-1-1.4-1-2.4c0-0.9,0.3-1.7,1-2.4c0.7-0.7,1.5-1,2.5-1c0.6,0,1.2,0.1,1.7,0.4
	C134.9,68.7,135.3,69.1,135.6,69.5"/>
<path class="st0" d="M153.8,71.4c0-0.7-0.2-1.3-0.7-1.8c-0.5-0.5-1.1-0.8-1.7-0.8s-1.2,0.3-1.7,0.8c-0.5,0.5-0.7,1.1-0.7,1.8
	c0,0.7,0.2,1.3,0.7,1.8c0.5,0.5,1,0.7,1.7,0.7c0.7,0,1.3-0.2,1.8-0.7C153.6,72.7,153.8,72.1,153.8,71.4 M148.1,71.4
	c0-0.9,0.3-1.7,1-2.4s1.4-1,2.3-1c0.9,0,1.7,0.3,2.3,1c0.6,0.7,1,1.4,1,2.4c0,0.9-0.3,1.7-0.9,2.4c-0.6,0.7-1.4,1-2.3,1
	c-0.9,0-1.7-0.3-2.3-1C148.4,73.1,148.1,72.3,148.1,71.4"/>
<polygon class="st0" points="175.5,68.2 173.5,73 171.5,68.2 171.4,68.2 169.3,73 167.4,68.2 166.6,68.2 169.3,74.8 169.4,74.8 
	171.4,70 173.4,74.8 173.6,74.8 176.3,68.2 "/>
</svg>
