<?xml version="1.0" encoding="UTF-8" standalone="no"?>
<svg
   xmlns:dc="http://purl.org/dc/elements/1.1/"
   xmlns:cc="http://creativecommons.org/ns#"
   xmlns:rdf="http://www.w3.org/1999/02/22-rdf-syntax-ns#"
   xmlns:svg="http://www.w3.org/2000/svg"
   xmlns="http://www.w3.org/2000/svg"
   xmlns:sodipodi="http://sodipodi.sourceforge.net/DTD/sodipodi-0.dtd"
   xmlns:inkscape="http://www.inkscape.org/namespaces/inkscape"
   id="Слой_1"
   data-name="Слой 1"
   viewBox="0 0 800 215"
   version="1.1"
   sodipodi:docname="logo 800x215.svg"
   inkscape:version="0.92.1 r15371">
  <metadata
     id="metadata63">
    <rdf:RDF>
      <cc:Work
         rdf:about="">
        <dc:format>image/svg+xml</dc:format>
        <dc:type
           rdf:resource="http://purl.org/dc/dcmitype/StillImage" />
      </cc:Work>
    </rdf:RDF>
  </metadata>
  <defs
     id="defs61" />
  <sodipodi:namedview
     pagecolor="#ffffff"
     bordercolor="#666666"
     borderopacity="1"
     objecttolerance="10"
     gridtolerance="10"
     guidetolerance="10"
     inkscape:pageopacity="0"
     inkscape:pageshadow="2"
     inkscape:window-width="640"
     inkscape:window-height="480"
     id="namedview59"
     showgrid="false"
     inkscape:zoom="0.34625"
     inkscape:cx="400"
     inkscape:cy="107.5"
     inkscape:window-x="0"
     inkscape:window-y="24"
     inkscape:window-maximized="0"
     inkscape:current-layer="Слой_1" />
  <title
     id="title2">logo 800x215</title>
  <path
     d="M121.74,78.18c-.56-.23-1-.4-1.5-.6a31.67,31.67,0,0,0-9.12-2.36,30.32,30.32,0,0,0-4.21-.2A32.52,32.52,0,0,0,76.47,97.9a31.75,31.75,0,0,0-1.41,11,32.41,32.41,0,0,0,13.88,25.28,31.72,31.72,0,0,0,11.68,5.09,33.41,33.41,0,0,0,8.9.66,32,32,0,0,0,11.26-2.72,36.14,36.14,0,0,0,4.32-2.3l.72-.44a.47.47,0,0,1,.59.17c.07.09.14.18.2.27l4.35,7.44a.74.74,0,0,1,.11.31.47.47,0,0,1-.09.31,2.55,2.55,0,0,1-.5.44,42,42,0,0,1-23.71,6.67,41.4,41.4,0,0,1-14.19-2.7,42.71,42.71,0,0,1-26.9-32.05,42.59,42.59,0,0,1-.32-13.62A42.66,42.66,0,0,1,99,65.79a41.09,41.09,0,0,1,9.56-.87,43,43,0,0,1,9.68,1.37,41.72,41.72,0,0,1,7.14,2.57,3.15,3.15,0,0,1,.57.35.35.35,0,0,1,.12.28,2.64,2.64,0,0,1-.21.64q-1.86,3.79-3.74,7.57A3.28,3.28,0,0,1,121.74,78.18Z"
     id="path4"
     style="fill:#ffffff" />
  <path
     d="M31.2,32.09a2.25,2.25,0,0,1,.4.26l6.31,6.34a1,1,0,0,1,.14.3,2.11,2.11,0,0,1-.69.93,95.25,95.25,0,0,0-6.64,7.64A97.64,97.64,0,0,0,15.57,75.28a96.3,96.3,0,0,0-3.14,11,93.41,93.41,0,0,0-1.62,9.48c-.22,1.84-.35,3.7-.48,5.55a83.84,83.84,0,0,0-.21,8.44c0,.67.05,1.35.07,2a.6.6,0,0,1-.51.57l-.5.05c-2.25.12-4.49.26-6.74.35-2.61.1-2.19.37-2.36-2.14a79.21,79.21,0,0,1,.08-8.1A98.77,98.77,0,0,1,1.3,90.94,105.53,105.53,0,0,1,6,72a107.18,107.18,0,0,1,11.39-23.1A109.06,109.06,0,0,1,30.26,32.8,2,2,0,0,1,31.2,32.09Z"
     id="path6"
     style="fill:#ffffff" />
  <path
     d="M29.95,110.09l-3.55.09a3.65,3.65,0,0,1-.84-.05.52.52,0,0,1-.35-.31,5.69,5.69,0,0,1-.13-1.17c0-1.46,0-2.93.06-4.39a77.5,77.5,0,0,1,1.17-11.08,82.71,82.71,0,0,1,38-55.86,4.06,4.06,0,0,1,.74-.4.72.72,0,0,1,.46.08.66.66,0,0,1,.23.24l5,7a1.33,1.33,0,0,1,.21.45.38.38,0,0,1-.09.31,3.26,3.26,0,0,1-.52.41c-1.27.83-2.58,1.61-3.83,2.48a72.32,72.32,0,0,0-21.94,24,71.62,71.62,0,0,0-9.33,35.2c0,.73,0,1.46,0,2.19a.62.62,0,0,1-.65.64l-4.56.2Z"
     id="path8"
     style="fill:#ffffff" />
  <path
     d="M69,180.12c1.16-2.75,2.48-5.49,3.7-8.27a2,2,0,0,1,.29-.41,1,1,0,0,1,.2-.13c1.67.7,3.27,1.66,5,2.35s3.32,1.39,5,2,3.53,1.15,5.31,1.68,3.49.88,5.26,1.22,3.66.63,5.51.84,3.59.33,5.39.39,3.71.08,5.57,0a53.06,53.06,0,0,0,5.39-.39c1.84-.26,3.69-.46,5.51-.8s3.52-.78,5.26-1.22a49.63,49.63,0,0,0,5.32-1.65c1.69-.63,3.36-1.3,5-2a50.31,50.31,0,0,0,5-2.44c1.58-.86,3.13-1.77,4.72-2.67a4.35,4.35,0,0,1,.48.51q2.33,3.42,4.64,6.85c.13.19.23.38.34.58a.43.43,0,0,1-.13.45c-.27.2-.55.4-.83.58a81.83,81.83,0,0,1-23.23,9.85,85.46,85.46,0,0,1-10.62,2,87.28,87.28,0,0,1-10.63.51,75.82,75.82,0,0,1-10.94-.84,81.72,81.72,0,0,1-25.75-8.3A1.49,1.49,0,0,1,69,180.12Z"
     id="path10"
     style="fill:#ffffff" />
  <path
     d="M154.74,70.37c.18-.18.37-.39.58-.57l6.17-5.25a2.66,2.66,0,0,1,.56-.36.35.35,0,0,1,.31,0,3,3,0,0,1,.47.48,69.44,69.44,0,0,1,12.6,25.93A71.16,71.16,0,0,1,177,99.77a72.13,72.13,0,0,1,.22,13.32,66.92,66.92,0,0,1-2.14,12.46A70.63,70.63,0,0,1,170.48,138a65.3,65.3,0,0,1-4.62,8c-.15.23-.34.43-.54.67a4.28,4.28,0,0,1-.64-.3l-7-5-.13-.1a.48.48,0,0,1-.15-.6c.14-.24.28-.49.43-.73A59,59,0,0,0,166,120.2a52.21,52.21,0,0,0,1.22-9.2c0-1.13.14-2.25.13-3.37A59.63,59.63,0,0,0,160.71,80a61.85,61.85,0,0,0-5.08-8.16A3.39,3.39,0,0,1,154.74,70.37Z"
     id="path12"
     style="fill:#ffffff" />
  <path
     d="M42.89,110.07l3.63-.16a3.46,3.46,0,0,1,.83,0,.55.55,0,0,1,.36.3,3.53,3.53,0,0,1,.11.83,58.49,58.49,0,0,0,4.8,20.25,60,60,0,0,0,24.52,27.75,57.07,57.07,0,0,0,12.14,5.43c.54.17,1.07.33,1.61.51s.54.38.41.76q-1,2.79-1.94,5.58-.5,1.43-1,2.86a.52.52,0,0,1-.67.33,64.66,64.66,0,0,1-9-3.35,70.23,70.23,0,0,1-33.5-32.07A68.94,68.94,0,0,1,38.73,120a71.74,71.74,0,0,1-1-8.54c-.06-1.12.08-1.27,1.2-1.3C40.27,110.12,41.62,110.1,42.89,110.07Z"
     id="path14"
     style="fill:#ffffff" />
  <path
     d="M42.6,107.31H38.71a1.94,1.94,0,0,1-.66-.09.55.55,0,0,1-.31-.35,7.32,7.32,0,0,1-.07-1.17A63.08,63.08,0,0,1,38.9,94.12a68.51,68.51,0,0,1,6-17.69A70.3,70.3,0,0,1,76.32,44.95a63.87,63.87,0,0,1,8.4-3.52l.64-.19a.4.4,0,0,1,.43.2,1.75,1.75,0,0,1,.23.45q1.29,3.93,2.58,7.86c.05.16.09.33.13.49a.52.52,0,0,1-.31.54l-.95.35a59.81,59.81,0,0,0-29,22.19,59.38,59.38,0,0,0-7.59,15,58.23,58.23,0,0,0-2.32,9.33,59.62,59.62,0,0,0-.77,8.06c0,.34,0,.67-.06,1a.62.62,0,0,1-.52.57c-.34,0-.67,0-1,0H42.6Z"
     id="path16"
     style="fill:#ffffff" />
  <path
     d="M56.43,109.39l-3.38.11c-.34,0-.67,0-1,0a.53.53,0,0,1-.42-.45c0-.34-.06-.67-.06-1,0-2.08.08-4.16.29-6.24A54.67,54.67,0,0,1,54,91.2a56.25,56.25,0,0,1,30.5-34.7,53.3,53.3,0,0,1,12.19-3.89,51.82,51.82,0,0,1,8.54-1,4.13,4.13,0,0,1,.83.08.37.37,0,0,1,.23.23,2.78,2.78,0,0,1,.1.66c.06,2.36.12,4.73.16,7.09a10,10,0,0,1-.1,1.34.7.7,0,0,1-.65.66l-.67.06a44.52,44.52,0,0,0-20.52,6,45.47,45.47,0,0,0-17.2,17.48,45.34,45.34,0,0,0-5.72,22.32c0,1.63,0,1.6-1.53,1.68l-3.71.18Z"
     id="path18"
     style="fill:#ffffff" />
  <path
     d="M18.29,111l3.54-.13c.28,0,.56,0,.84,0a.42.42,0,0,1,.37.31,3.4,3.4,0,0,1,.13.83,83.72,83.72,0,0,0,12,39.13,84.29,84.29,0,0,0,20.65,23.2l1.33,1a.51.51,0,0,1,.08.61c-.18.29-.35.58-.54.86l-4,6.06c-.15.23-.33.46-.5.68a.49.49,0,0,1-.61.13c-.28-.19-.55-.39-.82-.59a94.64,94.64,0,0,1-35-52.84A93,93,0,0,1,13.15,114c-.21-3.16-.55-2.8,2.6-2.88l2.53-.09Z"
     id="path20"
     style="fill:#ffffff" />
  <path
     d="M185.81,180.92a3.55,3.55,0,0,1-.5-.37l-6-6.16-.11-.13a.51.51,0,0,1,0-.62c.44-.51.87-1,1.32-1.54a96.17,96.17,0,0,0,19.6-34,93.28,93.28,0,0,0,2.75-10.1,98.48,98.48,0,0,0,1.59-10A102.57,102.57,0,0,0,205,105.7q0-.25,0-.51c0-.73.15-.88.89-.9l7.94-.28a7.29,7.29,0,0,1,.84.05.38.38,0,0,1,.33.34,6.78,6.78,0,0,1,.11,1.17q0,2.7-.07,5.4c0,.79-.08,1.57-.11,2.36a96.93,96.93,0,0,1-1,9.91,104.43,104.43,0,0,1-2.27,11.25,106,106,0,0,1-6.2,17.49,107.52,107.52,0,0,1-12.5,20.81c-2,2.6-4.1,5.08-6.3,7.5A1.42,1.42,0,0,1,185.81,180.92Z"
     id="path22"
     style="fill:#ffffff" />
  <path
     d="M184.74,104.92l-4.05.09a3.21,3.21,0,0,1-.34,0,.57.57,0,0,1-.44-.44c-.06-.56-.12-1.12-.16-1.68a72.08,72.08,0,0,0-17.55-42.8,72.12,72.12,0,0,0-18.4-15.2,10,10,0,0,1-.85-.53.37.37,0,0,1-.15-.44,5.57,5.57,0,0,1,.28-.61q2-3.55,3.91-7.1a2.5,2.5,0,0,1,.41-.53.35.35,0,0,1,.3-.08,8,8,0,0,1,.9.45,83.17,83.17,0,0,1,11.88,8.32,82.32,82.32,0,0,1,28.11,48,73.85,73.85,0,0,1,1.28,11.06,6.43,6.43,0,0,1-.06,1,.34.34,0,0,1-.21.23,9.09,9.09,0,0,1-1.16.14c-1.24.05-2.47.08-3.71.12Z"
     id="path24"
     style="fill:#ffffff" />
  <path
     d="M193.62,146.59a3.3,3.3,0,0,1-.18.61c-.85,1.71-1.68,3.44-2.58,5.13a93.23,93.23,0,0,1-10.78,15.9A94.77,94.77,0,0,1,160.32,186a93.07,93.07,0,0,1-18.51,9.68c-2.68,1-5.39,2-8.15,2.75l-.65.17a.56.56,0,0,1-.56-.28c-.16-.54-.33-1.08-.48-1.62q-.92-3.34-1.82-6.67a2,2,0,0,1-.09-.66.56.56,0,0,1,.24-.41,8.68,8.68,0,0,1,1.12-.38,83.49,83.49,0,0,0,27.94-14.28,84.91,84.91,0,0,0,25.06-31.56c.14-.31.29-.61.45-.91a.52.52,0,0,1,.73-.18l.59.32,6.43,3.71a8.46,8.46,0,0,1,.84.56C193.52,146.32,193.54,146.45,193.62,146.59Z"
     id="path26"
     style="fill:#ffffff" />
  <path
     d="M237.63,106.1q0-26.37,0-52.73c0-.91,0-1.83.08-2.74a.9.9,0,0,1,.67-.66c.33,0,.66-.08,1-.08h12a4.59,4.59,0,0,1,1.23.15,1,1,0,0,1,.49.5,1.86,1.86,0,0,1,.11.73c0,.75,0,1.5,0,2.25q0,23.74,0,47.48c0,.83.07,1.66.11,2.48,0,0,.1.11.16.14s.2.05.23,0a6.19,6.19,0,0,0,.59-.79,23.58,23.58,0,0,1,3.07-4.24A22.12,22.12,0,0,1,268,92.34a32.23,32.23,0,0,1,12.88-.82A27.23,27.23,0,0,1,291,94.86a28,28,0,0,1,7,5.64,34.51,34.51,0,0,1,7.87,15.13A53.54,53.54,0,0,1,307,133.25a48.76,48.76,0,0,1-1.88,10.05,33.31,33.31,0,0,1-6.46,12,26.45,26.45,0,0,1-14,8.71,33.6,33.6,0,0,1-15.35.37,24,24,0,0,1-12-6.35c-1.25-1.22-2.38-2.56-3.56-3.83,0-.05-.17-.1-.21-.08s-.31.17-.34.29a5.09,5.09,0,0,0-.08,1c0,1.67,0,3.33,0,5a5.23,5.23,0,0,1-.11,1.24.93.93,0,0,1-.48.5,1.72,1.72,0,0,1-.73.12h-13c-.17,0-.33,0-.5,0a.77.77,0,0,1-.66-.63c0-.75-.09-1.49-.09-2.24q0-6.37,0-12.75Q237.63,126.35,237.63,106.1Zm53.24,22.32a31.89,31.89,0,0,0-.58-7.24,22.48,22.48,0,0,0-3.27-8.31,16.57,16.57,0,0,0-10.39-7.24,23.49,23.49,0,0,0-8.94-.21,15.93,15.93,0,0,0-10.92,6.83,20.16,20.16,0,0,0-2.95,6.3,35.31,35.31,0,0,0-.4,16.58,21.9,21.9,0,0,0,3.12,7.58,18,18,0,0,0,7.27,6.67,19.8,19.8,0,0,0,15.55.65,15.47,15.47,0,0,0,8.81-8.06,23.41,23.41,0,0,0,2.11-6.38A32.44,32.44,0,0,0,290.87,128.42Z"
     id="path28"
     style="fill:#ffffff" />
  <path
     d="M561.71,93.76c.52,0,1-.08,1.51-.08h15.5a6.4,6.4,0,0,1,1.23.14c.08,0,.19.3.15.4a2,2,0,0,1-.44.59l-17.39,16.9-10.78,10.44c-.36.35-.72.69-1.07,1.05s-.52.81-.12,1.3.86,1,1.31,1.51l30.4,34.2c.39.43.73.9,1.1,1.35.13.16,0,.6-.17.61-.33,0-.66.08-1,.08h-16.5a4.76,4.76,0,0,1-1,0,1.91,1.91,0,0,1-.89-.39c-.54-.51-1-1.08-1.53-1.65l-22.34-25.63q-2.79-3.2-5.59-6.4a3.62,3.62,0,0,0-.75-.64.45.45,0,0,0-.42.12,3.63,3.63,0,0,0-.15,1q0,15.25,0,30.51c0,3.43.18,3.14-3.07,3.15H519l-.75,0c-.84,0-1-.5-1-1.12,0-.33,0-.67,0-1,0-.58,0-1.17,0-1.75q0-52.27,0-104.53c0-.92,0-1.83,0-2.75s.37-1.16,1.26-1.18c1.33,0,2.67,0,4,0,2.75,0,5.5,0,8.25,0a7.49,7.49,0,0,1,1.48.15.61.61,0,0,1,.49.51,7.09,7.09,0,0,1,.09.74c0,.67,0,1.33,0,2q0,32.13,0,64.27c0,1.17,0,2.33,0,3.5,0,.13.14.28.24.39a.3.3,0,0,0,.45,0c.31-.27.64-.53.93-.82l9.42-9.32,16.35-16.18C560.71,94.66,561.21,94.23,561.71,93.76Z"
     id="path30"
     style="fill:#ffffff" />
  <path
     d="M427.69,128q0,15.5,0,31c0,.83,0,1.66-.08,2.49a.76.76,0,0,1-.64.66c-.33,0-.66.07-1,.07H413.72c-.33,0-.66,0-1-.08a.76.76,0,0,1-.59-.7c0-.5-.07-1-.07-1.5,0-1.42,0-2.83,0-4.25a12,12,0,0,0-.12-1.23.29.29,0,0,0-.35-.28.36.36,0,0,0-.22.06c-.34.36-.68.73-1,1.11a28.85,28.85,0,0,1-3.87,3.89,24.83,24.83,0,0,1-12.18,5.42,34.68,34.68,0,0,1-12.18-.32,27,27,0,0,1-17.32-11.33,35,35,0,0,1-5.45-12.52,57.74,57.74,0,0,1-1.23-15.89,44.6,44.6,0,0,1,1.71-10.58,34.26,34.26,0,0,1,7.75-13.82,27,27,0,0,1,14-8.21,32.89,32.89,0,0,1,11.18-.58,28.74,28.74,0,0,1,6.09,1.33,23,23,0,0,1,6.58,3.52,20.52,20.52,0,0,1,5.21,6c.17.29.31.59.49.87s.21.43.51.45.37-.3.38-.82c0-.75,0-1.5,0-2.25,0-1.67,0-3.33,0-5a6.73,6.73,0,0,1,.1-1.24.58.58,0,0,1,.47-.51,5.52,5.52,0,0,1,.74-.1h13a4.32,4.32,0,0,1,.73.11.59.59,0,0,1,.47.51,18.44,18.44,0,0,1,.1,2q0,6.37,0,12.75Q427.69,118.55,427.69,128Zm-15.2-.38a33.23,33.23,0,0,0-1.15-9.25,20.34,20.34,0,0,0-2-4.82,16.3,16.3,0,0,0-11.91-8.22,24.1,24.1,0,0,0-7.47,0,16.36,16.36,0,0,0-9.61,4.9,19.8,19.8,0,0,0-4.52,7.67,30.13,30.13,0,0,0-1.21,5.61,37.76,37.76,0,0,0,.77,13.88,19.93,19.93,0,0,0,2,5.1,16,16,0,0,0,9.59,7.86,21.66,21.66,0,0,0,8.4.78,16.66,16.66,0,0,0,10.93-5.42,22,22,0,0,0,5-8.83A31.54,31.54,0,0,0,412.49,127.67Z"
     id="path32"
     style="fill:#ffffff" />
  <path
     d="M625.86,91.23c7.15,0,13.27,1.41,18.93,4.55A37.32,37.32,0,0,1,662,115.17a36.16,36.16,0,0,1-11.36,41.39,38.27,38.27,0,0,1-27.51,8.38,36.53,36.53,0,0,1-15.38-4.78c-8.72-5.08-14.78-12.37-17.57-22.13a36.12,36.12,0,0,1,9-35.36,37.68,37.68,0,0,1,20.17-10.78A28.79,28.79,0,0,1,625.86,91.23Zm-20.53,37c0,.5,0,1,0,1.5a22.75,22.75,0,0,0,9.47,17.64,16.53,16.53,0,0,0,4.13,2.29,21.51,21.51,0,0,0,13,.79,18.94,18.94,0,0,0,7.49-3.83,22.62,22.62,0,0,0,7.49-11,26,26,0,0,0,1-8.63,22.6,22.6,0,0,0-7.7-16.74,19.21,19.21,0,0,0-8-4.41,22.1,22.1,0,0,0-6.68-.67,18.87,18.87,0,0,0-10.49,3.52,22.6,22.6,0,0,0-9.24,14A23.31,23.31,0,0,0,605.33,128.27Z"
     id="path34"
     style="fill:#ffffff" />
  <path
     d="M731.7,115.38q0-9.25,0-18.5c0-.83.05-1.66.09-2.49a.74.74,0,0,1,.65-.64c.67,0,1.33-.06,2-.07h10.25q.87,0,1.75,0a.87.87,0,0,1,.82.79c0,.5.06,1,.06,1.5,0,10.75.05,21.5,0,32.25a64.72,64.72,0,0,1-1.36,13.66,43.08,43.08,0,0,1-2.29,7.39,23.48,23.48,0,0,1-14.28,13.47,35.55,35.55,0,0,1-9.5,2c-1.16.09-2.33.2-3.49.25a52.08,52.08,0,0,1-14.87-1.41,27.64,27.64,0,0,1-8.44-3.66,22.13,22.13,0,0,1-7-7.36,31.81,31.81,0,0,1-3.51-8.78,59,59,0,0,1-1.65-12.61c0-1.08-.06-2.17-.06-3.25q0-15.88,0-31.75c0-.58,0-1.16.06-1.75a.82.82,0,0,1,.83-.76c.25,0,.5,0,.75,0h12.25a6.13,6.13,0,0,1,1.23.14.57.57,0,0,1,.34.34,2.46,2.46,0,0,1,.11.74c0,.83,0,1.67,0,2.5q0,17.13,0,34.25a37.54,37.54,0,0,0,.49,7,21.56,21.56,0,0,0,1.22,4.32,11.81,11.81,0,0,0,7.43,6.92,25.88,25.88,0,0,0,6.87,1.22,32.82,32.82,0,0,0,7-.4,16.37,16.37,0,0,0,5-1.61,11.31,11.31,0,0,0,5.27-5.48,20.13,20.13,0,0,0,1.78-6.73c.14-1.66.25-3.33.26-5,0-5.5,0-11,0-16.5Z"
     id="path36"
     style="fill:#ffffff" />
  <path
     d="M500.69,95.51a9.86,9.86,0,0,1,.14,1.2q0,7.38,0,14.75a.66.66,0,0,1,0,.25c-.06.14-.12.33-.23.38a.52.52,0,0,1-.46,0,12.12,12.12,0,0,1-.94-.81,23.52,23.52,0,0,0-8.8-5.09,25.31,25.31,0,0,0-11.34-1.1,26.62,26.62,0,0,0-3.68.67,19.36,19.36,0,0,0-12.44,10.79,21.49,21.49,0,0,0-1.86,6.46,31.73,31.73,0,0,0,.8,13.37,19.19,19.19,0,0,0,8.67,11.49,17.32,17.32,0,0,0,3.86,1.74,27.55,27.55,0,0,0,15,.39,20.31,20.31,0,0,0,9.6-5.58,15.27,15.27,0,0,1,1.29-1.15c.05,0,.32.07.39.18a.89.89,0,0,1,.1.48c0,5.08,0,10.17,0,15.25a1.63,1.63,0,0,1-1,1.55,33.73,33.73,0,0,1-7.67,3A44,44,0,0,1,477.78,165a42.23,42.23,0,0,1-8.59-1.51A34.2,34.2,0,0,1,446.75,142a42,42,0,0,1-2-9.76,43.37,43.37,0,0,1,1-14.39c2.43-9.87,8.26-17.14,17.09-22a36.43,36.43,0,0,1,13-4.11,51.63,51.63,0,0,1,8-.44,39.34,39.34,0,0,1,11.79,2A24.78,24.78,0,0,1,500.69,95.51Z"
     id="path38"
     style="fill:#ffffff" />
  <path
     d="M788,134.86q0,12.12,0,24.24c0,.83,0,1.66-.08,2.49a.76.76,0,0,1-.67.62c-.17,0-.33,0-.5,0h-13a1.77,1.77,0,0,1-.73-.1,1.08,1.08,0,0,1-.48-.5,1.92,1.92,0,0,1-.1-.73c0-.75,0-1.5,0-2.25q0-23.86,0-47.72c0-.92,0-1.83,0-2.75a.9.9,0,0,0-1-.9l-7.5,0c-.91,0-1.83,0-2.74-.06a.77.77,0,0,1-.68-.61,6.77,6.77,0,0,1-.08-.74q0-5.37,0-10.74a3.88,3.88,0,0,1,.13-1,.54.54,0,0,1,.35-.33,6.77,6.77,0,0,1,1.24-.13h7.5c.66,0,1.33,0,2-.06a.87.87,0,0,0,.77-.84q0-1.12,0-2.25,0-9.87,0-19.74c0-.75,0-1.5,0-2.25,0-.55.37-.86,1-.9l.75,0h12a4.88,4.88,0,0,1,1.23.13.75.75,0,0,1,.47.49,20.9,20.9,0,0,1,.11,2.24q0,10.12,0,20.24c0,.75,0,1.49.08,2.24a.78.78,0,0,0,.65.65c.58,0,1.16.07,1.74.07H798a7.37,7.37,0,0,1,1.49.12c.18,0,.37.31.45.52a2,2,0,0,1,.09.74q0,5.5,0,11c0,.17,0,.33,0,.5a.77.77,0,0,1-.63.66c-.58,0-1.16.07-1.74.07h-7.5a7.7,7.7,0,0,0-1.49.12.73.73,0,0,0-.47.49,19.88,19.88,0,0,0-.12,2.24q0,10.74,0,21.49Z"
     id="path40"
     style="fill:#ffffff" />
  <path
     d="M340.41,106.25q0,26.23,0,52.47c0,.92,0,1.83-.06,2.74a.8.8,0,0,1-.82.76c-.33,0-.66,0-1,0H326.79a9.36,9.36,0,0,1-1.48-.14.56.56,0,0,1-.33-.34,2.44,2.44,0,0,1-.11-.74c0-.83,0-1.67,0-2.5q0-52.47,0-104.94,0-1.37,0-2.75a1,1,0,0,1,1-.93c.42,0,.83,0,1.25,0h11.24c.42,0,.83,0,1.25.06a.89.89,0,0,1,.78.83c0,.33,0,.67,0,1,0,.75,0,1.5,0,2.25Q340.41,80.14,340.41,106.25Z"
     id="path42"
     style="fill:#ffffff" />
  <path
     d="M54.39,41.71c-.16.16-.35.36-.56.54a86.65,86.65,0,0,0-7,6.41A84.44,84.44,0,0,0,31.22,71.15,83.41,83.41,0,0,0,25.53,87a84.45,84.45,0,0,0-2,11.46c-.25,2.35-.36,4.71-.46,7.08,0,.39,0,.78-.08,1.18a.52.52,0,0,1-.46.42,3.13,3.13,0,0,1-.34,0l-8.44,0a1.28,1.28,0,0,1-.48-.11.38.38,0,0,1-.21-.24,6,6,0,0,1-.08-1c.09-3.26.28-6.52.68-9.77A95.77,95.77,0,0,1,16,83.75a94.59,94.59,0,0,1,20.9-39.09,95,95,0,0,1,9.67-9.42c.21-.18.45-.34.68-.5a.41.41,0,0,1,.47,0,3.43,3.43,0,0,1,.52.43l5.74,5.73A1.22,1.22,0,0,1,54.39,41.71Z"
     id="path44"
     style="fill:#ffffff" />
  <path
     d="M35.35,186.93a3.85,3.85,0,0,1,.32-.55l5.45-6.67a2.15,2.15,0,0,1,.25-.22.45.45,0,0,1,.47,0l1.28,1.1A97.4,97.4,0,0,0,66.64,196a96.26,96.26,0,0,0,26.26,7.86c2.51.37,5,.67,7.54.85s5.28.28,7.93.25c.5,0,1,0,1.51.06a.61.61,0,0,1,.45.45c0,.17,0,.33.05.5q.12,3.8.23,7.59a5.52,5.52,0,0,1,0,1,.56.56,0,0,1-.31.35,1.86,1.86,0,0,1-.66.11A93.15,93.15,0,0,1,99,214.65l-4-.39a94.5,94.5,0,0,1-11-1.84,105.63,105.63,0,0,1-17.82-5.67,107,107,0,0,1-19.51-10.67,110.52,110.52,0,0,1-10.11-7.88c-.34-.3-.66-.61-1-.93A1.54,1.54,0,0,1,35.35,186.93Z"
     id="path46"
     style="fill:#ffffff" />
  <path
     d="M180.91,29.17a4.78,4.78,0,0,1-.37.52q-2.48,2.65-5,5.29a4.38,4.38,0,0,1-1.43,1.14,1.47,1.47,0,0,1-.87-.51,90.37,90.37,0,0,0-7.14-5.93,96.59,96.59,0,0,0-14.89-9.24A97.77,97.77,0,0,0,137,14.65a94.67,94.67,0,0,0-11.44-2.88A99.23,99.23,0,0,0,108,10.1l-1.18,0a.55.55,0,0,1-.53-.54c0-.28-.07-.56-.08-.84q-.15-4-.29-7.93a.65.65,0,0,1,0-.33c.08-.14.19-.32.32-.35a3.11,3.11,0,0,1,.84-.07c1.91,0,3.83,0,5.74.15,2.25.12,4.5.27,6.73.52s4.58.59,6.84,1a105,105,0,0,1,16.31,4.24,106.81,106.81,0,0,1,27.46,14.25,110.33,110.33,0,0,1,9.46,7.62c.38.34.73.7,1.09,1.05A1.59,1.59,0,0,1,180.91,29.17Z"
     id="path48"
     style="fill:#ffffff" />
  <path
     d="M109,158.42q0-1.69,0-3.38c0-.34,0-.68,0-1a.62.62,0,0,1,.6-.66c1.07-.09,2.13-.17,3.2-.29a44.71,44.71,0,0,0,15-4.39A45.88,45.88,0,0,0,152,119.14,42.48,42.48,0,0,0,153.39,109c0-.34,0-.67,0-1a.6.6,0,0,1,.56-.53l.34,0,7.94,0a3.36,3.36,0,0,1,.84.08.56.56,0,0,1,.32.33,2,2,0,0,1,.07.67c0,1.07,0,2.14-.12,3.21a55.63,55.63,0,0,1-14.79,33.86,55.77,55.77,0,0,1-31,17c-2.28.41-4.57.64-6.87.85a12.21,12.21,0,0,1-1.35,0A.53.53,0,0,1,109,163c0-.22-.05-.45-.05-.67,0-1.29,0-2.59,0-3.88Z"
     id="path50"
     style="fill:#ffffff" />
  <path
     d="M190.64,62.61a2.15,2.15,0,0,1-.9.74,65.53,65.53,0,0,1-7.44,4.29c-.43-.22-.57-.68-.78-1.06a84.55,84.55,0,0,0-17.37-21.82,84.12,84.12,0,0,0-38.59-19.82l-.49-.12a.52.52,0,0,1-.31-.54c0-.11,0-.22.06-.33q.8-4,1.61-7.94a6.24,6.24,0,0,1,.2-.65.51.51,0,0,1,.51-.36c.44.07.89.14,1.33.24a95,95,0,0,1,61.68,46.15A2.48,2.48,0,0,1,190.64,62.61Z"
     id="path52"
     style="fill:#ffffff" />
  <path
     d="M78,106.86A30,30,0,0,1,80.7,95.3a29.34,29.34,0,0,1,14.14-14.4,30,30,0,0,1,13.4-2.9,29.6,29.6,0,0,1,27.64,21.27,22.61,22.61,0,0,1,.93,4.62,2.48,2.48,0,0,1,0,.67,1.06,1.06,0,0,1-.27.4s-.1,0-.16,0l-8.74.74a.89.89,0,0,1-.34,0c-.16,0-.32-.12-.37-.3s-.17-.65-.23-1a19.32,19.32,0,0,0-15.72-16,19.16,19.16,0,0,0-12,1.66,18.94,18.94,0,0,0-8.43,8,19.31,19.31,0,0,0-2.42,8.7c0,.22,0,.45,0,.67,0,.44-.19.63-.58.68s-.56.07-.84.08l-7.76.25a1.12,1.12,0,0,1-.49-.07c-.14-.06-.31-.2-.33-.33C78,107.63,78,107.18,78,106.86Z"
     id="path54"
     style="fill:#ffffff" />
  <path
     d="M101.26,107.22a4.9,4.9,0,0,1-1.8.07c-1.8-.08-3.6-.18-5.39-.27l-.67,0c-2.41-.08-2.19-.11-1.86-2.37A14.67,14.67,0,0,1,94.34,98a16.11,16.11,0,0,1,9.31-6.3A16.31,16.31,0,0,1,123.44,104a15.51,15.51,0,0,1-2.13,12.14A16.24,16.24,0,0,1,97.19,120a16,16,0,0,1-5.62-9.37,5.11,5.11,0,0,1-.07-.83.37.37,0,0,1,.29-.36,6.79,6.79,0,0,1,1-.21l8-1a.57.57,0,0,1,.63.44c.06.22.11.44.17.65a6.21,6.21,0,1,0,0-3.46C101.48,106.27,101.38,106.71,101.26,107.22Z"
     id="path56"
     style="fill:#ffffff" />
</svg>
